<svg width="29" height="28" viewBox="0 0 29 28" fill="none" xmlns="http://www.w3.org/2000/svg">
<path d="M26.076 20.9114C25.658 21.8227 25.1415 22.6916 24.5346 23.5048C23.7238 24.5876 23.058 25.3359 22.5477 25.7524C21.7551 26.4328 20.9036 26.783 19.9932 26.8027C19.341 26.8027 18.5529 26.6291 17.635 26.2761C16.714 25.9246 15.8686 25.7524 15.0941 25.7524C14.2833 25.7524 13.4137 25.9246 12.4822 26.2761C11.5522 26.6291 10.8003 26.814 10.2251 26.831C9.35399 26.8663 8.48286 26.5077 7.61475 25.7524C7.06067 25.3006 6.36769 24.5241 5.53581 23.4257C4.64506 22.2554 3.91282 20.893 3.33912 19.3443C2.72465 17.6685 2.41666 16.0478 2.41666 14.4778C2.41666 12.6806 2.83184 11.1291 3.66372 9.83025C4.2929 8.81019 5.19242 7.95884 6.27559 7.35822C7.3437 6.75915 8.563 6.43659 9.80842 6.42362C10.5029 6.42362 11.4133 6.62409 12.5411 7.01939C13.6689 7.41469 14.3936 7.61516 14.7091 7.61516C14.9476 7.61516 15.7493 7.3794 17.1141 6.9121C18.402 6.47868 19.489 6.29938 20.3797 6.36997C22.7953 6.55209 24.6086 7.44151 25.8149 9.0453C23.6559 10.2693 22.5885 11.9818 22.6096 14.18C22.6278 15.8925 23.2936 17.3169 24.598 18.4478C25.1747 18.9638 25.8476 19.3768 26.5833 19.6662C26.4233 20.0996 26.2542 20.5132 26.076 20.9114ZM20.5398 0.53789C20.5398 1.87909 20.0144 3.13275 18.9711 4.29182C17.709 5.66973 16.1841 6.46738 14.5309 6.34174C14.5093 6.17308 14.4987 6.00335 14.4992 5.83349C14.4992 4.54453 15.0971 3.16663 16.1645 2.03862C16.6959 1.46826 17.3723 0.992484 18.1921 0.614126C19.0104 0.241415 19.7834 0.0352946 20.5111 0C20.5307 0.180708 20.5398 0.360005 20.5398 0.53789Z" fill="white"/>
</svg>
