<svg width="55" height="55" viewBox="0 0 55 55" fill="none" xmlns="http://www.w3.org/2000/svg">
<path d="M48.3413 34.6713C48.3447 33.3281 48.0153 32.0051 47.3825 30.8209C46.7497 29.6368 45.8334 28.6285 44.7157 27.8865C43.5981 27.1446 42.3141 26.6921 40.9789 26.5698C39.6437 26.4475 38.2991 26.6592 37.0656 27.1858C35.8322 27.7124 34.7486 28.5375 33.9119 29.5871C33.0753 30.6367 32.5118 31.8779 32.272 33.1994C32.0322 34.5209 32.1236 35.8814 32.538 37.1588C32.9524 38.4362 33.6768 39.5906 34.6464 40.5184L32.1795 43.5374L33.3239 48.1361L37.9779 42.4547C39.4511 42.891 41.0188 42.891 42.492 42.4547L47.146 48.1361L48.2905 43.5374L45.8236 40.5184C46.6169 39.7656 47.2492 38.8591 47.682 37.8539C48.1148 36.8488 48.3391 35.766 48.3413 34.6713ZM34.6845 34.6713C34.6694 33.5672 34.9824 32.4834 35.5837 31.558C36.185 30.6325 37.0475 29.9071 38.0614 29.474C39.0754 29.041 40.195 28.9198 41.2779 29.1258C42.3608 29.3319 43.358 29.856 44.1428 30.6314C44.9276 31.4068 45.4645 32.3985 45.6851 33.4804C45.9058 34.5623 45.8003 35.6855 45.3821 36.7072C44.9638 37.7288 44.2517 38.6028 43.3363 39.2179C42.4209 39.8331 41.3436 40.1616 40.2413 40.1617C38.7809 40.1651 37.3783 39.5898 36.3397 38.5612C35.3011 37.5326 34.7106 36.1343 34.6972 34.6713H34.6845Z" fill="#14B7C9"/>
<path d="M47.917 23.833H42.0414C44.5375 24.3395 46.7632 25.6114 48.3414 27.433V23.833H47.917Z" fill="#14B7C9"/>
<path d="M29.0183 21.8238H13.4079V19.7838H28.3716C28.28 18.8524 28.4737 17.9153 28.9278 17.0935L31.8895 12.1338H9.52793C8.84191 12.1338 8.18398 12.4024 7.69889 12.8807C7.2138 13.3589 6.94128 14.0075 6.94128 14.6838V40.1838C6.94128 40.8601 7.2138 41.5087 7.69889 41.9869C8.18398 42.4651 8.84191 42.7338 9.52793 42.7338H28.9278L29.665 41.8413L30.8677 40.3878C29.8978 38.9479 29.2985 37.2966 29.1218 35.577C28.945 33.8573 29.1962 32.1211 29.8535 30.5187C30.5108 28.9163 31.5545 27.496 32.894 26.3809C34.2336 25.2657 35.8287 24.4893 37.5413 24.1188H33.1052C32.2807 24.118 31.4705 23.9061 30.7541 23.5038C30.0376 23.1014 29.4395 22.5225 29.0183 21.8238ZM26.3411 35.8488H13.4079V33.8088H26.3411V35.8488ZM27.6344 26.9238H13.4079V24.8838H27.6344V26.9238Z" fill="#14B7C9"/>
<path d="M38.8301 5.75653L31.5251 18.5406C31.3551 18.7938 31.2576 19.0899 31.2432 19.396C31.2288 19.7021 31.2982 20.0063 31.4437 20.2748C31.5892 20.5433 31.805 20.7657 32.0673 20.9173C32.3297 21.0689 32.6282 21.1438 32.9299 21.1337H47.5528C47.8545 21.1438 48.153 21.0689 48.4153 20.9173C48.6777 20.7657 48.8935 20.5433 49.039 20.2748C49.1845 20.0063 49.2538 19.7021 49.2395 19.396C49.2251 19.0899 49.1276 18.7938 48.9576 18.5406L41.6525 5.75653C41.5085 5.50636 41.3024 5.29886 41.0548 5.15465C40.8072 5.01045 40.5268 4.93457 40.2413 4.93457C39.9559 4.93457 39.6754 5.01045 39.4279 5.15465C39.1803 5.29886 38.9742 5.50636 38.8301 5.75653Z" fill="#14B7C9"/>
</svg>
