<svg width="55" height="55" viewBox="0 0 55 55" fill="none" xmlns="http://www.w3.org/2000/svg">
<path d="M16.7932 24.8135L15.2932 29.4635H18.2932L16.7932 24.8135Z" fill="#14B7C9"/>
<path d="M45.7432 4.56348H21.7432V12.0635H27.7432V15.0635H8.24317C5.69316 15.0635 3.74316 17.0135 3.74316 19.5635V36.0635C3.74316 38.6135 5.69316 40.5635 8.24317 40.5635H9.74316V48.2135L19.1932 40.5635H29.2432V30.0635H45.7432C48.2932 30.0635 50.2432 28.1135 50.2432 25.5635V9.06348C50.2432 6.51348 48.2932 4.56348 45.7432 4.56348ZM19.9432 34.4135L19.1932 32.0135H14.5432L13.6432 34.4135H10.0432L14.9932 21.0635H18.5932L23.5432 34.4135H19.9432Z" fill="#14B7C9"/>
<path d="M47.4004 9.58405V11.7835H44.9464V24.8643H42.2144V19.2384H39.4594V19.5393C39.4594 20.7432 39.0426 21.7233 38.2092 22.4796C37.3911 23.2205 36.195 23.5909 34.6206 23.5909C33.5248 23.5909 32.5138 23.4134 31.5877 23.0584V20.5349C32.591 21.0442 33.5634 21.2989 34.5049 21.2989C35.1686 21.2989 35.7242 21.1291 36.1718 20.7895C36.6194 20.45 36.8432 19.9098 36.8432 19.1689C36.8432 17.965 36.0175 17.3631 34.366 17.3631H33.4862V15.0479H34.2039C35.6239 15.0479 36.3339 14.5 36.3339 13.4041C36.3339 12.3546 35.7242 11.8298 34.5049 11.8298C33.7023 11.8298 32.9151 12.015 32.1434 12.3854V9.93132C32.8997 9.63807 33.7409 9.49144 34.6669 9.49144C36.0715 9.49144 37.1519 9.81557 37.9082 10.4638C38.6799 11.0966 39.0658 11.9687 39.0658 13.08C39.0658 13.8826 38.8574 14.554 38.4407 15.0942C38.0394 15.6344 37.476 16.0048 36.7506 16.2055C37.4143 16.2981 38.0008 16.5682 38.5101 17.0158H42.2144V11.7835H40.316V9.58405H47.4004Z" fill="#E2F2FF"/>
</svg>
