<svg width="32" height="32" viewBox="0 0 32 32" fill="none" xmlns="http://www.w3.org/2000/svg">
<path d="M26.9795 2C27.3761 1.99971 27.7687 2.07756 28.1352 2.2291C28.5016 2.38063 28.8345 2.60288 29.115 2.88315C29.3955 3.16343 29.6181 3.49622 29.7699 3.86253C29.9218 4.22884 29.9999 4.62148 30 5.01801L30 26.9829C29.9998 27.3793 29.9215 27.7718 29.7695 28.138C29.6176 28.5042 29.3951 28.8369 29.1146 29.117C28.8341 29.3972 28.5012 29.6194 28.1349 29.7709C27.7686 29.9224 27.376 30.0002 26.9795 30L5.0187 30C4.21839 30 3.45084 29.6822 2.88478 29.1164C2.31871 28.5506 2.00047 27.7832 2 26.9829L2 5.01801C2 3.35012 3.35223 2 5.0187 2L26.9795 2Z" fill="#05A7E2"/>
<path d="M21.4251 21.8184L28.0808 16.0304L21.4295 10.2821C20.501 10.3548 19.776 10.9768 19.776 11.7344L19.776 13.0184L13.7449 13.0184C13.2573 13.0185 12.7898 13.2123 12.4451 13.5571C12.1004 13.9018 11.9067 14.3694 11.9067 14.857L11.9067 17.2409C11.9067 17.4822 11.9543 17.7212 12.0467 17.9442C12.139 18.1672 12.2744 18.3698 12.4451 18.5405C12.6158 18.7111 12.8185 18.8465 13.0415 18.9388C13.2645 19.0311 13.5035 19.0786 13.7449 19.0786L19.7764 19.0786L19.7764 20.3634C19.7764 21.1184 20.4997 21.74 21.4265 21.8153" fill="white"/>
<path d="M10.472 21.819L3.81628 16.031L10.4676 10.2871C11.3961 10.3598 12.1212 10.9818 12.1212 11.7394L12.1212 13.0234L18.1527 13.0234C18.6402 13.0235 19.1078 13.2173 19.4525 13.5621C19.7972 13.9069 19.9908 14.3745 19.9908 14.862L19.9908 17.2459C19.9908 17.4873 19.9433 17.7263 19.8509 17.9493C19.7585 18.1722 19.6231 18.3748 19.4524 18.5455C19.2817 18.7161 19.0791 18.8515 18.8561 18.9438C18.6331 19.0362 18.3941 19.0836 18.1527 19.0836L12.1212 19.0836L12.1212 20.3685C12.1212 21.1235 11.3979 21.745 10.4711 21.8203" fill="white"/>
</svg>
