<svg width="32" height="32" viewBox="0 0 32 32" fill="none" xmlns="http://www.w3.org/2000/svg">
<path d="M32 3.2002V28.8002H0.511975C0.00317497 28.8002 -0.153625 28.4658 0.166375 28.0562L7.31677 18.8594C7.38846 18.7633 7.47985 18.6836 7.58483 18.6257C7.68981 18.5677 7.80595 18.5329 7.92548 18.5235C8.04501 18.5141 8.16517 18.5304 8.27791 18.5712C8.39065 18.612 8.49336 18.6765 8.57917 18.7602L10.8496 20.8946C10.9314 20.9777 11.0314 21.0408 11.1417 21.0789C11.252 21.117 11.3695 21.1291 11.4853 21.1142C11.601 21.0993 11.7117 21.0579 11.8088 20.9932C11.9058 20.9284 11.9866 20.8421 12.0448 20.741L16.92 13.157C16.9777 13.0564 17.0581 12.9707 17.1547 12.9067C17.2514 12.8426 17.3616 12.802 17.4767 12.788C17.5918 12.7741 17.7086 12.7871 17.8177 12.8262C17.9269 12.8652 18.0255 12.9292 18.1056 13.013L21.5792 16.3666C21.9504 16.7266 22.4736 16.6546 22.7376 16.2066L30.9504 3.7506C31.216 3.2994 31.6 3.2002 32 3.2002Z" fill="#05A7E2"/>
</svg>
