<svg width="72" height="72" viewBox="0 0 72 72" fill="none" xmlns="http://www.w3.org/2000/svg">
<path d="M7.875 28.125V47.25H23.625C24.2217 47.25 24.794 47.4871 25.216 47.909C25.6379 48.331 25.875 48.9033 25.875 49.5C25.875 50.0967 25.6379 50.669 25.216 51.091C24.794 51.5129 24.2217 51.75 23.625 51.75H5.625C5.02826 51.75 4.45597 51.5129 4.03401 51.091C3.61205 50.669 3.375 50.0967 3.375 49.5V28.125C3.375 27.5283 3.61205 26.956 4.03401 26.534C4.45597 26.1121 5.02826 25.875 5.625 25.875C6.22174 25.875 6.79403 26.1121 7.21599 26.534C7.63795 26.956 7.875 27.5283 7.875 28.125Z" fill="#348FD9"/>
<path d="M64.125 28.125V47.25H49.5C48.9033 47.25 48.331 47.4871 47.909 47.909C47.4871 48.331 47.25 48.9033 47.25 49.5C47.25 50.0967 47.4871 50.669 47.909 51.091C48.331 51.5129 48.9033 51.75 49.5 51.75H66.375C66.9717 51.75 67.544 51.5129 67.966 51.091C68.3879 50.669 68.625 50.0967 68.625 49.5V28.125C68.625 27.5283 68.3879 26.956 67.966 26.534C67.544 26.1121 66.9717 25.875 66.375 25.875C65.7783 25.875 65.206 26.1121 64.784 26.534C64.362 26.956 64.125 27.5283 64.125 28.125Z" fill="#348FD9"/>
<path d="M7.875 40.5H27.0406C27.7411 40.5 28.4347 40.6379 29.0818 40.906C29.7289 41.174 30.3169 41.5669 30.8122 42.0622C31.3778 42.6279 31.809 43.3135 32.0738 44.0683C32.3386 44.8232 32.4302 45.6279 32.3419 46.423L30.375 64.125H25.875V47.25H12.375C11.1815 47.25 10.0369 46.7759 9.19302 45.932C8.34911 45.0881 7.875 43.9435 7.875 42.75V40.5Z" fill="#FEC9A3"/>
<path d="M32.9798 68.625H25.875V64.125H30.375L33.4394 64.8911C33.8494 64.9936 34.2135 65.2303 34.4736 65.5634C34.7337 65.8966 34.875 66.3071 34.875 66.7298C34.875 67.2324 34.6753 67.7145 34.3199 68.0699C33.9645 68.4253 33.4824 68.625 32.9798 68.625Z" fill="#202A58"/>
<path d="M7.875 40.5H23.625V47.25H12.375C11.1815 47.25 10.0369 46.7759 9.19302 45.932C8.34911 45.0881 7.875 43.9435 7.875 42.75V40.5Z" fill="#202A58"/>
<path d="M14.8195 11.25C16.6834 11.25 18.1945 9.73896 18.1945 7.875C18.1945 6.01104 16.6834 4.5 14.8195 4.5C12.9555 4.5 11.4445 6.01104 11.4445 7.875C11.4445 9.73896 12.9555 11.25 14.8195 11.25Z" fill="#FCAC1F"/>
<path d="M64.125 40.5H54V30.648C54 27.5919 55.214 24.661 57.375 22.5H64.125V40.5Z" fill="#FF4081"/>
<path d="M54 7.875L51.75 14.625H54V19.125H57.375V22.5H64.125V19.125V7.875H54Z" fill="#FEC9A3"/>
<path d="M51.75 3.375H59.625C60.8185 3.375 61.9631 3.84911 62.807 4.69302C63.6509 5.53693 64.125 6.68153 64.125 7.875V12.375L60.75 7.875H54C53.4033 7.875 52.831 7.63795 52.409 7.21599C51.9871 6.79403 51.75 6.22174 51.75 5.625V3.375Z" fill="#92563A"/>
<path d="M14.625 63H10.125V51.75H14.625V63Z" fill="#B4D2D7"/>
<path d="M5.62437 64.125L10.1244 63H14.6244L19.1244 64.125C19.5194 64.1246 19.9076 64.2283 20.2499 64.4256C20.5921 64.6228 20.8764 64.9067 21.0742 65.2487C21.2719 65.5907 21.3762 65.9787 21.3764 66.3737C21.3766 66.7688 21.2728 67.1569 21.0755 67.4991C20.8781 67.8413 20.5941 68.1255 20.2521 68.3232C19.91 68.5208 19.5219 68.6249 19.1269 68.625C18.7319 68.6251 18.3438 68.5212 18.0016 68.3237C17.6595 68.1262 17.3754 67.8421 17.1778 67.5H7.5709C7.37331 67.8418 7.08923 68.1256 6.7472 68.3228C6.40518 68.5201 6.01727 68.6238 5.62245 68.6236C5.22763 68.6234 4.83982 68.5193 4.49799 68.3217C4.15617 68.1241 3.87236 67.8401 3.67511 67.4981C3.47786 67.1561 3.3741 66.7682 3.37427 66.3733C3.37444 65.9785 3.47852 65.5907 3.67607 65.2489C3.87362 64.907 4.15766 64.6232 4.49966 64.4259C4.84166 64.2286 5.22956 64.1249 5.62437 64.125Z" fill="#B4D2D7"/>
<path d="M57.375 51.75H61.875V63H57.375V51.75Z" fill="#B4D2D7"/>
<path d="M66.3743 64.125L61.8743 63H57.3743L52.8743 64.125C52.4793 64.1246 52.0911 64.2283 51.7489 64.4256C51.4066 64.6228 51.1223 64.9067 50.9245 65.2487C50.7268 65.5907 50.6225 65.9787 50.6223 66.3737C50.6221 66.7688 50.7259 67.1569 50.9233 67.4991C51.1206 67.8413 51.4046 68.1255 51.7467 68.3232C52.0887 68.5208 52.4768 68.6249 52.8718 68.625C53.2669 68.6251 53.655 68.5212 53.9971 68.3237C54.3392 68.1262 54.6234 67.8421 54.8209 67.5H64.4278C64.6254 67.8418 64.9095 68.1256 65.2515 68.3228C65.5935 68.5201 65.9814 68.6238 66.3763 68.6236C66.7711 68.6234 67.1589 68.5193 67.5007 68.3217C67.8425 68.1241 68.1264 67.8401 68.3236 67.4981C68.5209 67.1561 68.6246 66.7682 68.6244 66.3733C68.6243 65.9785 68.5202 65.5907 68.3226 65.2489C68.1251 64.907 67.8411 64.6232 67.4991 64.4259C67.1571 64.2286 66.7692 64.1249 66.3743 64.125Z" fill="#B4D2D7"/>
<path d="M64.1239 40.5H44.8021C43.4878 40.5 42.2273 41.0221 41.298 41.9514C40.7085 42.5409 40.2772 43.2696 40.0441 44.07C39.811 44.8704 39.7836 45.7167 39.9644 46.5306L43.8739 64.125H49.4989L46.1239 47.25H59.6239C60.8174 47.25 61.962 46.7759 62.8059 45.932C63.6498 45.0881 64.1239 43.9435 64.1239 42.75V40.5Z" fill="#202A58"/>
<path d="M41.625 64.125H49.5V68.625H41.625C41.0283 68.625 40.456 68.3879 40.034 67.966C39.6121 67.544 39.375 66.9717 39.375 66.375C39.375 65.7783 39.6121 65.206 40.034 64.784C40.456 64.3621 41.0283 64.125 41.625 64.125Z" fill="#34507B"/>
<path d="M58.5 29.25V36L45 37.125L40.5 39.375V42.75H42.75L46.125 41.625H60.75C61.6451 41.625 62.5035 41.2694 63.1365 40.6365C63.7694 40.0035 64.125 39.1451 64.125 38.25V29.25H58.5Z" fill="#FEC9A3"/>
<path d="M64.125 29.25H58.5V25.3125C58.5 24.5666 58.7963 23.8512 59.3238 23.3238C59.8512 22.7963 60.5666 22.5 61.3125 22.5C62.0584 22.5 62.7738 22.7963 63.3012 23.3238C63.8287 23.8512 64.125 24.5666 64.125 25.3125V29.25Z" fill="#FF4081"/>
<path d="M19.125 55.125H7.875V40.5L16.875 21.375H23.625L25.9938 26.1125C26.3063 26.7374 26.4689 27.4264 26.4689 28.125C26.4689 28.8236 26.3063 29.5126 25.9938 30.1375C25.6201 30.885 25.0456 31.5136 24.3347 31.9529C23.6238 32.3923 22.8046 32.625 21.9689 32.625H21.375L19.125 36V55.125Z" fill="#FF4081"/>
<path d="M11.25 41.625H15.75V43.875H11.25V41.625Z" fill="#BFBFBD"/>
<path d="M23.625 21.3754L24.9442 18.0003H29.004V14.0976L30.375 12.7269L29.004 9.98472V9.29918C29.0046 8.03697 28.5077 6.8254 27.621 5.92711C26.7343 5.02881 25.5293 4.51618 24.2672 4.50034C21.5938 4.46786 19.4071 6.73516 19.4071 9.40689L18.1942 18.0003L16.875 21.3754H23.625Z" fill="#FEC9A3"/>
<path d="M21.0527 13.2697L20.0133 12.2303C19.7294 11.9465 19.5563 11.5706 19.5251 11.1704C19.4939 10.7702 19.6067 10.372 19.8431 10.0476C20.0796 9.72319 20.4242 9.49395 20.8147 9.4012C21.2053 9.30844 21.6161 9.35826 21.9732 9.54169L22.3388 9.72942L26.0003 4.84819C25.4296 4.61749 24.8198 4.49926 24.2042 4.5H22.0227C21.9367 4.5 21.8512 4.50174 21.7662 4.50521C18.1917 4.64878 15.5482 7.90693 15.9916 11.4567L16.0229 11.6436C16.4398 14.131 17.0679 15.7499 18.1929 17.9999L21.0527 13.2697Z" fill="#FFB531"/>
<path d="M49.5 29.25L45 28.125V23.625L49.5 22.5V29.25Z" fill="#348FD9"/>
<path d="M33.7808 38.25C31.0882 38.247 28.5068 37.176 26.6029 35.2721C24.699 33.3682 23.628 30.7868 23.625 28.0942V22.5H25.875V28.0942C25.8751 29.992 26.5578 31.8264 27.7985 33.2624C29.0392 34.6984 30.7551 35.6402 32.6327 35.9158C34.5104 36.1914 36.4245 35.7824 38.0255 34.7634C39.6265 33.7445 40.8076 32.1837 41.353 30.366L42.7974 25.5516C42.8669 25.3198 43.0093 25.1167 43.2035 24.9723C43.3976 24.8279 43.6331 24.75 43.875 24.75H45V27H44.712L43.5082 31.0125C42.8807 33.1045 41.5954 34.9384 39.8431 36.2422C38.0908 37.5459 35.9649 38.25 33.7808 38.25Z" fill="#348FD9"/>
<path d="M24.75 23.625C23.5569 23.6237 22.4131 23.1491 21.5695 22.3055C20.7259 21.4619 20.2513 20.3181 20.25 19.125V11.25H22.5V19.125C22.5 19.7217 22.7371 20.294 23.159 20.716C23.581 21.1379 24.1533 21.375 24.75 21.375C25.3467 21.375 25.919 21.1379 26.341 20.716C26.7629 20.294 27 19.7217 27 19.125V18H29.25V19.125C29.2487 20.3181 28.7741 21.4619 27.9305 22.3055C27.0869 23.1491 25.9431 23.6237 24.75 23.625Z" fill="#348FD9"/>
<path d="M22.287 22.287L31.5 31.5L40.5 23.625H45V28.125H41.625L34.875 36C33.8755 36.6663 32.7012 37.0219 31.5 37.0219C30.2988 37.0219 29.1245 36.6663 28.125 36L17.9056 26.8031C17.5812 26.5111 17.3218 26.1541 17.1442 25.7554C16.9667 25.3566 16.8749 24.9249 16.875 24.4884C16.875 24.0796 16.9555 23.6747 17.112 23.297C17.2684 22.9192 17.4978 22.576 17.7869 22.2869C18.076 21.9978 18.4192 21.7684 18.797 21.612C19.1747 21.4555 19.5796 21.375 19.9884 21.375H20.0853C20.9111 21.375 21.703 21.7031 22.287 22.287Z" fill="#FEC9A3"/>
<path d="M22.287 22.287C21.703 21.7031 20.9111 21.375 20.0853 21.375H19.9884C19.5796 21.375 19.1747 21.4555 18.797 21.612C18.4192 21.7684 18.076 21.9978 17.7869 22.2869C17.4978 22.576 17.2684 22.9192 17.112 23.297C16.9555 23.6747 16.875 24.0796 16.875 24.4884C16.875 24.9249 16.9668 25.3564 17.1443 25.7551C17.3219 26.1537 17.5813 26.5106 17.9056 26.8026L21.375 29.925L25.875 25.875L22.287 22.287Z" fill="#FF4081"/>
</svg>
