<svg width="53" height="49" viewBox="0 0 53 49" fill="none" xmlns="http://www.w3.org/2000/svg">
<g clip-path="url(#clip0_1_622)">
<path d="M30.6614 6.34082L4.52511 6.34082C2.13261 6.34082 0.193237 8.37215 0.193237 10.8781L0.193237 38.2536C0.193237 40.7595 2.13261 42.7908 4.52511 42.7908L30.6614 42.7908C33.0539 42.7908 34.9932 40.7595 34.9932 38.2536L34.9932 10.8781C34.9932 8.37215 33.0539 6.34082 30.6614 6.34082ZM47.8257 9.91938L37.8932 17.0955L37.8932 32.0362L47.8257 39.2028C49.747 40.5886 52.3932 39.1743 52.3932 36.7538L52.3932 12.3684C52.3932 9.95734 49.7561 8.53352 47.8257 9.91938Z" fill="#32A4FF"/>
<path d="M9.02806 28.3096L9.02806 20.7621L10.7297 20.7621L10.7297 23.6676L13.3343 23.6676L13.3343 20.7621L15.0475 20.7621L15.0475 28.3096L13.3343 28.3096L13.3343 25.1609L10.7297 25.1609L10.7297 28.3096L9.02806 28.3096ZM19.8959 27.0594C20.4129 27.0594 20.8219 26.8356 21.1229 26.388C21.4239 25.9404 21.5744 25.3114 21.5744 24.5011C21.5744 23.7448 21.4239 23.1544 21.1229 22.73C20.8219 22.3055 20.4129 22.0933 19.8959 22.0933C19.3788 22.0933 18.9698 22.3055 18.6688 22.73C18.3678 23.1544 18.2174 23.7448 18.2174 24.5011C18.2174 25.3114 18.3678 25.9404 18.6688 26.388C18.9698 26.8356 19.3788 27.0594 19.8959 27.0594ZM22.3847 30.4164C21.9834 30.4164 21.613 30.3624 21.2734 30.2543C20.9338 30.154 20.6251 30.0112 20.3473 29.826C20.0772 29.6485 19.838 29.4324 19.6296 29.1778C19.4212 28.9308 19.2515 28.6607 19.1203 28.3674C18.719 28.2826 18.3524 28.1359 18.0206 27.9276C17.6964 27.7115 17.4186 27.4375 17.1871 27.1057C16.9556 26.7738 16.7781 26.3918 16.6546 25.9597C16.5311 25.5198 16.4694 25.0336 16.4694 24.5011C16.4694 23.8837 16.5504 23.3358 16.7125 22.8573C16.8823 22.3711 17.1176 21.966 17.4186 21.6418C17.7196 21.31 18.0784 21.0592 18.4952 20.8894C18.9196 20.7119 19.3865 20.6232 19.8959 20.6232C20.4052 20.6232 20.8682 20.7119 21.285 20.8894C21.7094 21.0592 22.0721 21.31 22.3731 21.6418C22.6741 21.9737 22.9056 22.3827 23.0677 22.8689C23.2374 23.3474 23.3223 23.8914 23.3223 24.5011C23.3223 25.5198 23.1062 26.3571 22.6741 27.0131C22.2419 27.669 21.6593 28.1012 20.9261 28.3096C21.1036 28.5797 21.3429 28.7687 21.6438 28.8768C21.9448 28.9925 22.2573 29.0504 22.5815 29.0504C22.7435 29.0504 22.894 29.0389 23.0329 29.0157C23.1796 28.9925 23.3069 28.9617 23.4149 28.9231L23.7159 30.1617C23.577 30.2312 23.3918 30.2891 23.1603 30.3354C22.9365 30.3894 22.6779 30.4164 22.3847 30.4164Z" fill="white"/>
</g>
<defs>
<clipPath id="clip0_1_622">
<rect width="52.2" height="48.6" fill="white" transform="translate(0.193237 0.266602)"/>
</clipPath>
</defs>
</svg>
