<svg width="32" height="33" viewBox="0 0 32 33" fill="none" xmlns="http://www.w3.org/2000/svg">
<g clip-path="url(#clip0_1_587)">
<path d="M9.78823 22.8542C8.19138 21.2721 7.20983 19.0746 7.20983 16.6427C7.20983 14.2108 8.19138 12.0133 9.78823 10.4311L11.8685 12.5114C10.7991 13.5662 10.1398 15.0312 10.1398 16.6427C10.1398 18.2542 10.7991 19.7192 11.8539 20.7886L9.78823 22.8542ZM22.2114 22.8542C23.8082 21.2721 24.7898 19.0746 24.7898 16.6427C24.7898 14.2108 23.8082 12.0133 22.2114 10.4311L20.1311 12.5114C21.2005 13.5662 21.8598 15.0312 21.8598 16.6427C21.8598 18.2542 21.2005 19.7192 20.1457 20.7886L22.2114 22.8542ZM15.9998 13.7127C14.3883 13.7127 13.0698 15.0312 13.0698 16.6427C13.0698 18.2542 14.3883 19.5727 15.9998 19.5727C17.6113 19.5727 18.9298 18.2542 18.9298 16.6427C18.9298 15.0312 17.6113 13.7127 15.9998 13.7127ZM27.7198 16.6427C27.7198 19.8803 26.4013 22.8103 24.277 24.9199L26.3573 27.0002C29.009 24.3485 30.6498 20.6861 30.6498 16.6427C30.6498 12.5993 29.009 8.9368 26.3573 6.28516L24.277 8.36545C25.3699 9.44882 26.2369 10.7383 26.8278 12.1591C27.4188 13.5799 27.7219 15.1039 27.7198 16.6427ZM7.72258 8.36545L5.64229 6.28516C2.99065 8.9368 1.34985 12.5993 1.34985 16.6427C1.34985 20.6861 2.99065 24.3485 5.64229 27.0002L7.72258 24.9199C5.59834 22.8103 4.27984 19.8803 4.27984 16.6427C4.27984 13.405 5.59834 10.475 7.72258 8.36545Z" fill="#05A7E2"/>
</g>
<defs>
<clipPath id="clip0_1_587">
<rect width="32" height="32" fill="white" transform="translate(0 0.642578)"/>
</clipPath>
</defs>
</svg>
