<svg width="32" height="32" viewBox="0 0 32 32" fill="none" xmlns="http://www.w3.org/2000/svg">
<g clip-path="url(#clip0_1_590)">
<path d="M7.93115 2.25684C4.44034 2.25684 1.61499 5.10654 1.61499 8.62744V21.3687C1.61499 24.8895 4.44034 27.7393 7.93115 27.7393C11.422 27.7393 14.2473 24.8895 14.2473 21.3687V8.62744C14.2473 5.10654 11.422 2.25684 7.93115 2.25684ZM10.6381 14.998H5.22422V8.62744C5.22422 7.12011 6.4367 5.89718 7.93115 5.89718C9.42559 5.89718 10.6381 7.12011 10.6381 8.62744V14.998Z" fill="#00B3DB"/>
<path d="M18.8199 16.5756C18.9489 16.4022 19.2113 16.3844 19.367 16.54L28.7422 25.9163C28.8979 26.072 28.8845 26.3344 28.7066 26.4634C25.927 28.4783 22.031 28.2603 19.5271 25.7562C17.0231 23.252 16.8052 19.3556 18.8199 16.5756Z" fill="#00B3DB"/>
<path d="M20.4077 14.9877C23.1873 12.9728 27.0833 13.1908 29.5872 15.6949C32.0956 18.1991 32.3091 22.0911 30.2944 24.8755C30.1654 25.0489 29.903 25.0667 29.7473 24.9111L20.3721 15.5348C20.2164 15.3791 20.2298 15.1167 20.4077 14.9877Z" fill="#00B3DB"/>
</g>
<defs>
<clipPath id="clip0_1_590">
<rect width="32" height="32" fill="white"/>
</clipPath>
</defs>
</svg>
