<svg width="32" height="32" viewBox="0 0 32 32" fill="none" xmlns="http://www.w3.org/2000/svg">
<path d="M15.9998 2.99805C15.4311 2.99805 14.8679 3.11007 14.3424 3.32773C13.817 3.54538 13.3395 3.8644 12.9374 4.26657C12.5352 4.66875 12.2162 5.14619 11.9985 5.67166C11.7808 6.19712 11.6688 6.76031 11.6688 7.32907C11.6688 7.89783 11.7808 8.46102 11.9985 8.98648C12.2162 9.51194 12.5352 9.98939 12.9374 10.3916C13.3395 10.7937 13.817 11.1128 14.3424 11.3304C14.8679 11.5481 15.4311 11.6601 15.9998 11.6601C17.1485 11.6601 18.2501 11.2038 19.0623 10.3916C19.8746 9.57934 20.3309 8.47773 20.3309 7.32907C20.3309 6.18041 19.8746 5.0788 19.0623 4.26657C18.2501 3.45435 17.1485 2.99805 15.9998 2.99805Z" fill="#05A7E2"/>
<path d="M25.7544 5.16211C24.8921 5.16211 24.0651 5.50468 23.4553 6.11446C22.8455 6.72423 22.5029 7.55127 22.5029 8.41363C22.5029 9.27598 22.8455 10.103 23.4553 10.7128C24.0651 11.3226 24.8921 11.6651 25.7544 11.6651C26.6168 11.6651 27.4438 11.3226 28.0536 10.7128C28.6634 10.103 29.006 9.27598 29.006 8.41363C29.006 7.55127 28.6634 6.72423 28.0536 6.11446C27.4438 5.50468 26.6168 5.16211 25.7544 5.16211Z" fill="#05A7E2"/>
<path d="M6.24541 5.16211C5.38306 5.16211 4.55602 5.50468 3.94624 6.11446C3.33647 6.72423 2.9939 7.55127 2.9939 8.41363C2.9939 9.27598 3.33647 10.103 3.94624 10.7128C4.55602 11.3226 5.38306 11.6651 6.24541 11.6651C7.10777 11.6651 7.93481 11.3226 8.54458 10.7128C9.15436 10.103 9.49693 9.27598 9.49693 8.41363C9.49693 7.55127 9.15436 6.72423 8.54458 6.11446C7.93481 5.50468 7.10777 5.16211 6.24541 5.16211Z" fill="#05A7E2"/>
<path d="M9.49683 15.9845C9.50083 15.4123 9.73098 14.8648 10.1371 14.4616C10.5431 14.0583 11.0922 13.832 11.6645 13.832H20.3352C20.9101 13.832 21.4615 14.0604 21.868 14.4669C22.2745 14.8734 22.5029 15.4248 22.5029 15.9997V22.5027C22.5028 23.185 22.396 23.863 22.1864 24.5122C21.7064 25.9834 20.7177 27.2353 19.3977 28.0431C18.0778 28.8509 16.5131 29.1617 14.9846 28.9197C13.4561 28.6776 12.064 27.8986 11.0582 26.7225C10.0524 25.5464 9.49878 24.0503 9.49683 22.5027V15.9997V15.9845Z" fill="#05A7E2"/>
<path d="M7.32921 15.9997C7.32921 15.2085 7.53947 14.4693 7.91014 13.832H2.99385C2.41895 13.832 1.86759 14.0604 1.46107 14.4669C1.05455 14.8734 0.826172 15.4248 0.826172 15.9997V21.4189C0.825877 22.3061 1.04343 23.1799 1.45973 23.9634C1.87602 24.7469 2.47833 25.4162 3.21374 25.9126C3.94916 26.4089 4.7952 26.7171 5.67756 26.8101C6.55992 26.903 7.4516 26.7779 8.27431 26.4458C7.65041 25.2244 7.32643 23.872 7.32921 22.5006V15.9997Z" fill="#05A7E2"/>
<path d="M24.6706 15.9997V22.5027C24.6706 23.9226 24.3302 25.2622 23.7255 26.4458C24.5482 26.7779 25.4399 26.903 26.3222 26.8101C27.2046 26.7171 28.0506 26.4089 28.786 25.9126C29.5215 25.4162 30.1238 24.7469 30.5401 23.9634C30.9564 23.1799 31.1739 22.3061 31.1736 21.4189V15.9997C31.1736 15.4248 30.9452 14.8734 30.5387 14.4669C30.1322 14.0604 29.5808 13.832 29.0059 13.832H24.0896C24.4581 14.4693 24.6706 15.2085 24.6706 15.9997Z" fill="#05A7E2"/>
</svg>
