<svg width="55" height="55" viewBox="0 0 55 55" fill="none" xmlns="http://www.w3.org/2000/svg">
<path d="M43.8998 6.35254C45.3066 6.35254 46.6557 6.91136 47.6504 7.90606C48.6451 8.90076 49.2039 10.2499 49.2039 11.6566V43.4855C49.2039 44.8922 48.6451 46.2413 47.6504 47.236C46.6557 48.2307 45.3066 48.7896 43.8998 48.7896H12.078C11.3814 48.7896 10.6917 48.6524 10.0482 48.3858C9.40468 48.1193 8.81997 47.7286 8.32744 47.236C7.83492 46.7435 7.44422 46.1588 7.17767 45.5153C6.91112 44.8718 6.77393 44.1821 6.77393 43.4855V11.6566C6.77393 10.2499 7.33274 8.90076 8.32744 7.90606C9.32214 6.91136 10.6712 6.35254 12.078 6.35254H43.8998ZM22.8322 18.0191L19.1618 26.3877H15.614C15.1451 26.3877 14.6954 26.5739 14.3638 26.9055C14.0322 27.2371 13.846 27.6868 13.846 28.1557C13.846 28.6246 14.0322 29.0743 14.3638 29.4058C14.6954 29.7374 15.1451 29.9237 15.614 29.9237H20.3169C20.6602 29.9239 20.9962 29.8242 21.2838 29.6366C21.5714 29.4491 21.7982 29.1819 21.9364 28.8676L24.3763 23.2995L29.8854 37.0547C30.012 37.371 30.2273 37.6441 30.5055 37.8409C30.7836 38.0378 31.1127 38.15 31.4532 38.1642C31.7936 38.1784 32.1309 38.0939 32.4245 37.9209C32.7181 37.7479 32.9554 37.4938 33.1079 37.189L36.7429 29.926H40.3662C40.8351 29.926 41.2848 29.7398 41.6163 29.4082C41.9479 29.0766 42.1342 28.6269 42.1342 28.158C42.1342 27.6891 41.9479 27.2394 41.6163 26.9079C41.2848 26.5763 40.8351 26.39 40.3662 26.39H35.6515C35.3236 26.3902 35.0023 26.4816 34.7233 26.654C34.4444 26.8263 34.2189 27.0728 34.072 27.366L31.7053 32.0901L26.0924 18.0709C25.9628 17.7477 25.7405 17.4699 25.4536 17.2724C25.1667 17.075 24.8278 16.9667 24.4795 16.9612C24.1313 16.9556 23.7892 17.0531 23.4961 17.2413C23.203 17.4295 22.972 17.7001 22.8322 18.0191Z" fill="#16C35F"/>
</svg>
