<svg width="32" height="32" viewBox="0 0 32 32" fill="none" xmlns="http://www.w3.org/2000/svg">
<path d="M6 6C6 4.93913 6.42143 3.92172 7.17157 3.17157C7.92172 2.42143 8.93913 2 10 2C11.0609 2 12.0783 2.42143 12.8284 3.17157C13.5786 3.92172 14 4.93913 14 6C14 7.06087 13.5786 8.07828 12.8284 8.82843C12.0783 9.57857 11.0609 10 10 10C8.93913 10 7.92172 9.57857 7.17157 8.82843C6.42143 8.07828 6 7.06087 6 6Z" fill="#05A7E2"/>
<path d="M19.558 9.16802L19.642 9.23202C20.4906 9.86103 21.5535 10.1289 22.5988 9.97704C23.6442 9.82523 24.587 9.26611 25.2216 8.42169C25.8562 7.57727 26.131 6.51613 25.9861 5.46982C25.8412 4.42351 25.2883 3.477 24.4481 2.83684C23.6079 2.19668 22.5486 1.91485 21.5014 2.05285C20.4541 2.19086 19.504 2.73748 18.8583 3.57345C18.2126 4.40941 17.9238 5.46684 18.0549 6.51497C18.1859 7.5631 18.7263 8.51683 19.558 9.16802Z" fill="#05A7E2"/>
<path d="M12.5359 12.0002C12.7871 11.5246 13.1317 11.1044 13.549 10.765C13.9663 10.4256 14.4478 10.1738 14.9647 10.0248C15.4816 9.87572 16.0232 9.83246 16.5572 9.89758C17.0912 9.96269 17.6065 10.1348 18.0724 10.4037C18.5383 10.6726 18.9452 11.0327 19.2687 11.4625C19.5922 11.8922 19.8258 12.3829 19.9553 12.905C20.0848 13.4271 20.1077 13.9699 20.0226 14.5011C19.9375 15.0322 19.7461 15.5407 19.4599 15.9962C18.9094 16.8725 18.0406 17.5013 17.0362 17.7505C16.0318 17.9997 14.9699 17.8499 14.0736 17.3326C13.1773 16.8153 12.5163 15.9708 12.2296 14.9765C11.9429 13.9821 12.0527 12.9153 12.5359 12.0002Z" fill="#05A7E2"/>
<path d="M5 12H10.34C10.12 12.626 10 13.3 10 14C10 15.536 10.578 16.94 11.528 18H11C9.96887 17.9999 8.9629 18.3184 8.11977 18.912C7.27664 19.5056 6.63756 20.3452 6.29 21.316C5.61867 21.0463 4.9901 20.6805 4.424 20.23C2.92 19.02 2 17.232 2 15C2 14.2044 2.31607 13.4413 2.87868 12.8787C3.44129 12.3161 4.20435 12 5 12Z" fill="#05A7E2"/>
<path d="M21 18C23.17 18 25.018 19.382 25.708 21.316C26.388 21.038 27.018 20.676 27.576 20.23C29.08 19.02 30 17.232 30 15C30 14.2044 29.684 13.4413 29.1214 12.8787C28.5588 12.3161 27.7957 12 27 12H21.66C21.88 12.626 22 13.3 22 14C22.0019 15.4762 21.4576 16.901 20.472 18H21Z" fill="#05A7E2"/>
<path d="M23.774 21.856C23.92 22.208 24 22.596 24 23C24 25.232 23.082 27.02 21.576 28.23C20.094 29.42 18.106 30 16 30C13.894 30 11.906 29.42 10.424 28.23C8.92001 27.02 8.00001 25.232 8.00001 23C7.99896 22.6057 8.07583 22.2152 8.22622 21.8507C8.37661 21.4863 8.59755 21.1551 8.87634 20.8763C9.15512 20.5976 9.48626 20.3766 9.85071 20.2262C10.2152 20.0758 10.6057 19.999 11 20H21C21.5942 19.9999 22.1751 20.1762 22.6689 20.5066C23.1628 20.8371 23.5474 21.3067 23.774 21.856Z" fill="#05A7E2"/>
</svg>
