<svg width="32" height="32" viewBox="0 0 32 32" fill="none" xmlns="http://www.w3.org/2000/svg">
<path d="M3.68005 6.2396C3.68005 5.53943 3.95819 4.86794 4.45329 4.37284C4.94838 3.87775 5.61988 3.59961 6.32004 3.59961H25.68C26.3801 3.59961 27.0516 3.87775 27.5467 4.37284C28.0418 4.86794 28.32 5.53943 28.32 6.2396V18.5596C28.32 19.2597 28.0418 19.9312 27.5467 20.4263C27.0516 20.9214 26.3801 21.1995 25.68 21.1995H16V12.3996C16 11.466 15.6292 10.5707 14.969 9.91057C14.3089 9.25044 13.4136 8.87959 12.48 8.87959H3.68005V6.2396Z" fill="#05A7E2"/>
<path d="M16 24.719H29.2C29.4333 24.719 29.6572 24.6263 29.8222 24.4612C29.9872 24.2962 30.0799 24.0724 30.0799 23.839C30.0799 23.6056 29.9872 23.3818 29.8222 23.2167C29.6572 23.0517 29.4333 22.959 29.2 22.959H16V24.719Z" fill="#05A7E2"/>
<path d="M1.92004 13.2787C1.92004 12.5785 2.19819 11.907 2.69328 11.4119C3.18837 10.9168 3.85987 10.6387 4.56003 10.6387H11.6C12.3002 10.6387 12.9717 10.9168 13.4668 11.4119C13.9619 11.907 14.24 12.5785 14.24 13.2787V27.3586C14.24 28.0588 13.9619 28.7303 13.4668 29.2254C12.9717 29.7205 12.3002 29.9986 11.6 29.9986H4.56003C3.85987 29.9986 3.18837 29.7205 2.69328 29.2254C2.19819 28.7303 1.92004 28.0588 1.92004 27.3586V13.2787ZM7.20002 24.7186C6.96663 24.7186 6.7428 24.8113 6.57777 24.9764C6.41274 25.1414 6.32003 25.3652 6.32003 25.5986C6.32003 25.832 6.41274 26.0558 6.57777 26.2209C6.7428 26.3859 6.96663 26.4786 7.20002 26.4786H8.96002C9.19341 26.4786 9.41724 26.3859 9.58227 26.2209C9.7473 26.0558 9.84001 25.832 9.84001 25.5986C9.84001 25.3652 9.7473 25.1414 9.58227 24.9764C9.41724 24.8113 9.19341 24.7186 8.96002 24.7186H7.20002Z" fill="#05A7E2"/>
</svg>
