<svg width="32" height="32" viewBox="0 0 32 32" fill="none" xmlns="http://www.w3.org/2000/svg">
<path d="M7.21322 15.7295C6.75669 15.7272 6.3043 15.8407 5.88197 16.0637C5.45965 16.2866 5.07571 16.6145 4.75217 17.0286C4.42863 17.4427 4.17185 17.9349 3.99657 18.4769C3.82128 19.0189 3.73094 19.6 3.73071 20.187C3.73071 23.9557 5.17468 26.7974 7.43164 28.6494C9.65393 30.4703 12.6493 31.3306 15.8649 31.3306C19.0805 31.3306 22.0759 30.4703 24.2981 28.6494C26.5551 26.7996 27.9991 23.9535 27.9991 20.187C27.9991 19.0048 27.6338 17.871 26.9836 17.0351C26.3335 16.1992 25.4516 15.7295 24.5322 15.7295H7.21322Z" fill="#05A7E2"/>
<g clip-path="url(#clip0_1_580)">
<path d="M9.99625 23.5293C10.5803 23.5293 11.0724 23.3346 11.4725 22.9452C11.8727 22.5559 12.0728 22.0584 12.0728 21.4527C12.0728 21.0201 11.9376 20.6254 11.6672 20.2685C11.3968 19.9116 11.067 19.6682 10.6776 19.5384L10.6776 16.2614C10.6776 15.0285 11.1156 13.974 11.9917 13.0979C12.8677 12.2219 13.933 11.7839 15.1876 11.7839C16.4422 11.7839 17.5075 12.2219 18.3835 13.0979C19.2595 13.974 19.6976 15.0285 19.6976 16.2614L19.6976 18.0784C18.7025 18.2514 17.8752 18.7219 17.2154 19.4898C16.5557 20.2577 16.2258 21.1499 16.2258 22.1665L16.2258 25.6058C16.2258 25.9952 16.361 26.325 16.6314 26.5954C16.9018 26.8658 17.2317 27.001 17.621 27.001L18.3024 27.001C18.7566 27.001 18.9837 26.7739 18.9837 26.3196C18.9837 25.8437 18.7566 25.6058 18.3024 25.6058L17.621 25.6058L17.621 22.1665C17.621 21.4095 17.8914 20.7552 18.4322 20.2036C18.9729 19.652 19.6218 19.3762 20.3789 19.3762C21.136 19.3762 21.7849 19.652 22.3257 20.2036C22.8664 20.7552 23.1368 21.4095 23.1368 22.1665L23.1368 25.6058L22.4554 25.6058C22.0012 25.6058 21.7741 25.8437 21.7741 26.3196C21.7741 26.7739 22.0012 27.001 22.4554 27.001L23.1368 27.001C23.5262 27.001 23.856 26.8658 24.1264 26.5954C24.3968 26.325 24.532 25.9952 24.532 25.6058L24.532 22.1665C24.532 21.1499 24.2021 20.2576 23.5424 19.4898C22.8827 18.7219 22.0553 18.2514 21.0603 18.0784L21.0603 16.2614C21.0603 14.6391 20.4871 13.2548 19.3406 12.1083C18.1942 10.9619 16.8099 10.3887 15.1876 10.3887C13.5653 10.3887 12.1809 10.9619 11.0345 12.1083C9.8881 13.2548 9.31489 14.6391 9.31489 16.2614L9.31489 19.5384C8.90391 19.6682 8.56863 19.9116 8.30907 20.2685C8.0495 20.6254 7.91972 21.0201 7.91972 21.4527C7.91972 22.0584 8.1198 22.5559 8.51996 22.9452C8.92013 23.3346 9.41222 23.5293 9.99625 23.5293ZM9.99625 20.7714C10.4505 20.7714 10.6776 20.9985 10.6776 21.4527C10.6776 21.9286 10.4505 22.1665 9.99625 22.1665C9.54201 22.1665 9.31489 21.9286 9.31489 21.4527C9.31489 20.9985 9.54201 20.7714 9.99625 20.7714Z" fill="white"/>
</g>
<path d="M15.8655 0.131836C14.0265 0.131836 12.2629 0.862361 10.9625 2.1627C9.66217 3.46305 8.93164 5.22669 8.93164 7.06565C8.93164 8.90461 9.66217 10.6683 10.9625 11.9686C12.2629 13.2689 14.0265 13.9995 15.8655 13.9995C17.7044 13.9995 19.4681 13.2689 20.7684 11.9686C22.0687 10.6683 22.7993 8.90461 22.7993 7.06565C22.7993 5.22669 22.0687 3.46305 20.7684 2.1627C19.4681 0.862361 17.7044 0.131836 15.8655 0.131836Z" fill="#05A7E2"/>
<defs>
<clipPath id="clip0_1_580">
<rect width="16.6123" height="16.6123" fill="white" transform="translate(24.532 27.001) rotate(180)"/>
</clipPath>
</defs>
</svg>
