<svg width="1158" height="308" viewBox="0 0 1158 308" fill="none" xmlns="http://www.w3.org/2000/svg">
<g filter="url(#filter0_d_1_24)">
<rect x="23" y="21" width="220" height="258" rx="16" fill="white"/>
<g clip-path="url(#clip0_1_24)">
<path d="M160.38 151.25V155.891H156.203V152.853L144.686 145.934L146.838 142.348L155.359 147.411L153.714 139.395L157.848 138.594L160.38 151.25Z" fill="#202A58"/>
<path d="M121.314 145.933L109.797 152.852V155.889H105.62V151.206L108.447 138.508L112.581 139.436L110.809 147.325L119.162 142.347L121.314 145.933Z" fill="#202A58"/>
<path d="M151.984 130.577V134.796C151.984 142.938 145.361 149.562 137.219 149.562H128.781C120.639 149.562 114.016 142.938 114.016 134.796V130.577C114.44 130.531 134.261 128.373 133 128.51L151.984 130.577Z" fill="#11B5E4"/>
<path d="M151.984 111.594L150.676 113.787L151.984 115.812V120.031L150.676 122.352L151.984 124.25V130.578H114.016V124.25L115.197 122.267L114.016 120.031V115.812L115.197 113.745L114.016 111.594V102.875L115.703 100.766L114.184 98.6562C115.197 91.5267 121.356 86 128.781 86H137.219C144.644 86 150.803 91.5267 151.816 98.6562L150.213 100.766L151.984 102.875V111.594Z" fill="#FF4081"/>
<path d="M151.984 115.812V111.594H114.016V115.812H122.453V120.031H114.016V124.25H151.984V120.031H143.547V115.812H151.984ZM130.891 120.031H126.672V115.812H130.891V120.031ZM139.328 120.031H135.109V115.812H139.328V120.031Z" fill="#D1EDF1"/>
<path d="M109.656 141.125C105.003 141.125 101.219 137.341 101.219 132.688C101.219 128.034 105.003 124.25 109.656 124.25C114.31 124.25 118.094 128.034 118.094 132.688C118.094 137.341 114.31 141.125 109.656 141.125Z" fill="#B4D2D7"/>
<path d="M156.344 141.125C151.69 141.125 147.906 137.341 147.906 132.688C147.906 128.034 151.69 124.25 156.344 124.25C160.997 124.25 164.781 128.034 164.781 132.688C164.781 137.341 160.997 141.125 156.344 141.125Z" fill="#B4D2D7"/>
<path d="M130.891 136.906H135.109V155.891H130.891V136.906Z" fill="#202A58"/>
<path d="M139.328 98.6562V102.875H135.109V107.094H130.891V102.875H126.672V98.6562H130.891V94.4375H135.109V98.6562H139.328Z" fill="white"/>
<path d="M151.984 115.812V111.594H133V124.25H151.984V120.031H143.547V115.812H151.984ZM139.328 120.031H135.109V115.812H139.328V120.031Z" fill="#D1EDF1"/>
<path d="M122.453 98.6562V102.875H114.016V100.766C114.016 100.048 114.058 99.3314 114.184 98.6562H122.453Z" fill="#D1EDF1"/>
<path d="M151.984 100.766V102.875H143.547V98.6562H151.816C151.942 99.3314 151.984 100.048 151.984 100.766Z" fill="#D1EDF1"/>
<path d="M97 153.781H169V158H97V153.781Z" fill="#B4D2D7"/>
<path d="M133 153.781H169V158H133V153.781Z" fill="#B4D2D7"/>
</g>
<path d="M96.6638 187.394L96.1058 189.194H99.6518L99.0938 187.394C98.8778 186.734 98.6738 186.08 98.4818 185.432C98.2898 184.772 98.0978 184.1 97.9058 183.416H97.8338C97.6538 184.1 97.4678 184.772 97.2758 185.432C97.0838 186.08 96.8798 186.734 96.6638 187.394ZM93.0638 194L97.0598 182.192H98.7518L102.748 194H101.146L100.03 190.4H95.7278L94.5938 194H93.0638ZM104.421 194V182.192H105.915V194H104.421ZM112.753 194V182.192H119.557V183.452H114.247V187.16H118.729V188.438H114.247V192.722H119.737V194H112.753ZM122.101 194V185.252H123.325L123.451 186.512H123.505C123.925 186.092 124.363 185.744 124.819 185.468C125.287 185.18 125.827 185.036 126.439 185.036C127.363 185.036 128.035 185.324 128.455 185.9C128.887 186.476 129.103 187.328 129.103 188.456V194H127.627V188.654C127.627 187.826 127.495 187.232 127.231 186.872C126.967 186.5 126.547 186.314 125.971 186.314C125.515 186.314 125.113 186.428 124.765 186.656C124.417 186.884 124.021 187.22 123.577 187.664V194H122.101ZM133.961 194.216C133.229 194.216 132.617 194 132.125 193.568C131.645 193.136 131.405 192.524 131.405 191.732C131.405 190.772 131.831 190.04 132.683 189.536C133.535 189.02 134.897 188.66 136.769 188.456C136.769 188.18 136.739 187.91 136.679 187.646C136.631 187.382 136.541 187.148 136.409 186.944C136.277 186.74 136.091 186.578 135.851 186.458C135.623 186.326 135.329 186.26 134.969 186.26C134.465 186.26 133.991 186.356 133.547 186.548C133.103 186.74 132.707 186.956 132.359 187.196L131.783 186.17C132.191 185.906 132.689 185.654 133.277 185.414C133.865 185.162 134.513 185.036 135.221 185.036C136.289 185.036 137.063 185.366 137.543 186.026C138.023 186.674 138.263 187.544 138.263 188.636V194H137.039L136.913 192.956H136.859C136.439 193.304 135.989 193.604 135.509 193.856C135.029 194.096 134.513 194.216 133.961 194.216ZM134.393 193.028C134.813 193.028 135.209 192.932 135.581 192.74C135.953 192.536 136.349 192.242 136.769 191.858V189.428C136.037 189.524 135.419 189.638 134.915 189.77C134.423 189.902 134.021 190.058 133.709 190.238C133.409 190.418 133.187 190.628 133.043 190.868C132.911 191.096 132.845 191.348 132.845 191.624C132.845 192.128 132.995 192.488 133.295 192.704C133.595 192.92 133.961 193.028 134.393 193.028ZM144.885 194.216C144.477 194.216 144.051 194.12 143.607 193.928C143.175 193.724 142.767 193.448 142.383 193.1H142.329L142.203 194H141.015V181.184H142.491V184.676L142.455 186.26C142.851 185.912 143.283 185.624 143.751 185.396C144.219 185.156 144.699 185.036 145.191 185.036C145.755 185.036 146.253 185.144 146.685 185.36C147.117 185.564 147.477 185.864 147.765 186.26C148.065 186.644 148.287 187.112 148.431 187.664C148.587 188.204 148.665 188.81 148.665 189.482C148.665 190.226 148.563 190.892 148.359 191.48C148.155 192.068 147.879 192.566 147.531 192.974C147.183 193.382 146.781 193.694 146.325 193.91C145.869 194.114 145.389 194.216 144.885 194.216ZM144.633 192.974C144.993 192.974 145.323 192.896 145.623 192.74C145.935 192.572 146.199 192.344 146.415 192.056C146.643 191.756 146.817 191.39 146.937 190.958C147.069 190.526 147.135 190.04 147.135 189.5C147.135 189.02 147.093 188.582 147.009 188.186C146.925 187.79 146.787 187.454 146.595 187.178C146.415 186.89 146.175 186.668 145.875 186.512C145.587 186.356 145.239 186.278 144.831 186.278C144.123 186.278 143.343 186.674 142.491 187.466V192.056C142.875 192.392 143.253 192.632 143.625 192.776C144.009 192.908 144.345 192.974 144.633 192.974ZM152.53 194.216C151.966 194.216 151.564 194.048 151.324 193.712C151.084 193.376 150.964 192.884 150.964 192.236V181.184H152.44V192.344C152.44 192.584 152.482 192.752 152.566 192.848C152.65 192.944 152.746 192.992 152.854 192.992C152.902 192.992 152.944 192.992 152.98 192.992C153.028 192.992 153.094 192.98 153.178 192.956L153.376 194.072C153.28 194.12 153.166 194.156 153.034 194.18C152.902 194.204 152.734 194.216 152.53 194.216ZM159.098 194.216C158.51 194.216 157.958 194.114 157.442 193.91C156.938 193.694 156.494 193.394 156.11 193.01C155.738 192.614 155.444 192.134 155.228 191.57C155.012 191.006 154.904 190.364 154.904 189.644C154.904 188.924 155.012 188.282 155.228 187.718C155.456 187.142 155.75 186.656 156.11 186.26C156.482 185.864 156.902 185.564 157.37 185.36C157.838 185.144 158.324 185.036 158.828 185.036C159.38 185.036 159.872 185.132 160.304 185.324C160.748 185.516 161.114 185.792 161.402 186.152C161.702 186.512 161.93 186.944 162.086 187.448C162.242 187.952 162.32 188.516 162.32 189.14C162.32 189.296 162.314 189.452 162.302 189.608C162.302 189.752 162.29 189.878 162.266 189.986H156.362C156.422 190.922 156.71 191.666 157.226 192.218C157.754 192.758 158.438 193.028 159.278 193.028C159.698 193.028 160.082 192.968 160.43 192.848C160.79 192.716 161.132 192.548 161.456 192.344L161.978 193.316C161.594 193.556 161.168 193.766 160.7 193.946C160.232 194.126 159.698 194.216 159.098 194.216ZM156.344 188.924H161.024C161.024 188.036 160.832 187.364 160.448 186.908C160.076 186.44 159.548 186.206 158.864 186.206C158.552 186.206 158.252 186.266 157.964 186.386C157.688 186.506 157.436 186.686 157.208 186.926C156.98 187.154 156.788 187.436 156.632 187.772C156.488 188.108 156.392 188.492 156.344 188.924ZM167.47 194.216C166.366 194.216 165.484 193.82 164.824 193.028C164.176 192.236 163.852 191.108 163.852 189.644C163.852 188.936 163.954 188.3 164.158 187.736C164.374 187.16 164.656 186.674 165.004 186.278C165.352 185.882 165.754 185.576 166.21 185.36C166.666 185.144 167.146 185.036 167.65 185.036C168.154 185.036 168.592 185.126 168.964 185.306C169.336 185.486 169.714 185.732 170.098 186.044L170.026 184.55V181.184H171.52V194H170.296L170.17 192.974H170.116C169.768 193.31 169.366 193.604 168.91 193.856C168.466 194.096 167.986 194.216 167.47 194.216ZM167.794 192.974C168.202 192.974 168.586 192.878 168.946 192.686C169.306 192.482 169.666 192.176 170.026 191.768V187.196C169.654 186.86 169.294 186.626 168.946 186.494C168.61 186.35 168.262 186.278 167.902 186.278C167.554 186.278 167.224 186.362 166.912 186.53C166.612 186.686 166.348 186.914 166.12 187.214C165.892 187.502 165.712 187.85 165.58 188.258C165.448 188.666 165.382 189.122 165.382 189.626C165.382 190.682 165.592 191.504 166.012 192.092C166.432 192.68 167.026 192.974 167.794 192.974ZM68.0956 217V205.192H69.5896V217H68.0956ZM72.6801 217V208.252H73.9041L74.0301 209.512H74.0841C74.5041 209.092 74.9421 208.744 75.3981 208.468C75.8661 208.18 76.4061 208.036 77.0181 208.036C77.9421 208.036 78.6141 208.324 79.0341 208.9C79.4661 209.476 79.6821 210.328 79.6821 211.456V217H78.2061V211.654C78.2061 210.826 78.0741 210.232 77.8101 209.872C77.5461 209.5 77.1261 209.314 76.5501 209.314C76.0941 209.314 75.6921 209.428 75.3441 209.656C74.9961 209.884 74.6001 210.22 74.1561 210.664V217H72.6801ZM85.2779 217.216C84.8099 217.216 84.4139 217.144 84.0899 217C83.7779 216.856 83.5199 216.658 83.3159 216.406C83.1239 216.154 82.9859 215.848 82.9019 215.488C82.8179 215.128 82.7759 214.732 82.7759 214.3V209.458H81.4799V208.342L82.8479 208.252L83.0279 205.804H84.2699V208.252H86.6279V209.458H84.2699V214.318C84.2699 214.858 84.3659 215.278 84.5579 215.578C84.7619 215.866 85.1159 216.01 85.6199 216.01C85.7759 216.01 85.9439 215.986 86.1239 215.938C86.3039 215.89 86.4659 215.836 86.6099 215.776L86.8979 216.892C86.6579 216.976 86.3939 217.048 86.1059 217.108C85.8299 217.18 85.5539 217.216 85.2779 217.216ZM91.9058 217.216C91.3178 217.216 90.7658 217.114 90.2498 216.91C89.7458 216.694 89.3018 216.394 88.9178 216.01C88.5458 215.614 88.2518 215.134 88.0358 214.57C87.8198 214.006 87.7118 213.364 87.7118 212.644C87.7118 211.924 87.8198 211.282 88.0358 210.718C88.2638 210.142 88.5578 209.656 88.9178 209.26C89.2898 208.864 89.7098 208.564 90.1778 208.36C90.6458 208.144 91.1318 208.036 91.6358 208.036C92.1878 208.036 92.6798 208.132 93.1118 208.324C93.5558 208.516 93.9218 208.792 94.2098 209.152C94.5098 209.512 94.7378 209.944 94.8938 210.448C95.0498 210.952 95.1278 211.516 95.1278 212.14C95.1278 212.296 95.1218 212.452 95.1098 212.608C95.1098 212.752 95.0978 212.878 95.0738 212.986H89.1698C89.2298 213.922 89.5178 214.666 90.0338 215.218C90.5618 215.758 91.2458 216.028 92.0858 216.028C92.5058 216.028 92.8898 215.968 93.2378 215.848C93.5978 215.716 93.9398 215.548 94.2638 215.344L94.7858 216.316C94.4018 216.556 93.9758 216.766 93.5078 216.946C93.0398 217.126 92.5058 217.216 91.9058 217.216ZM89.1518 211.924H93.8318C93.8318 211.036 93.6398 210.364 93.2558 209.908C92.8838 209.44 92.3558 209.206 91.6718 209.206C91.3598 209.206 91.0598 209.266 90.7718 209.386C90.4958 209.506 90.2438 209.686 90.0158 209.926C89.7878 210.154 89.5958 210.436 89.4398 210.772C89.2958 211.108 89.1998 211.492 89.1518 211.924ZM98.8555 217.216C98.2915 217.216 97.8895 217.048 97.6495 216.712C97.4095 216.376 97.2895 215.884 97.2895 215.236V204.184H98.7655V215.344C98.7655 215.584 98.8075 215.752 98.8915 215.848C98.9755 215.944 99.0715 215.992 99.1795 215.992C99.2275 215.992 99.2695 215.992 99.3055 215.992C99.3535 215.992 99.4195 215.98 99.5035 215.956L99.7015 217.072C99.6055 217.12 99.4915 217.156 99.3595 217.18C99.2275 217.204 99.0595 217.216 98.8555 217.216ZM103.443 217.216C102.879 217.216 102.477 217.048 102.237 216.712C101.997 216.376 101.877 215.884 101.877 215.236V204.184H103.353V215.344C103.353 215.584 103.395 215.752 103.479 215.848C103.563 215.944 103.659 215.992 103.767 215.992C103.815 215.992 103.857 215.992 103.893 215.992C103.941 215.992 104.007 215.98 104.091 215.956L104.289 217.072C104.193 217.12 104.079 217.156 103.947 217.18C103.815 217.204 103.647 217.216 103.443 217.216ZM106.465 217V208.252H107.941V217H106.465ZM107.221 206.452C106.933 206.452 106.687 206.362 106.483 206.182C106.291 206.002 106.195 205.774 106.195 205.498C106.195 205.21 106.291 204.982 106.483 204.814C106.687 204.634 106.933 204.544 107.221 204.544C107.509 204.544 107.749 204.634 107.941 204.814C108.145 204.982 108.247 205.21 108.247 205.498C108.247 205.774 108.145 206.002 107.941 206.182C107.749 206.362 107.509 206.452 107.221 206.452ZM113.847 221.032C113.307 221.032 112.815 220.978 112.371 220.87C111.927 220.774 111.543 220.624 111.219 220.42C110.907 220.216 110.661 219.97 110.481 219.682C110.313 219.394 110.229 219.058 110.229 218.674C110.229 218.302 110.343 217.948 110.571 217.612C110.799 217.276 111.111 216.97 111.507 216.694V216.622C111.291 216.49 111.105 216.31 110.949 216.082C110.805 215.842 110.733 215.548 110.733 215.2C110.733 214.828 110.835 214.504 111.039 214.228C111.243 213.952 111.459 213.736 111.687 213.58V213.508C111.399 213.268 111.135 212.95 110.895 212.554C110.667 212.146 110.553 211.678 110.553 211.15C110.553 210.67 110.637 210.238 110.805 209.854C110.985 209.47 111.225 209.146 111.525 208.882C111.825 208.606 112.173 208.396 112.569 208.252C112.977 208.108 113.403 208.036 113.847 208.036C114.087 208.036 114.309 208.06 114.513 208.108C114.729 208.144 114.921 208.192 115.089 208.252H118.131V209.386H116.331C116.535 209.59 116.703 209.848 116.835 210.16C116.979 210.472 117.051 210.814 117.051 211.186C117.051 211.654 116.967 212.08 116.799 212.464C116.631 212.836 116.403 213.154 116.115 213.418C115.827 213.67 115.485 213.868 115.089 214.012C114.705 214.156 114.291 214.228 113.847 214.228C113.631 214.228 113.409 214.204 113.181 214.156C112.953 214.096 112.737 214.018 112.533 213.922C112.377 214.054 112.245 214.204 112.137 214.372C112.029 214.528 111.975 214.726 111.975 214.966C111.975 215.242 112.083 215.47 112.299 215.65C112.515 215.83 112.923 215.92 113.523 215.92H115.215C116.235 215.92 116.997 216.088 117.501 216.424C118.017 216.748 118.275 217.276 118.275 218.008C118.275 218.416 118.173 218.8 117.969 219.16C117.765 219.532 117.471 219.856 117.087 220.132C116.703 220.408 116.235 220.624 115.683 220.78C115.143 220.948 114.531 221.032 113.847 221.032ZM113.847 213.238C114.099 213.238 114.333 213.19 114.549 213.094C114.777 212.998 114.975 212.86 115.143 212.68C115.323 212.5 115.461 212.284 115.557 212.032C115.653 211.768 115.701 211.474 115.701 211.15C115.701 210.502 115.521 210.004 115.161 209.656C114.801 209.296 114.363 209.116 113.847 209.116C113.331 209.116 112.893 209.296 112.533 209.656C112.173 210.004 111.993 210.502 111.993 211.15C111.993 211.474 112.041 211.768 112.137 212.032C112.233 212.284 112.365 212.5 112.533 212.68C112.713 212.86 112.911 212.998 113.127 213.094C113.355 213.19 113.595 213.238 113.847 213.238ZM114.063 220.006C114.483 220.006 114.861 219.952 115.197 219.844C115.545 219.748 115.839 219.616 116.079 219.448C116.319 219.292 116.505 219.106 116.637 218.89C116.769 218.674 116.835 218.452 116.835 218.224C116.835 217.816 116.685 217.534 116.385 217.378C116.085 217.222 115.647 217.144 115.071 217.144H113.559C113.391 217.144 113.205 217.132 113.001 217.108C112.809 217.096 112.617 217.06 112.425 217C112.113 217.228 111.885 217.468 111.741 217.72C111.597 217.972 111.525 218.224 111.525 218.476C111.525 218.944 111.747 219.316 112.191 219.592C112.647 219.868 113.271 220.006 114.063 220.006ZM123.265 217.216C122.677 217.216 122.125 217.114 121.609 216.91C121.105 216.694 120.661 216.394 120.277 216.01C119.905 215.614 119.611 215.134 119.395 214.57C119.179 214.006 119.071 213.364 119.071 212.644C119.071 211.924 119.179 211.282 119.395 210.718C119.623 210.142 119.917 209.656 120.277 209.26C120.649 208.864 121.069 208.564 121.537 208.36C122.005 208.144 122.491 208.036 122.995 208.036C123.547 208.036 124.039 208.132 124.471 208.324C124.915 208.516 125.281 208.792 125.569 209.152C125.869 209.512 126.097 209.944 126.253 210.448C126.409 210.952 126.487 211.516 126.487 212.14C126.487 212.296 126.481 212.452 126.469 212.608C126.469 212.752 126.457 212.878 126.433 212.986H120.529C120.589 213.922 120.877 214.666 121.393 215.218C121.921 215.758 122.605 216.028 123.445 216.028C123.865 216.028 124.249 215.968 124.597 215.848C124.957 215.716 125.299 215.548 125.623 215.344L126.145 216.316C125.761 216.556 125.335 216.766 124.867 216.946C124.399 217.126 123.865 217.216 123.265 217.216ZM120.511 211.924H125.191C125.191 211.036 124.999 210.364 124.615 209.908C124.243 209.44 123.715 209.206 123.031 209.206C122.719 209.206 122.419 209.266 122.131 209.386C121.855 209.506 121.603 209.686 121.375 209.926C121.147 210.154 120.955 210.436 120.799 210.772C120.655 211.108 120.559 211.492 120.511 211.924ZM128.649 217V208.252H129.873L129.999 209.512H130.053C130.473 209.092 130.911 208.744 131.367 208.468C131.835 208.18 132.375 208.036 132.987 208.036C133.911 208.036 134.583 208.324 135.003 208.9C135.435 209.476 135.651 210.328 135.651 211.456V217H134.175V211.654C134.175 210.826 134.043 210.232 133.779 209.872C133.515 209.5 133.095 209.314 132.519 209.314C132.063 209.314 131.661 209.428 131.313 209.656C130.965 209.884 130.569 210.22 130.125 210.664V217H128.649ZM141.247 217.216C140.779 217.216 140.383 217.144 140.059 217C139.747 216.856 139.489 216.658 139.285 216.406C139.093 216.154 138.955 215.848 138.871 215.488C138.787 215.128 138.745 214.732 138.745 214.3V209.458H137.449V208.342L138.817 208.252L138.997 205.804H140.239V208.252H142.597V209.458H140.239V214.318C140.239 214.858 140.335 215.278 140.527 215.578C140.731 215.866 141.085 216.01 141.589 216.01C141.745 216.01 141.913 215.986 142.093 215.938C142.273 215.89 142.435 215.836 142.579 215.776L142.867 216.892C142.627 216.976 142.363 217.048 142.075 217.108C141.799 217.18 141.523 217.216 141.247 217.216ZM150.464 217.216C149.84 217.216 149.246 217.102 148.682 216.874C148.118 216.646 147.626 216.358 147.206 216.01L147.944 215.02C148.328 215.332 148.718 215.584 149.114 215.776C149.522 215.968 149.99 216.064 150.518 216.064C151.094 216.064 151.526 215.932 151.814 215.668C152.102 215.404 152.246 215.08 152.246 214.696C152.246 214.468 152.186 214.27 152.066 214.102C151.946 213.934 151.79 213.79 151.598 213.67C151.418 213.538 151.208 213.424 150.968 213.328C150.728 213.232 150.488 213.136 150.248 213.04C149.936 212.932 149.624 212.812 149.312 212.68C149 212.536 148.718 212.368 148.466 212.176C148.226 211.972 148.028 211.738 147.872 211.474C147.716 211.21 147.638 210.892 147.638 210.52C147.638 210.172 147.704 209.848 147.836 209.548C147.98 209.236 148.178 208.972 148.43 208.756C148.694 208.528 149.012 208.354 149.384 208.234C149.756 208.102 150.176 208.036 150.644 208.036C151.196 208.036 151.7 208.132 152.156 208.324C152.624 208.516 153.026 208.75 153.362 209.026L152.66 209.962C152.36 209.734 152.048 209.548 151.724 209.404C151.4 209.26 151.046 209.188 150.662 209.188C150.11 209.188 149.702 209.314 149.438 209.566C149.186 209.818 149.06 210.112 149.06 210.448C149.06 210.652 149.114 210.832 149.222 210.988C149.33 211.132 149.474 211.264 149.654 211.384C149.834 211.492 150.038 211.594 150.266 211.69C150.506 211.774 150.752 211.864 151.004 211.96C151.316 212.08 151.628 212.206 151.94 212.338C152.264 212.47 152.552 212.638 152.804 212.842C153.056 213.034 153.26 213.274 153.416 213.562C153.584 213.85 153.668 214.198 153.668 214.606C153.668 214.966 153.596 215.302 153.452 215.614C153.32 215.926 153.116 216.202 152.84 216.442C152.576 216.682 152.24 216.868 151.832 217C151.436 217.144 150.98 217.216 150.464 217.216ZM155.863 220.762C155.659 220.762 155.473 220.744 155.305 220.708C155.137 220.684 154.981 220.642 154.837 220.582L155.125 219.412C155.221 219.436 155.329 219.46 155.449 219.484C155.569 219.52 155.683 219.538 155.791 219.538C156.295 219.538 156.703 219.358 157.015 218.998C157.339 218.65 157.591 218.206 157.771 217.666L157.969 217.018L154.459 208.252H155.989L157.771 213.094C157.903 213.478 158.041 213.886 158.185 214.318C158.341 214.738 158.485 215.152 158.617 215.56H158.689C158.821 215.164 158.947 214.75 159.067 214.318C159.187 213.886 159.307 213.478 159.427 213.094L160.993 208.252H162.433L159.139 217.72C158.983 218.152 158.809 218.554 158.617 218.926C158.425 219.298 158.197 219.616 157.933 219.88C157.669 220.156 157.369 220.372 157.033 220.528C156.697 220.684 156.307 220.762 155.863 220.762ZM166.408 217.216C165.784 217.216 165.19 217.102 164.626 216.874C164.062 216.646 163.57 216.358 163.15 216.01L163.888 215.02C164.272 215.332 164.662 215.584 165.058 215.776C165.466 215.968 165.934 216.064 166.462 216.064C167.038 216.064 167.47 215.932 167.758 215.668C168.046 215.404 168.19 215.08 168.19 214.696C168.19 214.468 168.13 214.27 168.01 214.102C167.89 213.934 167.734 213.79 167.542 213.67C167.362 213.538 167.152 213.424 166.912 213.328C166.672 213.232 166.432 213.136 166.192 213.04C165.88 212.932 165.568 212.812 165.256 212.68C164.944 212.536 164.662 212.368 164.41 212.176C164.17 211.972 163.972 211.738 163.816 211.474C163.66 211.21 163.582 210.892 163.582 210.52C163.582 210.172 163.648 209.848 163.78 209.548C163.924 209.236 164.122 208.972 164.374 208.756C164.638 208.528 164.956 208.354 165.328 208.234C165.7 208.102 166.12 208.036 166.588 208.036C167.14 208.036 167.644 208.132 168.1 208.324C168.568 208.516 168.97 208.75 169.306 209.026L168.604 209.962C168.304 209.734 167.992 209.548 167.668 209.404C167.344 209.26 166.99 209.188 166.606 209.188C166.054 209.188 165.646 209.314 165.382 209.566C165.13 209.818 165.004 210.112 165.004 210.448C165.004 210.652 165.058 210.832 165.166 210.988C165.274 211.132 165.418 211.264 165.598 211.384C165.778 211.492 165.982 211.594 166.21 211.69C166.45 211.774 166.696 211.864 166.948 211.96C167.26 212.08 167.572 212.206 167.884 212.338C168.208 212.47 168.496 212.638 168.748 212.842C169 213.034 169.204 213.274 169.36 213.562C169.528 213.85 169.612 214.198 169.612 214.606C169.612 214.966 169.54 215.302 169.396 215.614C169.264 215.926 169.06 216.202 168.784 216.442C168.52 216.682 168.184 216.868 167.776 217C167.38 217.144 166.924 217.216 166.408 217.216ZM174.065 217.216C173.597 217.216 173.201 217.144 172.877 217C172.565 216.856 172.307 216.658 172.103 216.406C171.911 216.154 171.773 215.848 171.689 215.488C171.605 215.128 171.563 214.732 171.563 214.3V209.458H170.267V208.342L171.635 208.252L171.815 205.804H173.057V208.252H175.415V209.458H173.057V214.318C173.057 214.858 173.153 215.278 173.345 215.578C173.549 215.866 173.903 216.01 174.407 216.01C174.563 216.01 174.731 215.986 174.911 215.938C175.091 215.89 175.253 215.836 175.397 215.776L175.685 216.892C175.445 216.976 175.181 217.048 174.893 217.108C174.617 217.18 174.341 217.216 174.065 217.216ZM180.693 217.216C180.105 217.216 179.553 217.114 179.037 216.91C178.533 216.694 178.089 216.394 177.705 216.01C177.333 215.614 177.039 215.134 176.823 214.57C176.607 214.006 176.499 213.364 176.499 212.644C176.499 211.924 176.607 211.282 176.823 210.718C177.051 210.142 177.345 209.656 177.705 209.26C178.077 208.864 178.497 208.564 178.965 208.36C179.433 208.144 179.919 208.036 180.423 208.036C180.975 208.036 181.467 208.132 181.899 208.324C182.343 208.516 182.709 208.792 182.997 209.152C183.297 209.512 183.525 209.944 183.681 210.448C183.837 210.952 183.915 211.516 183.915 212.14C183.915 212.296 183.909 212.452 183.897 212.608C183.897 212.752 183.885 212.878 183.861 212.986H177.957C178.017 213.922 178.305 214.666 178.821 215.218C179.349 215.758 180.033 216.028 180.873 216.028C181.293 216.028 181.677 215.968 182.025 215.848C182.385 215.716 182.727 215.548 183.051 215.344L183.573 216.316C183.189 216.556 182.763 216.766 182.295 216.946C181.827 217.126 181.293 217.216 180.693 217.216ZM177.939 211.924H182.619C182.619 211.036 182.427 210.364 182.043 209.908C181.671 209.44 181.143 209.206 180.459 209.206C180.147 209.206 179.847 209.266 179.559 209.386C179.283 209.506 179.031 209.686 178.803 209.926C178.575 210.154 178.383 210.436 178.227 210.772C178.083 211.108 177.987 211.492 177.939 211.924ZM186.077 217V208.252H187.301L187.427 209.512H187.481C187.865 209.092 188.279 208.744 188.723 208.468C189.179 208.18 189.671 208.036 190.199 208.036C190.871 208.036 191.393 208.186 191.765 208.486C192.149 208.774 192.431 209.182 192.611 209.71C193.067 209.206 193.523 208.804 193.979 208.504C194.447 208.192 194.951 208.036 195.491 208.036C196.391 208.036 197.057 208.324 197.489 208.9C197.933 209.476 198.155 210.328 198.155 211.456V217H196.679V211.654C196.679 210.826 196.547 210.232 196.283 209.872C196.019 209.5 195.611 209.314 195.059 209.314C194.399 209.314 193.667 209.764 192.863 210.664V217H191.387V211.654C191.387 210.826 191.255 210.232 190.991 209.872C190.727 209.5 190.313 209.314 189.749 209.314C189.089 209.314 188.357 209.764 187.553 210.664V217H186.077Z" fill="black"/>
</g>
<g filter="url(#filter1_d_1_24)">
<rect x="319" y="21" width="220" height="258" rx="16" fill="white"/>
<path d="M400.875 114.125V133.25H416.625C417.222 133.25 417.794 133.487 418.216 133.909C418.638 134.331 418.875 134.903 418.875 135.5C418.875 136.097 418.638 136.669 418.216 137.091C417.794 137.513 417.222 137.75 416.625 137.75H398.625C398.028 137.75 397.456 137.513 397.034 137.091C396.612 136.669 396.375 136.097 396.375 135.5V114.125C396.375 113.528 396.612 112.956 397.034 112.534C397.456 112.112 398.028 111.875 398.625 111.875C399.222 111.875 399.794 112.112 400.216 112.534C400.638 112.956 400.875 113.528 400.875 114.125Z" fill="#348FD9"/>
<path d="M457.125 114.125V133.25H442.5C441.903 133.25 441.331 133.487 440.909 133.909C440.487 134.331 440.25 134.903 440.25 135.5C440.25 136.097 440.487 136.669 440.909 137.091C441.331 137.513 441.903 137.75 442.5 137.75H459.375C459.972 137.75 460.544 137.513 460.966 137.091C461.388 136.669 461.625 136.097 461.625 135.5V114.125C461.625 113.528 461.388 112.956 460.966 112.534C460.544 112.112 459.972 111.875 459.375 111.875C458.778 111.875 458.206 112.112 457.784 112.534C457.362 112.956 457.125 113.528 457.125 114.125Z" fill="#348FD9"/>
<path d="M400.875 126.5H420.041C420.741 126.5 421.435 126.638 422.082 126.906C422.729 127.174 423.317 127.567 423.812 128.062C424.378 128.628 424.809 129.313 425.074 130.068C425.339 130.823 425.43 131.628 425.342 132.423L423.375 150.125H418.875V133.25H405.375C404.182 133.25 403.037 132.776 402.193 131.932C401.349 131.088 400.875 129.943 400.875 128.75V126.5Z" fill="#FEC9A3"/>
<path d="M425.98 154.625H418.875V150.125H423.375L426.439 150.891C426.849 150.994 427.213 151.23 427.474 151.563C427.734 151.897 427.875 152.307 427.875 152.73C427.875 153.232 427.675 153.714 427.32 154.07C426.964 154.425 426.482 154.625 425.98 154.625Z" fill="#202A58"/>
<path d="M400.875 126.5H416.625V133.25H405.375C404.182 133.25 403.037 132.776 402.193 131.932C401.349 131.088 400.875 129.943 400.875 128.75V126.5Z" fill="#202A58"/>
<path d="M407.819 97.25C409.683 97.25 411.194 95.739 411.194 93.875C411.194 92.011 409.683 90.5 407.819 90.5C405.955 90.5 404.444 92.011 404.444 93.875C404.444 95.739 405.955 97.25 407.819 97.25Z" fill="#FCAC1F"/>
<path d="M457.125 126.5H447V116.648C447 113.592 448.214 110.661 450.375 108.5H457.125V126.5Z" fill="#FF4081"/>
<path d="M447 93.875L444.75 100.625H447V105.125H450.375V108.5H457.125V105.125V93.875H447Z" fill="#FEC9A3"/>
<path d="M444.75 89.375H452.625C453.818 89.375 454.963 89.8491 455.807 90.693C456.651 91.5369 457.125 92.6815 457.125 93.875V98.375L453.75 93.875H447C446.403 93.875 445.831 93.6379 445.409 93.216C444.987 92.794 444.75 92.2217 444.75 91.625V89.375Z" fill="#92563A"/>
<path d="M407.625 149H403.125V137.75H407.625V149Z" fill="#B4D2D7"/>
<path d="M398.624 150.125L403.124 149H407.624L412.124 150.125C412.519 150.125 412.908 150.228 413.25 150.426C413.592 150.623 413.876 150.907 414.074 151.249C414.272 151.591 414.376 151.979 414.376 152.374C414.377 152.769 414.273 153.157 414.075 153.499C413.878 153.841 413.594 154.126 413.252 154.323C412.91 154.521 412.522 154.625 412.127 154.625C411.732 154.625 411.344 154.521 411.002 154.324C410.659 154.126 410.375 153.842 410.178 153.5H400.571C400.373 153.842 400.089 154.126 399.747 154.323C399.405 154.52 399.017 154.624 398.622 154.624C398.228 154.623 397.84 154.519 397.498 154.322C397.156 154.124 396.872 153.84 396.675 153.498C396.478 153.156 396.374 152.768 396.374 152.373C396.374 151.979 396.479 151.591 396.676 151.249C396.874 150.907 397.158 150.623 397.5 150.426C397.842 150.229 398.23 150.125 398.624 150.125Z" fill="#B4D2D7"/>
<path d="M450.375 137.75H454.875V149H450.375V137.75Z" fill="#B4D2D7"/>
<path d="M459.374 150.125L454.874 149H450.374L445.874 150.125C445.479 150.125 445.091 150.228 444.749 150.426C444.407 150.623 444.122 150.907 443.925 151.249C443.727 151.591 443.623 151.979 443.622 152.374C443.622 152.769 443.726 153.157 443.923 153.499C444.121 153.841 444.405 154.126 444.747 154.323C445.089 154.521 445.477 154.625 445.872 154.625C446.267 154.625 446.655 154.521 446.997 154.324C447.339 154.126 447.623 153.842 447.821 153.5H457.428C457.625 153.842 457.909 154.126 458.252 154.323C458.594 154.52 458.981 154.624 459.376 154.624C459.771 154.623 460.159 154.519 460.501 154.322C460.843 154.124 461.126 153.84 461.324 153.498C461.521 153.156 461.625 152.768 461.624 152.373C461.624 151.979 461.52 151.591 461.323 151.249C461.125 150.907 460.841 150.623 460.499 150.426C460.157 150.229 459.769 150.125 459.374 150.125Z" fill="#B4D2D7"/>
<path d="M457.124 126.5H437.802C436.488 126.5 435.227 127.022 434.298 127.951C433.708 128.541 433.277 129.27 433.044 130.07C432.811 130.87 432.784 131.717 432.964 132.531L436.874 150.125H442.499L439.124 133.25H452.624C453.817 133.25 454.962 132.776 455.806 131.932C456.65 131.088 457.124 129.943 457.124 128.75V126.5Z" fill="#202A58"/>
<path d="M434.625 150.125H442.5V154.625H434.625C434.028 154.625 433.456 154.388 433.034 153.966C432.612 153.544 432.375 152.972 432.375 152.375C432.375 151.778 432.612 151.206 433.034 150.784C433.456 150.362 434.028 150.125 434.625 150.125Z" fill="#34507B"/>
<path d="M451.5 115.25V122L438 123.125L433.5 125.375V128.75H435.75L439.125 127.625H453.75C454.645 127.625 455.504 127.269 456.136 126.636C456.769 126.004 457.125 125.145 457.125 124.25V115.25H451.5Z" fill="#FEC9A3"/>
<path d="M457.125 115.25H451.5V111.312C451.5 110.567 451.796 109.851 452.324 109.324C452.851 108.796 453.567 108.5 454.312 108.5C455.058 108.5 455.774 108.796 456.301 109.324C456.829 109.851 457.125 110.567 457.125 111.312V115.25Z" fill="#FF4081"/>
<path d="M412.125 141.125H400.875V126.5L409.875 107.375H416.625L418.994 112.113C419.306 112.737 419.469 113.426 419.469 114.125C419.469 114.824 419.306 115.513 418.994 116.137C418.62 116.885 418.046 117.514 417.335 117.953C416.624 118.392 415.805 118.625 414.969 118.625H414.375L412.125 122V141.125Z" fill="#FF4081"/>
<path d="M404.25 127.625H408.75V129.875H404.25V127.625Z" fill="#BFBFBD"/>
<path d="M416.625 107.375L417.944 104H422.004V100.098L423.375 98.7269L422.004 95.9847V95.2992C422.005 94.037 421.508 92.8254 420.621 91.9271C419.734 91.0288 418.529 90.5162 417.267 90.5003C414.594 90.4679 412.407 92.7352 412.407 95.4069L411.194 104L409.875 107.375H416.625Z" fill="#FEC9A3"/>
<path d="M414.053 99.2697L413.013 98.2303C412.729 97.9465 412.556 97.5706 412.525 97.1704C412.494 96.7702 412.607 96.372 412.843 96.0476C413.08 95.7232 413.424 95.494 413.815 95.4012C414.205 95.3084 414.616 95.3583 414.973 95.5417L415.339 95.7294L419 90.8482C418.43 90.6175 417.82 90.4993 417.204 90.5H415.023C414.937 90.5 414.851 90.5017 414.766 90.5052C411.192 90.6488 408.548 93.9069 408.992 97.4567L409.023 97.6436C409.44 100.131 410.068 101.75 411.193 104L414.053 99.2697Z" fill="#FFB531"/>
<path d="M442.5 115.25L438 114.125V109.625L442.5 108.5V115.25Z" fill="#348FD9"/>
<path d="M426.781 124.25C424.088 124.247 421.507 123.176 419.603 121.272C417.699 119.368 416.628 116.787 416.625 114.094V108.5H418.875V114.094C418.875 115.992 419.558 117.826 420.799 119.262C422.039 120.698 423.755 121.64 425.633 121.916C427.51 122.191 429.424 121.782 431.025 120.763C432.627 119.745 433.808 118.184 434.353 116.366L435.797 111.552C435.867 111.32 436.009 111.117 436.203 110.972C436.398 110.828 436.633 110.75 436.875 110.75H438V113H437.712L436.508 117.012C435.881 119.104 434.595 120.938 432.843 122.242C431.091 123.546 428.965 124.25 426.781 124.25Z" fill="#348FD9"/>
<path d="M417.75 109.625C416.557 109.624 415.413 109.149 414.569 108.306C413.726 107.462 413.251 106.318 413.25 105.125V97.25H415.5V105.125C415.5 105.722 415.737 106.294 416.159 106.716C416.581 107.138 417.153 107.375 417.75 107.375C418.347 107.375 418.919 107.138 419.341 106.716C419.763 106.294 420 105.722 420 105.125V104H422.25V105.125C422.249 106.318 421.774 107.462 420.931 108.306C420.087 109.149 418.943 109.624 417.75 109.625Z" fill="#348FD9"/>
<path d="M415.287 108.287L424.5 117.5L433.5 109.625H438V114.125H434.625L427.875 122C426.876 122.666 425.701 123.022 424.5 123.022C423.299 123.022 422.124 122.666 421.125 122L410.906 112.803C410.581 112.511 410.322 112.154 410.144 111.755C409.967 111.357 409.875 110.925 409.875 110.488C409.875 110.08 409.956 109.675 410.112 109.297C410.268 108.919 410.498 108.576 410.787 108.287C411.076 107.998 411.419 107.768 411.797 107.612C412.175 107.456 412.58 107.375 412.988 107.375H413.085C413.911 107.375 414.703 107.703 415.287 108.287Z" fill="#FEC9A3"/>
<path d="M415.287 108.287C414.703 107.703 413.911 107.375 413.085 107.375H412.988C412.58 107.375 412.175 107.456 411.797 107.612C411.419 107.768 411.076 107.998 410.787 108.287C410.498 108.576 410.268 108.919 410.112 109.297C409.956 109.675 409.875 110.08 409.875 110.488C409.875 110.925 409.967 111.356 410.144 111.755C410.322 112.154 410.581 112.511 410.906 112.803L414.375 115.925L418.875 111.875L415.287 108.287Z" fill="#FF4081"/>
<path d="M368.286 194H371.31C374.874 194 376.818 191.804 376.818 188.042C376.818 184.298 374.874 182.192 371.238 182.192H368.286V194ZM369.798 192.776V183.416H371.13C373.902 183.416 375.27 185.072 375.27 188.042C375.27 191.03 373.902 192.776 371.13 192.776H369.798ZM379.973 183.452C380.549 183.452 380.999 183.056 380.999 182.498C380.999 181.922 380.549 181.544 379.973 181.544C379.397 181.544 378.947 181.922 378.947 182.498C378.947 183.056 379.397 183.452 379.973 183.452ZM379.217 194H380.693V185.252H379.217V194ZM383.647 194H385.123V188.384C385.717 186.908 386.599 186.368 387.337 186.368C387.697 186.368 387.895 186.422 388.183 186.512L388.471 185.216C388.183 185.09 387.913 185.036 387.535 185.036C386.545 185.036 385.645 185.738 385.051 186.836H384.997L384.871 185.252H383.647V194ZM389.063 189.644C389.063 192.506 390.917 194.216 393.257 194.216C394.445 194.216 395.381 193.802 396.137 193.316L395.615 192.344C394.967 192.758 394.265 193.028 393.437 193.028C391.763 193.028 390.629 191.84 390.521 189.95H396.425C396.461 189.734 396.479 189.446 396.479 189.14C396.479 186.638 395.219 185.036 392.987 185.036C390.989 185.036 389.063 186.782 389.063 189.644ZM390.503 188.978C390.683 187.214 391.799 186.206 393.023 186.206C394.391 186.206 395.183 187.196 395.183 188.978H390.503ZM397.993 189.644C397.993 192.542 399.775 194.216 402.097 194.216C403.141 194.216 404.149 193.784 404.941 193.082L404.275 192.11C403.753 192.578 403.051 192.992 402.223 192.992C400.621 192.992 399.523 191.642 399.523 189.644C399.523 187.628 400.675 186.26 402.259 186.26C402.961 186.26 403.501 186.584 404.023 187.034L404.761 186.08C404.167 185.522 403.357 185.036 402.205 185.036C399.955 185.036 397.993 186.71 397.993 189.644ZM407.102 191.3C407.102 193.028 407.732 194.216 409.604 194.216C410.144 194.216 410.738 194.054 411.224 193.892L410.936 192.776C410.648 192.884 410.252 193.01 409.946 193.01C408.938 193.01 408.596 192.398 408.596 191.318V186.458H410.954V185.252H408.596V182.804H407.354L407.174 185.252L405.806 185.342V186.458H407.102V191.3ZM411.719 190.058H415.859V188.924H411.719V190.058ZM418.299 191.3C418.299 193.028 418.929 194.216 420.801 194.216C421.341 194.216 421.935 194.054 422.421 193.892L422.133 192.776C421.845 192.884 421.449 193.01 421.143 193.01C420.135 193.01 419.793 192.398 419.793 191.318V186.458H422.151V185.252H419.793V182.804H418.551L418.371 185.252L417.003 185.342V186.458H418.299V191.3ZM423.306 189.644C423.306 192.542 425.214 194.216 427.356 194.216C429.498 194.216 431.406 192.542 431.406 189.644C431.406 186.71 429.498 185.036 427.356 185.036C425.214 185.036 423.306 186.71 423.306 189.644ZM424.836 189.644C424.836 187.628 425.862 186.26 427.356 186.26C428.868 186.26 429.876 187.628 429.876 189.644C429.876 191.642 428.868 192.992 427.356 192.992C425.862 192.992 424.836 191.642 424.836 189.644ZM433.077 190.058H437.217V188.924H433.077V190.058ZM439.495 194H442.519C446.083 194 448.027 191.804 448.027 188.042C448.027 184.298 446.083 182.192 442.447 182.192H439.495V194ZM441.007 192.776V183.416H442.339C445.111 183.416 446.479 185.072 446.479 188.042C446.479 191.03 445.111 192.776 442.339 192.776H441.007ZM449.778 189.644C449.778 192.542 451.686 194.216 453.828 194.216C455.97 194.216 457.878 192.542 457.878 189.644C457.878 186.71 455.97 185.036 453.828 185.036C451.686 185.036 449.778 186.71 449.778 189.644ZM451.308 189.644C451.308 187.628 452.334 186.26 453.828 186.26C455.34 186.26 456.348 187.628 456.348 189.644C456.348 191.642 455.34 192.992 453.828 192.992C452.334 192.992 451.308 191.642 451.308 189.644ZM459.534 189.644C459.534 192.542 461.316 194.216 463.638 194.216C464.682 194.216 465.69 193.784 466.482 193.082L465.816 192.11C465.294 192.578 464.592 192.992 463.764 192.992C462.162 192.992 461.064 191.642 461.064 189.644C461.064 187.628 462.216 186.26 463.8 186.26C464.502 186.26 465.042 186.584 465.564 187.034L466.302 186.08C465.708 185.522 464.898 185.036 463.746 185.036C461.496 185.036 459.534 186.71 459.534 189.644ZM468.643 191.3C468.643 193.028 469.273 194.216 471.145 194.216C471.685 194.216 472.279 194.054 472.765 193.892L472.477 192.776C472.189 192.884 471.793 193.01 471.487 193.01C470.479 193.01 470.137 192.398 470.137 191.318V186.458H472.495V185.252H470.137V182.804H468.895L468.715 185.252L467.347 185.342V186.458H468.643V191.3ZM473.649 189.644C473.649 192.542 475.557 194.216 477.699 194.216C479.841 194.216 481.749 192.542 481.749 189.644C481.749 186.71 479.841 185.036 477.699 185.036C475.557 185.036 473.649 186.71 473.649 189.644ZM475.179 189.644C475.179 187.628 476.205 186.26 477.699 186.26C479.211 186.26 480.219 187.628 480.219 189.644C480.219 191.642 479.211 192.992 477.699 192.992C476.205 192.992 475.179 191.642 475.179 189.644ZM484.053 194H485.529V188.384C486.123 186.908 487.005 186.368 487.743 186.368C488.103 186.368 488.301 186.422 488.589 186.512L488.877 185.216C488.589 185.09 488.319 185.036 487.941 185.036C486.951 185.036 486.051 185.738 485.457 186.836H485.403L485.277 185.252H484.053V194ZM489.004 197.06C490.462 196.448 491.362 195.242 491.362 193.694C491.362 192.614 490.894 191.948 490.12 191.948C489.526 191.948 489.022 192.344 489.022 192.992C489.022 193.658 489.508 194.018 490.084 194.018C490.138 194.018 490.21 194.018 490.264 194C490.264 194.972 489.652 195.746 488.644 196.196L489.004 197.06ZM363.795 217H365.217V210.826C365.217 209.584 365.109 208.324 365.037 207.136H365.109L366.387 209.566L370.653 217H372.201V205.192H370.779V211.294C370.779 212.536 370.905 213.868 370.977 215.056H370.905L369.627 212.608L365.343 205.192H363.795V217ZM374.605 212.644C374.605 215.542 376.513 217.216 378.655 217.216C380.797 217.216 382.705 215.542 382.705 212.644C382.705 209.71 380.797 208.036 378.655 208.036C376.513 208.036 374.605 209.71 374.605 212.644ZM376.135 212.644C376.135 210.628 377.161 209.26 378.655 209.26C380.167 209.26 381.175 210.628 381.175 212.644C381.175 214.642 380.167 215.992 378.655 215.992C377.161 215.992 376.135 214.642 376.135 212.644ZM385.009 217H386.485V210.664C387.367 209.782 387.979 209.314 388.879 209.314C390.031 209.314 390.535 210.016 390.535 211.654V217H392.011V211.456C392.011 209.224 391.183 208.036 389.347 208.036C388.141 208.036 387.241 208.684 386.413 209.512H386.359L386.233 208.252H385.009V217ZM394.115 213.058H398.255V211.924H394.115V213.058ZM401.199 206.452C401.775 206.452 402.225 206.056 402.225 205.498C402.225 204.922 401.775 204.544 401.199 204.544C400.623 204.544 400.173 204.922 400.173 205.498C400.173 206.056 400.623 206.452 401.199 206.452ZM400.443 217H401.919V208.252H400.443V217ZM404.872 217H406.348V210.664C407.23 209.782 407.842 209.314 408.742 209.314C409.894 209.314 410.398 210.016 410.398 211.654V217H411.874V211.456C411.874 209.224 411.046 208.036 409.21 208.036C408.004 208.036 407.104 208.684 406.276 209.512H406.222L406.096 208.252H404.872V217ZM414.968 214.3C414.968 216.028 415.598 217.216 417.47 217.216C418.01 217.216 418.604 217.054 419.09 216.892L418.802 215.776C418.514 215.884 418.118 216.01 417.812 216.01C416.804 216.01 416.462 215.398 416.462 214.318V209.458H418.82V208.252H416.462V205.804H415.22L415.04 208.252L413.672 208.342V209.458H414.968V214.3ZM419.974 212.644C419.974 215.506 421.828 217.216 424.168 217.216C425.356 217.216 426.292 216.802 427.048 216.316L426.526 215.344C425.878 215.758 425.176 216.028 424.348 216.028C422.674 216.028 421.54 214.84 421.432 212.95H427.336C427.372 212.734 427.39 212.446 427.39 212.14C427.39 209.638 426.13 208.036 423.898 208.036C421.9 208.036 419.974 209.782 419.974 212.644ZM421.414 211.978C421.594 210.214 422.71 209.206 423.934 209.206C425.302 209.206 426.094 210.196 426.094 211.978H421.414ZM429.552 217H431.028V211.384C431.622 209.908 432.504 209.368 433.242 209.368C433.602 209.368 433.8 209.422 434.088 209.512L434.376 208.216C434.088 208.09 433.818 208.036 433.44 208.036C432.45 208.036 431.55 208.738 430.956 209.836H430.902L430.776 208.252H429.552V217ZM435.792 217H437.268V210.664C438.078 209.764 438.816 209.314 439.464 209.314C440.58 209.314 441.102 210.016 441.102 211.654V217H442.578V210.664C443.388 209.764 444.09 209.314 444.774 209.314C445.872 209.314 446.394 210.016 446.394 211.654V217H447.87V211.456C447.87 209.224 447.006 208.036 445.206 208.036C444.144 208.036 443.244 208.72 442.326 209.71C441.966 208.666 441.246 208.036 439.914 208.036C438.87 208.036 437.952 208.684 437.196 209.512H437.142L437.016 208.252H435.792V217ZM450.068 212.644C450.068 215.506 451.922 217.216 454.262 217.216C455.45 217.216 456.386 216.802 457.142 216.316L456.62 215.344C455.972 215.758 455.27 216.028 454.442 216.028C452.768 216.028 451.634 214.84 451.526 212.95H457.43C457.466 212.734 457.484 212.446 457.484 212.14C457.484 209.638 456.224 208.036 453.992 208.036C451.994 208.036 450.068 209.782 450.068 212.644ZM451.508 211.978C451.688 210.214 452.804 209.206 454.028 209.206C455.396 209.206 456.188 210.196 456.188 211.978H451.508ZM459.016 212.644C459.016 215.56 460.438 217.216 462.634 217.216C463.66 217.216 464.596 216.64 465.28 215.974H465.334L465.46 217H466.684V204.184H465.19V207.55L465.262 209.044C464.488 208.414 463.822 208.036 462.814 208.036C460.816 208.036 459.016 209.8 459.016 212.644ZM460.546 212.626C460.546 210.628 461.662 209.278 463.066 209.278C463.786 209.278 464.452 209.53 465.19 210.196V214.768C464.47 215.578 463.768 215.974 462.958 215.974C461.428 215.974 460.546 214.714 460.546 212.626ZM470.386 206.452C470.962 206.452 471.412 206.056 471.412 205.498C471.412 204.922 470.962 204.544 470.386 204.544C469.81 204.544 469.36 204.922 469.36 205.498C469.36 206.056 469.81 206.452 470.386 206.452ZM469.63 217H471.106V208.252H469.63V217ZM473.628 214.732C473.628 216.298 474.726 217.216 476.202 217.216C477.282 217.216 478.254 216.64 479.1 215.956H479.136L479.262 217H480.486V211.636C480.486 209.458 479.586 208.036 477.444 208.036C476.04 208.036 474.816 208.648 474.006 209.17L474.6 210.196C475.284 209.728 476.184 209.26 477.21 209.26C478.632 209.26 479.01 210.34 479.01 211.456C475.284 211.87 473.628 212.824 473.628 214.732ZM475.086 214.624C475.086 213.508 476.076 212.788 479.01 212.428V214.858C478.164 215.614 477.462 216.028 476.616 216.028C475.752 216.028 475.086 215.614 475.086 214.624ZM483.271 217H484.747V211.384C485.341 209.908 486.223 209.368 486.961 209.368C487.321 209.368 487.519 209.422 487.807 209.512L488.095 208.216C487.807 208.09 487.537 208.036 487.159 208.036C486.169 208.036 485.269 208.738 484.675 209.836H484.621L484.495 208.252H483.271V217ZM489.251 219.412L488.963 220.582C489.251 220.69 489.593 220.762 489.989 220.762C491.753 220.762 492.653 219.448 493.265 217.72L496.559 208.252H495.119L493.553 213.094C493.319 213.868 493.067 214.768 492.815 215.56H492.743C492.473 214.75 492.167 213.85 491.897 213.094L490.115 208.252H488.585L492.095 217.018L491.897 217.666C491.537 218.746 490.907 219.538 489.917 219.538C489.701 219.538 489.431 219.466 489.251 219.412Z" fill="black"/>
</g>
<g filter="url(#filter2_d_1_24)">
<rect x="615" y="21" width="220" height="258" rx="16" fill="white"/>
<g clip-path="url(#clip1_1_24)">
<path d="M748.133 101.032C748.133 108.511 740.715 114.817 731.324 122.797C729.707 124.173 728.028 125.599 726.316 127.092L724.93 128.302L723.543 127.092C721.832 125.599 720.153 124.173 718.536 122.797C709.145 114.817 701.727 108.511 701.727 101.032C701.727 93.4731 706.897 86.0579 714.383 86.0003C717.233 85.9778 721.12 87.242 724.93 91.6225C727.542 88.564 731.298 86.0063 735.336 86.0003C741.017 85.9889 747.793 91.6211 748.122 100.403C748.129 100.615 748.133 100.825 748.133 101.032Z" fill="#FF4081"/>
<path d="M748.133 101.031C748.133 108.511 740.715 114.817 731.324 122.797C729.707 124.173 728.028 125.598 726.316 127.092L724.93 128.301V91.6222C727.542 88.5637 731.298 86.0061 735.336 86C741.017 85.9886 747.793 91.6208 748.122 100.403C748.129 100.615 748.133 100.825 748.133 101.031Z" fill="#FF4081"/>
<path d="M690.432 103.016C695.533 103.016 695.31 109.173 695.399 113.942V116.094C695.483 122.211 696.031 130.1 703.245 135.584C704.891 136.85 706.958 137.947 709.405 138.917C709.573 138.579 710.755 135.415 710.924 134.951C709.363 134.361 707.886 133.644 706.241 132.547C702.107 129.045 701.769 127.4 702.064 126.64C702.571 125.375 705.313 125.712 706.663 125.966C710.586 126.725 715.733 129.298 718.981 132.547C721.259 134.614 722.82 137.23 722.82 140.183V158H705.945V155.89C705.945 150.997 704.005 149.422 700.799 147.059C695.863 143.389 689.07 138.369 689.07 117.781V103.016H690.432Z" fill="#FFBFAB"/>
<path d="M727.039 107.234V103.016H724.93H722.82V107.234H718.602V111.453H722.82V115.672H724.93H727.039V111.453H731.258V107.234H727.039Z" fill="white"/>
<path d="M727.039 111.453H731.258V107.234H727.039V103.016H724.93V115.672H727.039V111.453Z" fill="white"/>
<path d="M759.568 103.016C754.467 103.016 754.55 109.173 754.461 113.942V116.094C754.376 122.211 753.828 130.1 746.614 135.584C744.969 136.85 742.901 137.947 740.454 138.917C740.286 138.579 739.105 135.415 738.936 134.951C740.497 134.361 741.973 133.644 743.619 132.547C747.753 129.045 748.09 127.4 747.795 126.64C747.289 125.375 744.547 125.712 743.197 125.966C739.273 126.725 734.126 129.298 730.878 132.547C728.6 134.614 727.039 137.23 727.039 140.183V158H743.914V155.89C743.914 150.997 745.855 149.422 749.061 147.059C753.997 143.389 760.93 138.369 760.93 117.781V103.016H759.568Z" fill="#FFBFAB"/>
</g>
<path d="M679.369 188.096C679.369 191.948 681.583 194.216 684.553 194.216C686.047 194.216 687.217 193.586 688.135 192.506L687.289 191.588C686.533 192.434 685.705 192.902 684.589 192.902C682.339 192.902 680.917 191.03 680.917 188.06C680.917 185.126 682.411 183.29 684.661 183.29C685.633 183.29 686.389 183.722 687.019 184.388L687.865 183.434C687.163 182.66 686.047 181.976 684.643 181.976C681.619 181.976 679.369 184.298 679.369 188.096ZM689.727 191.732C689.727 193.298 690.825 194.216 692.301 194.216C693.381 194.216 694.353 193.64 695.199 192.956H695.235L695.361 194H696.585V188.636C696.585 186.458 695.685 185.036 693.543 185.036C692.139 185.036 690.915 185.648 690.105 186.17L690.699 187.196C691.383 186.728 692.283 186.26 693.309 186.26C694.731 186.26 695.109 187.34 695.109 188.456C691.383 188.87 689.727 189.824 689.727 191.732ZM691.185 191.624C691.185 190.508 692.175 189.788 695.109 189.428V191.858C694.263 192.614 693.561 193.028 692.715 193.028C691.851 193.028 691.185 192.614 691.185 191.624ZM699.37 194H700.846V188.384C701.44 186.908 702.322 186.368 703.06 186.368C703.42 186.368 703.618 186.422 703.906 186.512L704.194 185.216C703.906 185.09 703.636 185.036 703.258 185.036C702.268 185.036 701.368 185.738 700.774 186.836H700.72L700.594 185.252H699.37V194ZM704.786 189.644C704.786 192.506 706.64 194.216 708.98 194.216C710.168 194.216 711.104 193.802 711.86 193.316L711.338 192.344C710.69 192.758 709.988 193.028 709.16 193.028C707.486 193.028 706.352 191.84 706.244 189.95H712.148C712.184 189.734 712.202 189.446 712.202 189.14C712.202 186.638 710.942 185.036 708.71 185.036C706.712 185.036 704.786 186.782 704.786 189.644ZM706.226 188.978C706.406 187.214 707.522 186.206 708.746 186.206C710.114 186.206 710.906 187.196 710.906 188.978H706.226ZM713.731 190.058H717.871V188.924H713.731V190.058ZM719.465 188.096C719.465 191.948 721.679 194.216 724.649 194.216C726.143 194.216 727.313 193.586 728.231 192.506L727.385 191.588C726.629 192.434 725.801 192.902 724.685 192.902C722.435 192.902 721.013 191.03 721.013 188.06C721.013 185.126 722.507 183.29 724.757 183.29C725.729 183.29 726.485 183.722 727.115 184.388L727.961 183.434C727.259 182.66 726.143 181.976 724.739 181.976C721.715 181.976 719.465 184.298 719.465 188.096ZM729.606 189.644C729.606 192.506 731.46 194.216 733.8 194.216C734.988 194.216 735.924 193.802 736.68 193.316L736.158 192.344C735.51 192.758 734.808 193.028 733.98 193.028C732.306 193.028 731.172 191.84 731.064 189.95H736.968C737.004 189.734 737.022 189.446 737.022 189.14C737.022 186.638 735.762 185.036 733.53 185.036C731.532 185.036 729.606 186.782 729.606 189.644ZM731.046 188.978C731.226 187.214 732.342 186.206 733.566 186.206C734.934 186.206 735.726 187.196 735.726 188.978H731.046ZM739.184 194H740.66V187.664C741.542 186.782 742.154 186.314 743.054 186.314C744.206 186.314 744.71 187.016 744.71 188.654V194H746.186V188.456C746.186 186.224 745.358 185.036 743.522 185.036C742.316 185.036 741.416 185.684 740.588 186.512H740.534L740.408 185.252H739.184V194ZM749.28 191.3C749.28 193.028 749.91 194.216 751.782 194.216C752.322 194.216 752.916 194.054 753.402 193.892L753.114 192.776C752.826 192.884 752.43 193.01 752.124 193.01C751.116 193.01 750.774 192.398 750.774 191.318V186.458H753.132V185.252H750.774V182.804H749.532L749.352 185.252L747.984 185.342V186.458H749.28V191.3ZM755.11 194H756.586V188.384C757.18 186.908 758.062 186.368 758.8 186.368C759.16 186.368 759.358 186.422 759.646 186.512L759.934 185.216C759.646 185.09 759.376 185.036 758.998 185.036C758.008 185.036 757.108 185.738 756.514 186.836H756.46L756.334 185.252H755.11V194ZM762.106 183.452C762.682 183.452 763.132 183.056 763.132 182.498C763.132 181.922 762.682 181.544 762.106 181.544C761.53 181.544 761.08 181.922 761.08 182.498C761.08 183.056 761.53 183.452 762.106 183.452ZM761.35 194H762.826V185.252H761.35V194ZM765.132 189.644C765.132 192.542 766.914 194.216 769.236 194.216C770.28 194.216 771.288 193.784 772.08 193.082L771.414 192.11C770.892 192.578 770.19 192.992 769.362 192.992C767.76 192.992 766.662 191.642 766.662 189.644C766.662 187.628 767.814 186.26 769.398 186.26C770.1 186.26 770.64 186.584 771.162 187.034L771.9 186.08C771.306 185.522 770.496 185.036 769.344 185.036C767.094 185.036 765.132 186.71 765.132 189.644ZM667.907 217H670.931C674.495 217 676.439 214.804 676.439 211.042C676.439 207.298 674.495 205.192 670.859 205.192H667.907V217ZM669.419 215.776V206.416H670.751C673.523 206.416 674.891 208.072 674.891 211.042C674.891 214.03 673.523 215.776 670.751 215.776H669.419ZM679.594 206.452C680.17 206.452 680.62 206.056 680.62 205.498C680.62 204.922 680.17 204.544 679.594 204.544C679.018 204.544 678.568 204.922 678.568 205.498C678.568 206.056 679.018 206.452 679.594 206.452ZM678.838 217H680.314V208.252H678.838V217ZM683.898 218.476C683.898 217.972 684.168 217.45 684.798 217C685.176 217.108 685.59 217.144 685.932 217.144H687.444C688.578 217.144 689.208 217.414 689.208 218.224C689.208 219.142 688.11 220.006 686.436 220.006C684.852 220.006 683.898 219.412 683.898 218.476ZM682.602 218.674C682.602 220.186 684.078 221.032 686.22 221.032C688.938 221.032 690.648 219.628 690.648 218.008C690.648 216.55 689.622 215.92 687.588 215.92H685.896C684.708 215.92 684.348 215.524 684.348 214.966C684.348 214.48 684.6 214.192 684.906 213.922C685.302 214.12 685.788 214.228 686.22 214.228C688.002 214.228 689.424 213.058 689.424 211.186C689.424 210.448 689.118 209.782 688.704 209.386H690.504V208.252H687.462C687.138 208.126 686.706 208.036 686.22 208.036C684.438 208.036 682.926 209.242 682.926 211.15C682.926 212.194 683.484 213.04 684.06 213.508V213.58C683.61 213.886 683.106 214.462 683.106 215.2C683.106 215.884 683.448 216.352 683.88 216.622V216.694C683.088 217.234 682.602 217.936 682.602 218.674ZM686.22 213.238C685.212 213.238 684.366 212.428 684.366 211.15C684.366 209.872 685.194 209.116 686.22 209.116C687.246 209.116 688.074 209.872 688.074 211.15C688.074 212.428 687.228 213.238 686.22 213.238ZM693.094 206.452C693.67 206.452 694.12 206.056 694.12 205.498C694.12 204.922 693.67 204.544 693.094 204.544C692.518 204.544 692.068 204.922 692.068 205.498C692.068 206.056 692.518 206.452 693.094 206.452ZM692.338 217H693.814V208.252H692.338V217ZM697.02 214.3C697.02 216.028 697.65 217.216 699.522 217.216C700.062 217.216 700.656 217.054 701.142 216.892L700.854 215.776C700.566 215.884 700.17 216.01 699.864 216.01C698.856 216.01 698.514 215.398 698.514 214.318V209.458H700.872V208.252H698.514V205.804H697.272L697.092 208.252L695.724 208.342V209.458H697.02V214.3ZM702.102 214.732C702.102 216.298 703.2 217.216 704.676 217.216C705.756 217.216 706.728 216.64 707.574 215.956H707.61L707.736 217H708.96V211.636C708.96 209.458 708.06 208.036 705.918 208.036C704.514 208.036 703.29 208.648 702.48 209.17L703.074 210.196C703.758 209.728 704.658 209.26 705.684 209.26C707.106 209.26 707.484 210.34 707.484 211.456C703.758 211.87 702.102 212.824 702.102 214.732ZM703.56 214.624C703.56 213.508 704.55 212.788 707.484 212.428V214.858C706.638 215.614 705.936 216.028 705.09 216.028C704.226 216.028 703.56 215.614 703.56 214.624ZM711.745 215.236C711.745 216.514 712.195 217.216 713.311 217.216C713.707 217.216 713.959 217.162 714.157 217.072L713.959 215.956C713.797 215.992 713.725 215.992 713.635 215.992C713.419 215.992 713.221 215.812 713.221 215.344V204.184H711.745V215.236ZM720.061 217H721.573V212.32H723.697C726.271 212.32 728.053 211.15 728.053 208.666C728.053 206.074 726.307 205.192 723.697 205.192H720.061V217ZM721.573 211.096V206.398H723.499C725.533 206.398 726.559 206.956 726.559 208.666C726.559 210.34 725.569 211.096 723.499 211.096H721.573ZM730.254 215.236C730.254 216.514 730.704 217.216 731.82 217.216C732.216 217.216 732.468 217.162 732.666 217.072L732.468 215.956C732.306 215.992 732.234 215.992 732.144 215.992C731.928 215.992 731.73 215.812 731.73 215.344V204.184H730.254V215.236ZM734.41 214.732C734.41 216.298 735.508 217.216 736.984 217.216C738.064 217.216 739.036 216.64 739.882 215.956H739.918L740.044 217H741.268V211.636C741.268 209.458 740.368 208.036 738.226 208.036C736.822 208.036 735.598 208.648 734.788 209.17L735.382 210.196C736.066 209.728 736.966 209.26 737.992 209.26C739.414 209.26 739.792 210.34 739.792 211.456C736.066 211.87 734.41 212.824 734.41 214.732ZM735.868 214.624C735.868 213.508 736.858 212.788 739.792 212.428V214.858C738.946 215.614 738.244 216.028 737.398 216.028C736.534 216.028 735.868 215.614 735.868 214.624ZM744.305 214.3C744.305 216.028 744.935 217.216 746.807 217.216C747.347 217.216 747.941 217.054 748.427 216.892L748.139 215.776C747.851 215.884 747.455 216.01 747.149 216.01C746.141 216.01 745.799 215.398 745.799 214.318V209.458H748.157V208.252H745.799V205.804H744.557L744.377 208.252L743.009 208.342V209.458H744.305V214.3ZM754.401 204.256C754.005 204.094 753.483 203.968 752.943 203.968C751.197 203.968 750.387 205.084 750.387 206.866V208.252L749.199 208.342V209.458H750.387V217H751.863V209.458H753.717V208.252H751.863V206.866C751.863 205.75 752.259 205.174 753.087 205.174C753.411 205.174 753.753 205.246 754.077 205.39L754.401 204.256ZM754.567 212.644C754.567 215.542 756.475 217.216 758.617 217.216C760.759 217.216 762.667 215.542 762.667 212.644C762.667 209.71 760.759 208.036 758.617 208.036C756.475 208.036 754.567 209.71 754.567 212.644ZM756.097 212.644C756.097 210.628 757.123 209.26 758.617 209.26C760.129 209.26 761.137 210.628 761.137 212.644C761.137 214.642 760.129 215.992 758.617 215.992C757.123 215.992 756.097 214.642 756.097 212.644ZM764.971 217H766.447V211.384C767.041 209.908 767.923 209.368 768.661 209.368C769.021 209.368 769.219 209.422 769.507 209.512L769.795 208.216C769.507 208.09 769.237 208.036 768.859 208.036C767.869 208.036 766.969 208.738 766.375 209.836H766.321L766.195 208.252H764.971V217ZM771.211 217H772.687V210.664C773.497 209.764 774.235 209.314 774.883 209.314C775.999 209.314 776.521 210.016 776.521 211.654V217H777.997V210.664C778.807 209.764 779.509 209.314 780.193 209.314C781.291 209.314 781.813 210.016 781.813 211.654V217H783.289V211.456C783.289 209.224 782.425 208.036 780.625 208.036C779.563 208.036 778.663 208.72 777.745 209.71C777.385 208.666 776.665 208.036 775.333 208.036C774.289 208.036 773.371 208.684 772.615 209.512H772.561L772.435 208.252H771.211V217Z" fill="black"/>
</g>
<g filter="url(#filter3_d_1_24)">
<rect x="911" y="21" width="220" height="258" rx="16" fill="white"/>
<g clip-path="url(#clip2_1_24)">
<path d="M1001.08 95.8711H1030.21V109.291H1001.08V95.8711Z" fill="#DFE7F4"/>
<path d="M1015.64 95.8711H1030.21V109.291H1015.64V95.8711Z" fill="#DFE7F4"/>
<path d="M1039.92 112.008V153.432C1039.92 155.956 1037.87 158.002 1035.35 158.002H995.938C993.414 158.002 991.367 155.956 991.367 153.432V146.375L993.339 131.712L991.367 117.207V112.008C991.367 109.484 993.414 107.438 995.938 107.438H1035.35C1037.87 107.438 1039.92 109.484 1039.92 112.008Z" fill="#FF4081"/>
<path d="M996.222 86H1035.06V97.7267H996.222V86Z" fill="#2A4979"/>
<path d="M1047.49 139.703L1032.34 154.86L1047.49 139.703Z" fill="#A4EA2E"/>
<path d="M1047.49 133.707C1043.82 137.382 1038.14 137.83 1033.97 135.051C1033.4 134.665 1033.6 132.447 1033.6 132.447C1033.6 132.447 1031.38 132.647 1030.99 132.069C1028.21 127.905 1028.66 122.224 1032.34 118.549C1036.01 114.874 1041.69 114.426 1045.85 117.205C1046.43 117.59 1046.51 119.528 1046.51 119.528C1046.51 119.528 1048.45 119.609 1048.84 120.187C1051.62 124.351 1051.17 130.031 1047.49 133.707Z" fill="#FED39A"/>
<path d="M1047.49 133.707C1043.82 137.381 1038.14 137.83 1033.97 135.051C1033.4 134.664 1033.6 132.447 1033.6 132.447L1046.51 119.527C1046.51 119.527 1048.45 119.609 1048.84 120.187C1051.62 124.351 1051.17 130.031 1047.49 133.707Z" fill="#FED39A"/>
<path d="M1048.84 120.186L1033.97 135.05C1033.4 134.663 1032.85 134.216 1032.34 133.705C1031.83 133.195 1031.38 132.645 1030.99 132.067L1045.85 117.203C1046.43 117.588 1046.98 118.037 1047.49 118.548C1048 119.058 1048.45 119.608 1048.84 120.186Z" fill="#FEB556"/>
<path d="M1048.84 120.189L1033.97 135.053C1033.4 134.666 1032.85 134.219 1032.34 133.709L1047.49 118.551C1048 119.061 1048.45 119.611 1048.84 120.189Z" fill="#FD9126"/>
<path d="M991.367 117.145H1020.5V146.272H991.367V117.145Z" fill="#F0F7FF"/>
<path d="M1012.62 129.601H1008.04V125.023H1003.82V129.601H999.244V133.82H1003.82V138.398H1008.04V133.82H1012.62V129.601Z" fill="#FF4081"/>
<path d="M1047.49 154.859C1043.82 158.534 1038.14 158.982 1033.97 156.204C1033.4 155.817 1033.6 153.599 1033.6 153.599C1033.6 153.599 1031.38 153.799 1030.99 153.221C1028.21 149.057 1028.66 143.376 1032.34 139.701C1036.01 136.027 1041.69 135.578 1045.85 138.357C1046.43 138.742 1046.51 140.68 1046.51 140.68C1046.51 140.68 1048.45 140.762 1048.84 141.34C1051.62 145.504 1051.17 151.183 1047.49 154.859Z" fill="#11B5E4"/>
<path d="M1047.49 154.863C1043.82 158.537 1038.14 158.986 1033.97 156.207C1033.4 155.82 1033.6 153.603 1033.6 153.603L1046.51 140.684C1046.51 140.684 1048.45 140.765 1048.84 141.343C1051.62 145.507 1051.17 151.187 1047.49 154.863Z" fill="#11B5E4"/>
<path d="M1048.84 141.342L1033.97 156.206C1033.4 155.819 1032.85 155.372 1032.34 154.862C1031.83 154.351 1031.38 153.801 1030.99 153.223L1045.85 138.359C1046.43 138.745 1046.98 139.193 1047.49 139.704C1048 140.214 1048.45 140.764 1048.84 141.342Z" fill="#A1EAFF"/>
<path d="M1048.84 141.341L1033.97 156.205C1033.4 155.819 1032.85 155.372 1032.34 154.861L1047.49 139.703C1048 140.214 1048.45 140.763 1048.84 141.341Z" fill="#5AD4F8"/>
</g>
<path d="M968.047 194H969.469V187.826C969.469 186.584 969.361 185.324 969.289 184.136H969.361L970.639 186.566L974.905 194H976.453V182.192H975.031V188.294C975.031 189.536 975.157 190.868 975.229 192.056H975.157L973.879 189.608L969.595 182.192H968.047V194ZM978.858 189.644C978.858 192.506 980.712 194.216 983.052 194.216C984.24 194.216 985.176 193.802 985.932 193.316L985.41 192.344C984.762 192.758 984.06 193.028 983.232 193.028C981.558 193.028 980.424 191.84 980.316 189.95H986.22C986.256 189.734 986.274 189.446 986.274 189.14C986.274 186.638 985.014 185.036 982.782 185.036C980.784 185.036 978.858 186.782 978.858 189.644ZM980.298 188.978C980.478 187.214 981.594 186.206 982.818 186.206C984.186 186.206 984.978 187.196 984.978 188.978H980.298ZM989.192 183.452C989.768 183.452 990.218 183.056 990.218 182.498C990.218 181.922 989.768 181.544 989.192 181.544C988.616 181.544 988.166 181.922 988.166 182.498C988.166 183.056 988.616 183.452 989.192 183.452ZM988.436 194H989.912V185.252H988.436V194ZM993.496 195.476C993.496 194.972 993.766 194.45 994.396 194C994.774 194.108 995.188 194.144 995.53 194.144H997.042C998.176 194.144 998.806 194.414 998.806 195.224C998.806 196.142 997.708 197.006 996.034 197.006C994.45 197.006 993.496 196.412 993.496 195.476ZM992.2 195.674C992.2 197.186 993.676 198.032 995.818 198.032C998.536 198.032 1000.25 196.628 1000.25 195.008C1000.25 193.55 999.22 192.92 997.186 192.92H995.494C994.306 192.92 993.946 192.524 993.946 191.966C993.946 191.48 994.198 191.192 994.504 190.922C994.9 191.12 995.386 191.228 995.818 191.228C997.6 191.228 999.022 190.058 999.022 188.186C999.022 187.448 998.716 186.782 998.302 186.386H1000.1V185.252H997.06C996.736 185.126 996.304 185.036 995.818 185.036C994.036 185.036 992.524 186.242 992.524 188.15C992.524 189.194 993.082 190.04 993.658 190.508V190.58C993.208 190.886 992.704 191.462 992.704 192.2C992.704 192.884 993.046 193.352 993.478 193.622V193.694C992.686 194.234 992.2 194.936 992.2 195.674ZM995.818 190.238C994.81 190.238 993.964 189.428 993.964 188.15C993.964 186.872 994.792 186.116 995.818 186.116C996.844 186.116 997.672 186.872 997.672 188.15C997.672 189.428 996.826 190.238 995.818 190.238ZM1001.94 194H1003.41V187.664C1004.29 186.782 1004.91 186.314 1005.81 186.314C1006.96 186.314 1007.46 187.016 1007.46 188.654V194H1008.94V188.456C1008.94 186.224 1008.11 185.036 1006.27 185.036C1005.07 185.036 1004.19 185.684 1003.36 186.476L1003.41 184.676V181.184H1001.94V194ZM1011.73 194H1012.91L1013.04 193.136H1013.09C1013.87 193.82 1014.79 194.216 1015.6 194.216C1017.59 194.216 1019.38 192.47 1019.38 189.482C1019.38 186.782 1018.17 185.036 1015.9 185.036C1014.93 185.036 1013.96 185.558 1013.17 186.26L1013.2 184.676V181.184H1011.73V194ZM1013.2 192.056V187.466C1014.03 186.692 1014.8 186.278 1015.54 186.278C1017.2 186.278 1017.85 187.574 1017.85 189.5C1017.85 191.66 1016.78 192.974 1015.34 192.974C1014.77 192.974 1013.98 192.722 1013.2 192.056ZM1021.06 189.644C1021.06 192.542 1022.97 194.216 1025.11 194.216C1027.26 194.216 1029.16 192.542 1029.16 189.644C1029.16 186.71 1027.26 185.036 1025.11 185.036C1022.97 185.036 1021.06 186.71 1021.06 189.644ZM1022.59 189.644C1022.59 187.628 1023.62 186.26 1025.11 186.26C1026.63 186.26 1027.63 187.628 1027.63 189.644C1027.63 191.642 1026.63 192.992 1025.11 192.992C1023.62 192.992 1022.59 191.642 1022.59 189.644ZM1031.47 194H1032.94V188.384C1033.54 186.908 1034.42 186.368 1035.16 186.368C1035.52 186.368 1035.72 186.422 1036 186.512L1036.29 185.216C1036 185.09 1035.73 185.036 1035.36 185.036C1034.37 185.036 1033.47 185.738 1032.87 186.836H1032.82L1032.69 185.252H1031.47V194ZM1037.71 194H1039.18V187.664C1040.07 186.782 1040.68 186.314 1041.58 186.314C1042.73 186.314 1043.23 187.016 1043.23 188.654V194H1044.71V188.456C1044.71 186.224 1043.88 185.036 1042.05 185.036C1040.84 185.036 1039.96 185.684 1039.13 186.476L1039.18 184.676V181.184H1037.71V194ZM1046.85 189.644C1046.85 192.542 1048.76 194.216 1050.9 194.216C1053.04 194.216 1054.95 192.542 1054.95 189.644C1054.95 186.71 1053.04 185.036 1050.9 185.036C1048.76 185.036 1046.85 186.71 1046.85 189.644ZM1048.38 189.644C1048.38 187.628 1049.41 186.26 1050.9 186.26C1052.41 186.26 1053.42 187.628 1053.42 189.644C1053.42 191.642 1052.41 192.992 1050.9 192.992C1049.41 192.992 1048.38 191.642 1048.38 189.644ZM1056.61 189.644C1056.61 192.542 1058.51 194.216 1060.66 194.216C1062.8 194.216 1064.71 192.542 1064.71 189.644C1064.71 186.71 1062.8 185.036 1060.66 185.036C1058.51 185.036 1056.61 186.71 1056.61 189.644ZM1058.14 189.644C1058.14 187.628 1059.16 186.26 1060.66 186.26C1062.17 186.26 1063.18 187.628 1063.18 189.644C1063.18 191.642 1062.17 192.992 1060.66 192.992C1059.16 192.992 1058.14 191.642 1058.14 189.644ZM1066.38 189.644C1066.38 192.56 1067.8 194.216 1070 194.216C1071.02 194.216 1071.96 193.64 1072.64 192.974H1072.7L1072.82 194H1074.05V181.184H1072.55V184.55L1072.63 186.044C1071.85 185.414 1071.19 185.036 1070.18 185.036C1068.18 185.036 1066.38 186.8 1066.38 189.644ZM1067.91 189.626C1067.91 187.628 1069.03 186.278 1070.43 186.278C1071.15 186.278 1071.82 186.53 1072.55 187.196V191.768C1071.83 192.578 1071.13 192.974 1070.32 192.974C1068.79 192.974 1067.91 191.714 1067.91 189.626ZM962.554 217H964.066V211.438H969.556V217H971.05V205.192H969.556V210.142H964.066V205.192H962.554V217ZM973.471 212.644C973.471 215.506 975.325 217.216 977.665 217.216C978.853 217.216 979.789 216.802 980.545 216.316L980.023 215.344C979.375 215.758 978.673 216.028 977.845 216.028C976.171 216.028 975.037 214.84 974.929 212.95H980.833C980.869 212.734 980.887 212.446 980.887 212.14C980.887 209.638 979.627 208.036 977.395 208.036C975.397 208.036 973.471 209.782 973.471 212.644ZM974.911 211.978C975.091 210.214 976.207 209.206 977.431 209.206C978.799 209.206 979.591 210.196 979.591 211.978H974.911ZM982.37 214.732C982.37 216.298 983.468 217.216 984.944 217.216C986.024 217.216 986.996 216.64 987.842 215.956H987.878L988.004 217H989.228V211.636C989.228 209.458 988.328 208.036 986.186 208.036C984.782 208.036 983.558 208.648 982.748 209.17L983.342 210.196C984.026 209.728 984.926 209.26 985.952 209.26C987.374 209.26 987.752 210.34 987.752 211.456C984.026 211.87 982.37 212.824 982.37 214.732ZM983.828 214.624C983.828 213.508 984.818 212.788 987.752 212.428V214.858C986.906 215.614 986.204 216.028 985.358 216.028C984.494 216.028 983.828 215.614 983.828 214.624ZM992.013 215.236C992.013 216.514 992.463 217.216 993.579 217.216C993.975 217.216 994.227 217.162 994.425 217.072L994.227 215.956C994.065 215.992 993.993 215.992 993.903 215.992C993.687 215.992 993.489 215.812 993.489 215.344V204.184H992.013V215.236ZM996.853 214.3C996.853 216.028 997.483 217.216 999.355 217.216C999.895 217.216 1000.49 217.054 1000.98 216.892L1000.69 215.776C1000.4 215.884 1000 216.01 999.697 216.01C998.689 216.01 998.347 215.398 998.347 214.318V209.458H1000.71V208.252H998.347V205.804H997.105L996.925 208.252L995.557 208.342V209.458H996.853V214.3ZM1002.68 217H1004.16V210.664C1005.04 209.782 1005.65 209.314 1006.55 209.314C1007.71 209.314 1008.21 210.016 1008.21 211.654V217H1009.69V211.456C1009.69 209.224 1008.86 208.036 1007.02 208.036C1005.82 208.036 1004.93 208.684 1004.11 209.476L1004.16 207.676V204.184H1002.68V217ZM1015.36 215.47C1016.38 216.532 1017.82 217.216 1019.48 217.216C1021.96 217.216 1023.51 215.722 1023.51 213.85C1023.51 212.104 1022.45 211.294 1021.08 210.7L1019.39 209.98C1018.47 209.584 1017.43 209.152 1017.43 208.018C1017.43 206.956 1018.31 206.29 1019.64 206.29C1020.72 206.29 1021.6 206.722 1022.32 207.406L1023.11 206.434C1022.29 205.57 1021.04 204.976 1019.64 204.976C1017.5 204.976 1015.91 206.308 1015.91 208.108C1015.91 209.836 1017.21 210.682 1018.31 211.15L1020 211.888C1021.12 212.392 1021.98 212.77 1021.98 213.976C1021.98 215.128 1021.06 215.902 1019.51 215.902C1018.27 215.902 1017.1 215.308 1016.26 214.426L1015.36 215.47ZM1024.99 212.644C1024.99 215.506 1026.85 217.216 1029.19 217.216C1030.37 217.216 1031.31 216.802 1032.07 216.316L1031.54 215.344C1030.9 215.758 1030.19 216.028 1029.37 216.028C1027.69 216.028 1026.56 214.84 1026.45 212.95H1032.35C1032.39 212.734 1032.41 212.446 1032.41 212.14C1032.41 209.638 1031.15 208.036 1028.92 208.036C1026.92 208.036 1024.99 209.782 1024.99 212.644ZM1026.43 211.978C1026.61 210.214 1027.73 209.206 1028.95 209.206C1030.32 209.206 1031.11 210.196 1031.11 211.978H1026.43ZM1034.57 217H1036.05V211.384C1036.64 209.908 1037.52 209.368 1038.26 209.368C1038.62 209.368 1038.82 209.422 1039.11 209.512L1039.39 208.216C1039.11 208.09 1038.84 208.036 1038.46 208.036C1037.47 208.036 1036.57 208.738 1035.97 209.836H1035.92L1035.79 208.252H1034.57V217ZM1043.03 217H1044.76L1047.86 208.252H1046.4L1044.74 213.22C1044.49 214.084 1044.2 214.966 1043.95 215.794H1043.88C1043.61 214.966 1043.32 214.084 1043.07 213.22L1041.41 208.252H1039.88L1043.03 217ZM1050.3 206.452C1050.88 206.452 1051.33 206.056 1051.33 205.498C1051.33 204.922 1050.88 204.544 1050.3 204.544C1049.73 204.544 1049.28 204.922 1049.28 205.498C1049.28 206.056 1049.73 206.452 1050.3 206.452ZM1049.55 217H1051.02V208.252H1049.55V217ZM1053.33 212.644C1053.33 215.542 1055.11 217.216 1057.43 217.216C1058.48 217.216 1059.48 216.784 1060.28 216.082L1059.61 215.11C1059.09 215.578 1058.39 215.992 1057.56 215.992C1055.96 215.992 1054.86 214.642 1054.86 212.644C1054.86 210.628 1056.01 209.26 1057.59 209.26C1058.3 209.26 1058.84 209.584 1059.36 210.034L1060.1 209.08C1059.5 208.522 1058.69 208.036 1057.54 208.036C1055.29 208.036 1053.33 209.71 1053.33 212.644ZM1061.15 212.644C1061.15 215.506 1063 217.216 1065.34 217.216C1066.53 217.216 1067.47 216.802 1068.22 216.316L1067.7 215.344C1067.05 215.758 1066.35 216.028 1065.52 216.028C1063.85 216.028 1062.72 214.84 1062.61 212.95H1068.51C1068.55 212.734 1068.57 212.446 1068.57 212.14C1068.57 209.638 1067.31 208.036 1065.07 208.036C1063.08 208.036 1061.15 209.782 1061.15 212.644ZM1062.59 211.978C1062.77 210.214 1063.89 209.206 1065.11 209.206C1066.48 209.206 1067.27 210.196 1067.27 211.978H1062.59Z" fill="black"/>
</g>
<defs>
<filter id="filter0_d_1_24" x="-6" y="-7" width="282" height="322" filterUnits="userSpaceOnUse" color-interpolation-filters="sRGB">
<feFlood flood-opacity="0" result="BackgroundImageFix"/>
<feColorMatrix in="SourceAlpha" type="matrix" values="0 0 0 0 0 0 0 0 0 0 0 0 0 0 0 0 0 0 127 0" result="hardAlpha"/>
<feOffset dx="2" dy="4"/>
<feGaussianBlur stdDeviation="12.5"/>
<feColorMatrix type="matrix" values="0 0 0 0 0 0 0 0 0 0 0 0 0 0 0 0 0 0 0.15 0"/>
<feBlend mode="normal" in2="BackgroundImageFix" result="effect1_dropShadow_1_24"/>
<feBlend mode="normal" in="SourceGraphic" in2="effect1_dropShadow_1_24" result="shape"/>
</filter>
<filter id="filter1_d_1_24" x="290" y="-7" width="282" height="322" filterUnits="userSpaceOnUse" color-interpolation-filters="sRGB">
<feFlood flood-opacity="0" result="BackgroundImageFix"/>
<feColorMatrix in="SourceAlpha" type="matrix" values="0 0 0 0 0 0 0 0 0 0 0 0 0 0 0 0 0 0 127 0" result="hardAlpha"/>
<feOffset dx="2" dy="4"/>
<feGaussianBlur stdDeviation="12.5"/>
<feColorMatrix type="matrix" values="0 0 0 0 0 0 0 0 0 0 0 0 0 0 0 0 0 0 0.15 0"/>
<feBlend mode="normal" in2="BackgroundImageFix" result="effect1_dropShadow_1_24"/>
<feBlend mode="normal" in="SourceGraphic" in2="effect1_dropShadow_1_24" result="shape"/>
</filter>
<filter id="filter2_d_1_24" x="586" y="-7" width="282" height="322" filterUnits="userSpaceOnUse" color-interpolation-filters="sRGB">
<feFlood flood-opacity="0" result="BackgroundImageFix"/>
<feColorMatrix in="SourceAlpha" type="matrix" values="0 0 0 0 0 0 0 0 0 0 0 0 0 0 0 0 0 0 127 0" result="hardAlpha"/>
<feOffset dx="2" dy="4"/>
<feGaussianBlur stdDeviation="12.5"/>
<feColorMatrix type="matrix" values="0 0 0 0 0 0 0 0 0 0 0 0 0 0 0 0 0 0 0.15 0"/>
<feBlend mode="normal" in2="BackgroundImageFix" result="effect1_dropShadow_1_24"/>
<feBlend mode="normal" in="SourceGraphic" in2="effect1_dropShadow_1_24" result="shape"/>
</filter>
<filter id="filter3_d_1_24" x="882" y="-7" width="282" height="322" filterUnits="userSpaceOnUse" color-interpolation-filters="sRGB">
<feFlood flood-opacity="0" result="BackgroundImageFix"/>
<feColorMatrix in="SourceAlpha" type="matrix" values="0 0 0 0 0 0 0 0 0 0 0 0 0 0 0 0 0 0 127 0" result="hardAlpha"/>
<feOffset dx="2" dy="4"/>
<feGaussianBlur stdDeviation="12.5"/>
<feColorMatrix type="matrix" values="0 0 0 0 0 0 0 0 0 0 0 0 0 0 0 0 0 0 0.15 0"/>
<feBlend mode="normal" in2="BackgroundImageFix" result="effect1_dropShadow_1_24"/>
<feBlend mode="normal" in="SourceGraphic" in2="effect1_dropShadow_1_24" result="shape"/>
</filter>
<clipPath id="clip0_1_24">
<rect width="72" height="72" fill="white" transform="translate(97 86)"/>
</clipPath>
<clipPath id="clip1_1_24">
<rect width="72" height="72" fill="white" transform="translate(689 86)"/>
</clipPath>
<clipPath id="clip2_1_24">
<rect width="72" height="72" fill="white" transform="translate(985 86)"/>
</clipPath>
</defs>
</svg>
