<svg width="443" height="278" viewBox="0 0 443 278" fill="none" xmlns="http://www.w3.org/2000/svg">
<circle cx="138.613" cy="139" r="138.613" fill="#FF4081"/>
<circle cx="304.387" cy="138.613" r="138.613" fill="#06A2DB"/>
<path fill-rule="evenodd" clip-rule="evenodd" d="M220.564 249.769C254.391 224.494 276.29 184.133 276.29 138.658C276.29 93.1828 254.391 52.8224 220.564 27.5469C186.736 52.8224 164.838 93.1828 164.838 138.658C164.838 184.133 186.736 224.494 220.564 249.769Z" fill="#03516E"/>
<path d="M50.9344 144.999V133.299H54.0304V137.655H57.5224V133.299H60.6184V144.999H57.5224V140.355H54.0304V144.999H50.9344ZM67.128 145.215C66.468 145.215 65.856 145.113 65.292 144.909C64.728 144.693 64.236 144.387 63.816 143.991C63.408 143.583 63.084 143.085 62.844 142.497C62.604 141.909 62.484 141.243 62.484 140.499C62.484 139.767 62.604 139.113 62.844 138.537C63.096 137.949 63.42 137.451 63.816 137.043C64.224 136.635 64.686 136.323 65.202 136.107C65.718 135.891 66.252 135.783 66.804 135.783C67.464 135.783 68.04 135.897 68.532 136.125C69.024 136.353 69.432 136.665 69.756 137.061C70.08 137.457 70.32 137.919 70.476 138.447C70.644 138.975 70.728 139.539 70.728 140.139C70.728 140.415 70.71 140.673 70.674 140.913C70.65 141.153 70.626 141.327 70.602 141.435H65.472C65.616 141.975 65.874 142.353 66.246 142.569C66.618 142.773 67.056 142.875 67.56 142.875C67.872 142.875 68.172 142.833 68.46 142.749C68.76 142.653 69.072 142.515 69.396 142.335L70.404 144.171C69.912 144.519 69.366 144.783 68.766 144.963C68.178 145.131 67.632 145.215 67.128 145.215ZM65.436 139.419H68.1C68.1 139.071 68.01 138.771 67.83 138.519C67.662 138.255 67.344 138.123 66.876 138.123C66.528 138.123 66.222 138.225 65.958 138.429C65.706 138.633 65.532 138.963 65.436 139.419ZM74.5908 145.215C74.1708 145.215 73.7928 145.143 73.4568 144.999C73.1208 144.843 72.8328 144.639 72.5928 144.387C72.3648 144.135 72.1908 143.841 72.0708 143.505C71.9508 143.169 71.8908 142.815 71.8908 142.443C71.8908 141.507 72.2748 140.775 73.0428 140.247C73.8108 139.707 75.0588 139.347 76.7868 139.167C76.7148 138.543 76.2948 138.231 75.5268 138.231C75.2028 138.231 74.8608 138.297 74.5008 138.429C74.1408 138.549 73.7268 138.735 73.2588 138.987L72.1788 136.971C72.8148 136.587 73.4568 136.293 74.1048 136.089C74.7528 135.885 75.4308 135.783 76.1388 135.783C77.3028 135.783 78.2148 136.119 78.8748 136.791C79.5468 137.451 79.8828 138.519 79.8828 139.995V144.999H77.3628L77.1468 144.135H77.0748C76.7148 144.459 76.3308 144.723 75.9228 144.927C75.5268 145.119 75.0828 145.215 74.5908 145.215ZM75.6708 142.839C75.9228 142.839 76.1268 142.785 76.2828 142.677C76.4508 142.557 76.6188 142.407 76.7868 142.227V141.003C76.0428 141.111 75.5328 141.273 75.2568 141.489C74.9808 141.705 74.8428 141.939 74.8428 142.191C74.8428 142.623 75.1188 142.839 75.6708 142.839ZM84.6732 145.215C84.1452 145.215 83.7012 145.137 83.3412 144.981C82.9932 144.813 82.7112 144.579 82.4952 144.279C82.2792 143.979 82.1232 143.625 82.0272 143.217C81.9432 142.797 81.9012 142.335 81.9012 141.831V132.471H84.9972V141.939C84.9972 142.251 85.0512 142.461 85.1592 142.569C85.2792 142.677 85.3932 142.731 85.5012 142.731C85.5612 142.731 85.6092 142.731 85.6452 142.731C85.6932 142.731 85.7532 142.719 85.8252 142.695L86.1852 144.963C86.0172 145.035 85.8072 145.095 85.5552 145.143C85.3152 145.191 85.0212 145.215 84.6732 145.215ZM90.9705 145.215C90.3825 145.215 89.8785 145.131 89.4585 144.963C89.0505 144.783 88.7085 144.531 88.4325 144.207C88.1685 143.883 87.9705 143.499 87.8385 143.055C87.7185 142.599 87.6585 142.095 87.6585 141.543V138.411H86.4705V136.107L87.8385 135.999L88.1985 133.659H90.7545V135.999H92.8065V138.411H90.7545V141.489C90.7545 141.993 90.8625 142.341 91.0785 142.533C91.2945 142.713 91.5465 142.803 91.8345 142.803C91.9785 142.803 92.1165 142.791 92.2485 142.767C92.3925 142.731 92.5185 142.695 92.6265 142.659L93.0945 144.891C92.8545 144.963 92.5665 145.035 92.2305 145.107C91.8945 145.179 91.4745 145.215 90.9705 145.215ZM94.4695 144.999V132.471H97.5655V135.387L97.4215 136.935C97.7335 136.659 98.1055 136.401 98.5375 136.161C98.9815 135.909 99.5095 135.783 100.122 135.783C101.106 135.783 101.82 136.119 102.264 136.791C102.708 137.451 102.93 138.339 102.93 139.455V144.999H99.8335V139.851C99.8335 139.275 99.7615 138.891 99.6175 138.699C99.4735 138.507 99.2455 138.411 98.9335 138.411C98.6455 138.411 98.4055 138.471 98.2135 138.591C98.0215 138.711 97.8055 138.879 97.5655 139.095V144.999H94.4695ZM109.014 145.215C108.378 145.215 107.784 145.113 107.232 144.909C106.68 144.693 106.2 144.387 105.792 143.991C105.384 143.583 105.06 143.085 104.82 142.497C104.592 141.909 104.478 141.243 104.478 140.499C104.478 139.755 104.61 139.089 104.874 138.501C105.138 137.913 105.492 137.421 105.936 137.025C106.38 136.617 106.89 136.311 107.466 136.107C108.054 135.891 108.666 135.783 109.302 135.783C109.842 135.783 110.328 135.867 110.76 136.035C111.192 136.203 111.582 136.431 111.93 136.719L110.49 138.699C110.286 138.531 110.106 138.417 109.95 138.357C109.806 138.297 109.65 138.267 109.482 138.267C108.906 138.267 108.456 138.471 108.132 138.879C107.808 139.275 107.646 139.815 107.646 140.499C107.646 141.183 107.808 141.729 108.132 142.137C108.468 142.533 108.882 142.731 109.374 142.731C109.626 142.731 109.872 142.677 110.112 142.569C110.364 142.461 110.598 142.323 110.814 142.155L112.002 144.171C111.546 144.567 111.048 144.843 110.508 144.999C109.98 145.143 109.482 145.215 109.014 145.215ZM115.601 145.215C115.181 145.215 114.803 145.143 114.467 144.999C114.131 144.843 113.843 144.639 113.603 144.387C113.375 144.135 113.201 143.841 113.081 143.505C112.961 143.169 112.901 142.815 112.901 142.443C112.901 141.507 113.285 140.775 114.053 140.247C114.821 139.707 116.069 139.347 117.797 139.167C117.725 138.543 117.305 138.231 116.537 138.231C116.213 138.231 115.871 138.297 115.511 138.429C115.151 138.549 114.737 138.735 114.269 138.987L113.189 136.971C113.825 136.587 114.467 136.293 115.115 136.089C115.763 135.885 116.441 135.783 117.149 135.783C118.313 135.783 119.225 136.119 119.885 136.791C120.557 137.451 120.893 138.519 120.893 139.995V144.999H118.373L118.157 144.135H118.085C117.725 144.459 117.341 144.723 116.933 144.927C116.537 145.119 116.093 145.215 115.601 145.215ZM116.681 142.839C116.933 142.839 117.137 142.785 117.293 142.677C117.461 142.557 117.629 142.407 117.797 142.227V141.003C117.053 141.111 116.543 141.273 116.267 141.489C115.991 141.705 115.853 141.939 115.853 142.191C115.853 142.623 116.129 142.839 116.681 142.839ZM122.911 144.999V135.999H125.431L125.647 137.547H125.719C126.055 136.935 126.451 136.491 126.907 136.215C127.375 135.927 127.831 135.783 128.275 135.783C128.551 135.783 128.773 135.801 128.941 135.837C129.109 135.861 129.259 135.903 129.391 135.963L128.887 138.627C128.719 138.591 128.557 138.561 128.401 138.537C128.257 138.501 128.083 138.483 127.879 138.483C127.555 138.483 127.213 138.597 126.853 138.825C126.505 139.041 126.223 139.431 126.007 139.995V144.999H122.911ZM134.435 145.215C133.775 145.215 133.163 145.113 132.599 144.909C132.035 144.693 131.543 144.387 131.123 143.991C130.715 143.583 130.391 143.085 130.151 142.497C129.911 141.909 129.791 141.243 129.791 140.499C129.791 139.767 129.911 139.113 130.151 138.537C130.403 137.949 130.727 137.451 131.123 137.043C131.531 136.635 131.993 136.323 132.509 136.107C133.025 135.891 133.559 135.783 134.111 135.783C134.771 135.783 135.347 135.897 135.839 136.125C136.331 136.353 136.739 136.665 137.063 137.061C137.387 137.457 137.627 137.919 137.783 138.447C137.951 138.975 138.035 139.539 138.035 140.139C138.035 140.415 138.017 140.673 137.981 140.913C137.957 141.153 137.933 141.327 137.909 141.435H132.779C132.923 141.975 133.181 142.353 133.553 142.569C133.925 142.773 134.363 142.875 134.867 142.875C135.179 142.875 135.479 142.833 135.767 142.749C136.067 142.653 136.379 142.515 136.703 142.335L137.711 144.171C137.219 144.519 136.673 144.783 136.073 144.963C135.485 145.131 134.939 145.215 134.435 145.215ZM132.743 139.419H135.407C135.407 139.071 135.317 138.771 135.137 138.519C134.969 138.255 134.651 138.123 134.183 138.123C133.835 138.123 133.529 138.225 133.265 138.429C133.013 138.633 132.839 138.963 132.743 139.419Z" fill="white"/>
<path d="M307.915 145V135.892H304.819V133.3H314.107V135.892H311.011V145H307.915ZM318.325 145.216C317.665 145.216 317.053 145.114 316.489 144.91C315.925 144.694 315.433 144.388 315.013 143.992C314.605 143.584 314.281 143.086 314.041 142.498C313.801 141.91 313.681 141.244 313.681 140.5C313.681 139.768 313.801 139.114 314.041 138.538C314.293 137.95 314.617 137.452 315.013 137.044C315.421 136.636 315.883 136.324 316.399 136.108C316.915 135.892 317.449 135.784 318.001 135.784C318.661 135.784 319.237 135.898 319.729 136.126C320.221 136.354 320.629 136.666 320.953 137.062C321.277 137.458 321.517 137.92 321.673 138.448C321.841 138.976 321.925 139.54 321.925 140.14C321.925 140.416 321.907 140.674 321.871 140.914C321.847 141.154 321.823 141.328 321.799 141.436H316.669C316.813 141.976 317.071 142.354 317.443 142.57C317.815 142.774 318.253 142.876 318.757 142.876C319.069 142.876 319.369 142.834 319.657 142.75C319.957 142.654 320.269 142.516 320.593 142.336L321.601 144.172C321.109 144.52 320.563 144.784 319.963 144.964C319.375 145.132 318.829 145.216 318.325 145.216ZM316.633 139.42H319.297C319.297 139.072 319.207 138.772 319.027 138.52C318.859 138.256 318.541 138.124 318.073 138.124C317.725 138.124 317.419 138.226 317.155 138.43C316.903 138.634 316.729 138.964 316.633 139.42ZM327.692 145.216C327.056 145.216 326.462 145.114 325.91 144.91C325.358 144.694 324.878 144.388 324.47 143.992C324.062 143.584 323.738 143.086 323.498 142.498C323.27 141.91 323.156 141.244 323.156 140.5C323.156 139.756 323.288 139.09 323.552 138.502C323.816 137.914 324.17 137.422 324.614 137.026C325.058 136.618 325.568 136.312 326.144 136.108C326.732 135.892 327.344 135.784 327.98 135.784C328.52 135.784 329.006 135.868 329.438 136.036C329.87 136.204 330.26 136.432 330.608 136.72L329.168 138.7C328.964 138.532 328.784 138.418 328.628 138.358C328.484 138.298 328.328 138.268 328.16 138.268C327.584 138.268 327.134 138.472 326.81 138.88C326.486 139.276 326.324 139.816 326.324 140.5C326.324 141.184 326.486 141.73 326.81 142.138C327.146 142.534 327.56 142.732 328.052 142.732C328.304 142.732 328.55 142.678 328.79 142.57C329.042 142.462 329.276 142.324 329.492 142.156L330.68 144.172C330.224 144.568 329.726 144.844 329.186 145C328.658 145.144 328.16 145.216 327.692 145.216ZM332.114 145V132.472H335.21V135.388L335.066 136.936C335.378 136.66 335.75 136.402 336.182 136.162C336.626 135.91 337.154 135.784 337.766 135.784C338.75 135.784 339.464 136.12 339.908 136.792C340.352 137.452 340.574 138.34 340.574 139.456V145H337.478V139.852C337.478 139.276 337.406 138.892 337.262 138.7C337.118 138.508 336.89 138.412 336.578 138.412C336.29 138.412 336.05 138.472 335.858 138.592C335.666 138.712 335.45 138.88 335.21 139.096V145H332.114ZM342.591 145V136H345.111L345.327 137.08H345.399C345.759 136.732 346.167 136.432 346.623 136.18C347.091 135.916 347.631 135.784 348.243 135.784C349.227 135.784 349.941 136.12 350.385 136.792C350.829 137.452 351.051 138.34 351.051 139.456V145H347.955V139.852C347.955 139.276 347.883 138.892 347.739 138.7C347.595 138.508 347.367 138.412 347.055 138.412C346.767 138.412 346.527 138.472 346.335 138.592C346.143 138.712 345.927 138.88 345.687 139.096V145H342.591ZM357.063 145.216C356.487 145.216 355.929 145.114 355.389 144.91C354.849 144.694 354.369 144.388 353.949 143.992C353.541 143.584 353.211 143.086 352.959 142.498C352.719 141.91 352.599 141.244 352.599 140.5C352.599 139.756 352.719 139.09 352.959 138.502C353.211 137.914 353.541 137.422 353.949 137.026C354.369 136.618 354.849 136.312 355.389 136.108C355.929 135.892 356.487 135.784 357.063 135.784C357.639 135.784 358.191 135.892 358.719 136.108C359.259 136.312 359.733 136.618 360.141 137.026C360.561 137.422 360.897 137.914 361.149 138.502C361.401 139.09 361.527 139.756 361.527 140.5C361.527 141.244 361.401 141.91 361.149 142.498C360.897 143.086 360.561 143.584 360.141 143.992C359.733 144.388 359.259 144.694 358.719 144.91C358.191 145.114 357.639 145.216 357.063 145.216ZM357.063 142.732C357.531 142.732 357.861 142.534 358.053 142.138C358.257 141.73 358.359 141.184 358.359 140.5C358.359 139.816 358.257 139.276 358.053 138.88C357.861 138.472 357.531 138.268 357.063 138.268C356.595 138.268 356.259 138.472 356.055 138.88C355.863 139.276 355.767 139.816 355.767 140.5C355.767 141.184 355.863 141.73 356.055 142.138C356.259 142.534 356.595 142.732 357.063 142.732ZM365.912 145.216C365.384 145.216 364.94 145.138 364.58 144.982C364.232 144.814 363.95 144.58 363.734 144.28C363.518 143.98 363.362 143.626 363.266 143.218C363.182 142.798 363.14 142.336 363.14 141.832V132.472H366.236V141.94C366.236 142.252 366.29 142.462 366.398 142.57C366.518 142.678 366.632 142.732 366.74 142.732C366.8 142.732 366.848 142.732 366.884 142.732C366.932 142.732 366.992 142.72 367.064 142.696L367.424 144.964C367.256 145.036 367.046 145.096 366.794 145.144C366.554 145.192 366.26 145.216 365.912 145.216ZM372.497 145.216C371.921 145.216 371.363 145.114 370.823 144.91C370.283 144.694 369.803 144.388 369.383 143.992C368.975 143.584 368.645 143.086 368.393 142.498C368.153 141.91 368.033 141.244 368.033 140.5C368.033 139.756 368.153 139.09 368.393 138.502C368.645 137.914 368.975 137.422 369.383 137.026C369.803 136.618 370.283 136.312 370.823 136.108C371.363 135.892 371.921 135.784 372.497 135.784C373.073 135.784 373.625 135.892 374.153 136.108C374.693 136.312 375.167 136.618 375.575 137.026C375.995 137.422 376.331 137.914 376.583 138.502C376.835 139.09 376.961 139.756 376.961 140.5C376.961 141.244 376.835 141.91 376.583 142.498C376.331 143.086 375.995 143.584 375.575 143.992C375.167 144.388 374.693 144.694 374.153 144.91C373.625 145.114 373.073 145.216 372.497 145.216ZM372.497 142.732C372.965 142.732 373.295 142.534 373.487 142.138C373.691 141.73 373.793 141.184 373.793 140.5C373.793 139.816 373.691 139.276 373.487 138.88C373.295 138.472 372.965 138.268 372.497 138.268C372.029 138.268 371.693 138.472 371.489 138.88C371.297 139.276 371.201 139.816 371.201 140.5C371.201 141.184 371.297 141.73 371.489 142.138C371.693 142.534 372.029 142.732 372.497 142.732ZM381.849 148.708C381.333 148.708 380.847 148.666 380.391 148.582C379.935 148.51 379.533 148.384 379.185 148.204C378.849 148.024 378.579 147.79 378.375 147.502C378.171 147.226 378.069 146.884 378.069 146.476C378.069 145.768 378.489 145.192 379.329 144.748V144.676C379.089 144.508 378.891 144.304 378.735 144.064C378.579 143.824 378.501 143.512 378.501 143.128C378.501 142.816 378.591 142.51 378.771 142.21C378.951 141.91 379.197 141.652 379.509 141.436V141.364C379.185 141.148 378.897 140.842 378.645 140.446C378.405 140.05 378.285 139.588 378.285 139.06C378.285 138.508 378.393 138.028 378.609 137.62C378.825 137.2 379.113 136.858 379.473 136.594C379.833 136.318 380.241 136.114 380.697 135.982C381.165 135.85 381.645 135.784 382.137 135.784C382.665 135.784 383.145 135.856 383.577 136H386.925V138.232H385.629C385.665 138.34 385.695 138.478 385.719 138.646C385.755 138.814 385.773 138.988 385.773 139.168C385.773 139.696 385.677 140.152 385.485 140.536C385.293 140.908 385.035 141.214 384.711 141.454C384.387 141.694 384.003 141.874 383.559 141.994C383.115 142.102 382.641 142.156 382.137 142.156C381.837 142.156 381.501 142.114 381.129 142.03C381.033 142.114 380.973 142.192 380.949 142.264C380.925 142.324 380.913 142.42 380.913 142.552C380.913 142.756 381.009 142.9 381.201 142.984C381.393 143.056 381.717 143.092 382.173 143.092H383.523C384.651 143.092 385.521 143.278 386.133 143.65C386.757 144.01 387.069 144.604 387.069 145.432C387.069 145.924 386.943 146.368 386.691 146.764C386.451 147.172 386.103 147.52 385.647 147.808C385.203 148.096 384.657 148.318 384.009 148.474C383.373 148.63 382.653 148.708 381.849 148.708ZM382.137 140.32C382.425 140.32 382.659 140.218 382.839 140.014C383.019 139.81 383.109 139.492 383.109 139.06C383.109 138.64 383.019 138.334 382.839 138.142C382.659 137.938 382.425 137.836 382.137 137.836C381.849 137.836 381.615 137.938 381.435 138.142C381.255 138.334 381.165 138.64 381.165 139.06C381.165 139.492 381.255 139.81 381.435 140.014C381.615 140.218 381.849 140.32 382.137 140.32ZM382.353 146.8C382.857 146.8 383.277 146.722 383.613 146.566C383.949 146.422 384.117 146.224 384.117 145.972C384.117 145.732 384.009 145.582 383.793 145.522C383.589 145.462 383.295 145.432 382.911 145.432H382.209C381.849 145.432 381.573 145.42 381.381 145.396C381.201 145.384 381.045 145.36 380.913 145.324C380.805 145.432 380.721 145.534 380.661 145.63C380.613 145.726 380.589 145.84 380.589 145.972C380.589 146.26 380.751 146.47 381.075 146.602C381.399 146.734 381.825 146.8 382.353 146.8ZM389.731 148.384C389.419 148.384 389.161 148.366 388.957 148.33C388.765 148.306 388.567 148.264 388.363 148.204L388.903 145.864C388.987 145.888 389.077 145.912 389.173 145.936C389.281 145.96 389.383 145.972 389.479 145.972C389.899 145.972 390.211 145.888 390.415 145.72C390.631 145.564 390.787 145.348 390.883 145.072L390.991 144.676L387.571 136H390.667L391.747 139.456C391.879 139.876 391.993 140.296 392.089 140.716C392.185 141.124 392.287 141.556 392.395 142.012H392.467C392.563 141.58 392.653 141.154 392.737 140.734C392.833 140.314 392.935 139.888 393.043 139.456L393.943 136H396.895L393.871 144.856C393.631 145.468 393.385 145.996 393.133 146.44C392.893 146.884 392.611 147.25 392.287 147.538C391.963 147.826 391.591 148.036 391.171 148.168C390.763 148.312 390.283 148.384 389.731 148.384Z" fill="white"/>
<path d="M188.528 154.216C187.784 154.216 187.016 154.084 186.224 153.82C185.444 153.544 184.736 153.118 184.1 152.542L185.864 150.418C186.284 150.754 186.734 151.03 187.214 151.246C187.706 151.45 188.168 151.552 188.6 151.552C189.068 151.552 189.404 151.48 189.608 151.336C189.824 151.192 189.932 150.988 189.932 150.724C189.932 150.58 189.896 150.46 189.824 150.364C189.752 150.268 189.644 150.178 189.5 150.094C189.368 150.01 189.206 149.932 189.014 149.86C188.822 149.776 188.6 149.686 188.348 149.59L186.89 148.978C186.578 148.858 186.278 148.702 185.99 148.51C185.702 148.306 185.45 148.072 185.234 147.808C185.018 147.532 184.844 147.22 184.712 146.872C184.592 146.524 184.532 146.14 184.532 145.72C184.532 145.216 184.64 144.748 184.856 144.316C185.072 143.872 185.372 143.488 185.756 143.164C186.14 142.828 186.596 142.564 187.124 142.372C187.664 142.18 188.252 142.084 188.888 142.084C189.56 142.084 190.238 142.21 190.922 142.462C191.618 142.714 192.236 143.11 192.776 143.65L191.228 145.594C190.832 145.318 190.448 145.108 190.076 144.964C189.716 144.82 189.32 144.748 188.888 144.748C188.504 144.748 188.204 144.814 187.988 144.946C187.772 145.078 187.664 145.276 187.664 145.54C187.664 145.816 187.814 146.032 188.114 146.188C188.426 146.332 188.852 146.506 189.392 146.71L190.814 147.268C191.546 147.556 192.11 147.958 192.506 148.474C192.902 148.99 193.1 149.656 193.1 150.472C193.1 150.964 192.998 151.438 192.794 151.894C192.59 152.35 192.29 152.752 191.894 153.1C191.51 153.436 191.036 153.706 190.472 153.91C189.908 154.114 189.26 154.216 188.528 154.216ZM194.728 157.168V145H197.248L197.464 145.828H197.536C197.872 145.516 198.25 145.264 198.67 145.072C199.09 144.88 199.528 144.784 199.984 144.784C200.512 144.784 200.992 144.892 201.424 145.108C201.856 145.324 202.222 145.63 202.522 146.026C202.834 146.422 203.068 146.902 203.224 147.466C203.392 148.03 203.476 148.66 203.476 149.356C203.476 150.136 203.368 150.826 203.152 151.426C202.948 152.026 202.672 152.536 202.324 152.956C201.976 153.364 201.574 153.676 201.118 153.892C200.674 154.108 200.212 154.216 199.732 154.216C198.988 154.216 198.316 153.916 197.716 153.316L197.824 154.684V157.168H194.728ZM198.976 151.696C199.336 151.696 199.648 151.528 199.912 151.192C200.176 150.856 200.308 150.256 200.308 149.392C200.308 148.648 200.2 148.114 199.984 147.79C199.78 147.466 199.468 147.304 199.048 147.304C198.808 147.304 198.592 147.352 198.4 147.448C198.22 147.544 198.028 147.712 197.824 147.952V151.264C198.004 151.432 198.19 151.546 198.382 151.606C198.574 151.666 198.772 151.696 198.976 151.696ZM209.166 154.216C208.59 154.216 208.032 154.114 207.492 153.91C206.952 153.694 206.472 153.388 206.052 152.992C205.644 152.584 205.314 152.086 205.062 151.498C204.822 150.91 204.702 150.244 204.702 149.5C204.702 148.756 204.822 148.09 205.062 147.502C205.314 146.914 205.644 146.422 206.052 146.026C206.472 145.618 206.952 145.312 207.492 145.108C208.032 144.892 208.59 144.784 209.166 144.784C209.742 144.784 210.294 144.892 210.822 145.108C211.362 145.312 211.836 145.618 212.244 146.026C212.664 146.422 213 146.914 213.252 147.502C213.504 148.09 213.63 148.756 213.63 149.5C213.63 150.244 213.504 150.91 213.252 151.498C213 152.086 212.664 152.584 212.244 152.992C211.836 153.388 211.362 153.694 210.822 153.91C210.294 154.114 209.742 154.216 209.166 154.216ZM209.166 151.732C209.634 151.732 209.964 151.534 210.156 151.138C210.36 150.73 210.462 150.184 210.462 149.5C210.462 148.816 210.36 148.276 210.156 147.88C209.964 147.472 209.634 147.268 209.166 147.268C208.698 147.268 208.362 147.472 208.158 147.88C207.966 148.276 207.87 148.816 207.87 149.5C207.87 150.184 207.966 150.73 208.158 151.138C208.362 151.534 208.698 151.732 209.166 151.732ZM218.405 154.216C217.817 154.216 217.313 154.132 216.893 153.964C216.485 153.784 216.143 153.532 215.867 153.208C215.603 152.884 215.405 152.5 215.273 152.056C215.153 151.6 215.093 151.096 215.093 150.544V147.412H213.905V145.108L215.273 145L215.633 142.66H218.189V145H220.241V147.412H218.189V150.49C218.189 150.994 218.297 151.342 218.513 151.534C218.729 151.714 218.981 151.804 219.269 151.804C219.413 151.804 219.551 151.792 219.683 151.768C219.827 151.732 219.953 151.696 220.061 151.66L220.529 153.892C220.289 153.964 220.001 154.036 219.665 154.108C219.329 154.18 218.909 154.216 218.405 154.216ZM227.232 154.216C226.488 154.216 225.774 154.096 225.09 153.856C224.418 153.604 223.824 153.232 223.308 152.74C222.804 152.236 222.402 151.612 222.102 150.868C221.802 150.112 221.652 149.236 221.652 148.24C221.652 147.256 221.808 146.386 222.12 145.63C222.432 144.862 222.846 144.22 223.362 143.704C223.89 143.176 224.49 142.774 225.162 142.498C225.846 142.222 226.56 142.084 227.304 142.084C228.084 142.084 228.78 142.24 229.392 142.552C230.004 142.852 230.52 143.212 230.94 143.632L229.32 145.612C229.032 145.36 228.732 145.156 228.42 145C228.12 144.832 227.772 144.748 227.376 144.748C227.028 144.748 226.698 144.826 226.386 144.982C226.086 145.138 225.816 145.36 225.576 145.648C225.348 145.936 225.162 146.29 225.018 146.71C224.886 147.13 224.82 147.604 224.82 148.132C224.82 149.236 225.048 150.082 225.504 150.67C225.972 151.258 226.584 151.552 227.34 151.552C227.796 151.552 228.198 151.456 228.546 151.264C228.906 151.06 229.212 150.82 229.464 150.544L231.084 152.488C230.58 153.064 229.998 153.496 229.338 153.784C228.69 154.072 227.988 154.216 227.232 154.216ZM234.791 154.216C234.371 154.216 233.993 154.144 233.657 154C233.321 153.844 233.033 153.64 232.793 153.388C232.565 153.136 232.391 152.842 232.271 152.506C232.151 152.17 232.091 151.816 232.091 151.444C232.091 150.508 232.475 149.776 233.243 149.248C234.011 148.708 235.259 148.348 236.987 148.168C236.915 147.544 236.495 147.232 235.727 147.232C235.403 147.232 235.061 147.298 234.701 147.43C234.341 147.55 233.927 147.736 233.459 147.988L232.379 145.972C233.015 145.588 233.657 145.294 234.305 145.09C234.953 144.886 235.631 144.784 236.339 144.784C237.503 144.784 238.415 145.12 239.075 145.792C239.747 146.452 240.083 147.52 240.083 148.996V154H237.563L237.347 153.136H237.275C236.915 153.46 236.531 153.724 236.123 153.928C235.727 154.12 235.283 154.216 234.791 154.216ZM235.871 151.84C236.123 151.84 236.327 151.786 236.483 151.678C236.651 151.558 236.819 151.408 236.987 151.228V150.004C236.243 150.112 235.733 150.274 235.457 150.49C235.181 150.706 235.043 150.94 235.043 151.192C235.043 151.624 235.319 151.84 235.871 151.84ZM242.101 154V145H244.621L244.837 146.548H244.909C245.245 145.936 245.641 145.492 246.097 145.216C246.565 144.928 247.021 144.784 247.465 144.784C247.741 144.784 247.963 144.802 248.131 144.838C248.299 144.862 248.449 144.904 248.581 144.964L248.077 147.628C247.909 147.592 247.747 147.562 247.591 147.538C247.447 147.502 247.273 147.484 247.069 147.484C246.745 147.484 246.403 147.598 246.043 147.826C245.695 148.042 245.413 148.432 245.197 148.996V154H242.101ZM253.625 154.216C252.965 154.216 252.353 154.114 251.789 153.91C251.225 153.694 250.733 153.388 250.313 152.992C249.905 152.584 249.581 152.086 249.341 151.498C249.101 150.91 248.981 150.244 248.981 149.5C248.981 148.768 249.101 148.114 249.341 147.538C249.593 146.95 249.917 146.452 250.313 146.044C250.721 145.636 251.183 145.324 251.699 145.108C252.215 144.892 252.749 144.784 253.301 144.784C253.961 144.784 254.537 144.898 255.029 145.126C255.521 145.354 255.929 145.666 256.253 146.062C256.577 146.458 256.817 146.92 256.973 147.448C257.141 147.976 257.225 148.54 257.225 149.14C257.225 149.416 257.207 149.674 257.171 149.914C257.147 150.154 257.123 150.328 257.099 150.436H251.969C252.113 150.976 252.371 151.354 252.743 151.57C253.115 151.774 253.553 151.876 254.057 151.876C254.369 151.876 254.669 151.834 254.957 151.75C255.257 151.654 255.569 151.516 255.893 151.336L256.901 153.172C256.409 153.52 255.863 153.784 255.263 153.964C254.675 154.132 254.129 154.216 253.625 154.216ZM251.933 148.42H254.597C254.597 148.072 254.507 147.772 254.327 147.52C254.159 147.256 253.841 147.124 253.373 147.124C253.025 147.124 252.719 147.226 252.455 147.43C252.203 147.634 252.029 147.964 251.933 148.42Z" fill="white"/>
<path fill-rule="evenodd" clip-rule="evenodd" d="M201.416 120.306L206.148 123.037L206.148 123.051C206.607 131.214 210.021 134.748 216.393 133.654C207.586 136.013 202.595 131.569 201.418 120.32L201.416 120.306ZM216.2 119.573L216.172 119.608C215.783 120.088 215.44 120.601 215.143 121.146L215.143 121.146C212.819 120.593 209.899 121.187 206.385 122.926L206.167 123.035L206.155 123.041L201.424 120.309L201.436 120.304C207.935 117.407 212.856 117.163 216.2 119.573Z" fill="#30C576"/>
<path fill-rule="evenodd" clip-rule="evenodd" d="M240.786 120.306L240.785 120.32C239.608 131.569 234.616 136.013 225.81 133.654C232.181 134.748 235.596 131.214 236.054 123.051L236.055 123.037L240.786 120.306ZM225.52 119.948C228.866 117.146 233.948 117.264 240.766 120.304L240.779 120.309L236.047 123.041L236.035 123.035L235.817 122.926C231.895 120.985 228.714 120.471 226.274 121.385C226.057 120.948 225.771 120.499 225.417 120.037L225.52 119.948Z" fill="#38C2F8"/>
<path fill-rule="evenodd" clip-rule="evenodd" d="M220.643 110.363L220.654 110.371C229.807 117.015 231.161 123.56 224.714 130.007C228.848 125.036 227.494 120.312 220.654 115.834C220.65 115.831 220.646 115.829 220.642 115.826L220.643 110.363ZM220.642 110.354L220.642 115.818C220.638 115.82 220.635 115.823 220.631 115.825C213.79 120.304 212.437 125.028 216.571 129.999C210.124 123.552 211.477 117.006 220.631 110.363L220.642 110.354Z" fill="#FFED00"/>
</svg>
