<svg width="72" height="72" viewBox="0 0 72 72" fill="none" xmlns="http://www.w3.org/2000/svg">
<g clip-path="url(#clip0_1_77)">
<path d="M59.1328 15.0316C59.1328 22.5115 51.7148 28.8171 42.3239 36.7975C40.7067 38.1728 39.0277 39.5987 37.3163 41.0922L35.9297 42.3015L34.5432 41.0922C32.8318 39.5987 31.1527 38.1728 29.5355 36.7975C20.1446 28.8171 12.7267 22.5115 12.7267 15.0316C12.7267 7.47308 17.8974 0.0579499 25.3829 0.000293869C28.2333 -0.022206 32.1202 1.24201 35.9297 5.62246C38.5417 2.56402 42.2978 0.00634072 46.3359 0.000293869C52.0173 -0.0110967 58.7926 5.62105 59.1215 14.403C59.1286 14.6154 59.1328 14.8249 59.1328 15.0316Z" fill="#FF4081"/>
<path d="M59.1329 15.0314C59.1329 22.5112 51.7149 28.8168 42.324 36.7972C40.7068 38.1725 39.0278 39.5985 37.3164 41.0919L35.9298 42.3013V5.62218C38.5418 2.56374 42.2978 0.0060641 46.336 1.72451e-05C52.0174 -0.0113733 58.7927 5.62078 59.1216 14.4028C59.1286 14.6151 59.1329 14.8246 59.1329 15.0314Z" fill="#FF4081"/>
<path d="M1.43224 17.0156C6.53297 17.0156 6.3098 23.1727 6.39853 27.942V30.0936C6.48305 36.2107 7.03149 44.0998 14.2454 49.5841C15.8907 50.8497 17.9579 51.9466 20.4049 52.917C20.5735 52.5794 21.7549 49.4154 21.9236 48.9514C20.3627 48.3608 18.8863 47.6436 17.2408 46.5468C13.1066 43.0451 12.769 41.3998 13.0643 40.6404C13.5705 39.3748 16.3126 39.7124 17.6626 39.9655C21.586 40.7249 26.733 43.2982 29.9814 46.5468C32.2594 48.6139 33.8203 51.2296 33.8203 54.1827V71.9998H16.9454V69.8904C16.9454 64.9965 15.0046 63.4217 11.7987 61.0592C6.86259 57.3889 0.0704346 52.3686 0.0704346 31.7812V17.0156H1.43224Z" fill="#FFBFAB"/>
<path d="M38.0392 21.2344V17.0156H35.9298H33.8204V21.2344H29.6017V25.4531H33.8204V29.6719H35.9298H38.0392V25.4531H42.2579V21.2344H38.0392Z" fill="white"/>
<path d="M38.0392 25.4531H42.2579V21.2344H38.0392V17.0156H35.9298V29.6719H38.0392V25.4531Z" fill="white"/>
<path d="M70.5677 17.0156C65.467 17.0156 65.5496 23.1727 65.4608 27.942V30.0936C65.3763 36.2107 64.8279 44.0998 57.614 49.5841C55.9687 50.8497 53.9015 51.9466 51.4545 52.9171C51.2859 52.5794 50.1045 49.4154 49.9358 48.9514C51.4967 48.3608 52.9731 47.6436 54.6185 46.5468C58.7528 43.0451 59.0904 41.3998 58.7951 40.6404C58.2888 39.3748 55.5468 39.7124 54.1968 39.9655C50.2734 40.7249 45.1264 43.2982 41.878 46.5468C39.6 48.614 38.0391 51.2296 38.0391 54.1827V71.9998H54.914V69.8904C54.914 64.9966 56.8548 63.4217 60.0607 61.0592C64.9968 57.3889 71.9296 52.3686 71.9296 31.7812V17.0156H70.5677Z" fill="#FFBFAB"/>
</g>
<defs>
<clipPath id="clip0_1_77">
<rect width="72" height="72" fill="white"/>
</clipPath>
</defs>
</svg>
