<svg width="32" height="31" viewBox="0 0 32 31" fill="none" xmlns="http://www.w3.org/2000/svg">
<path d="M16 28.1982C17.4667 28.1982 18.6667 27.0446 18.6667 25.6347H13.3334C13.3334 26.3146 13.6143 26.9666 14.1144 27.4474C14.6145 27.9281 15.2928 28.1982 16 28.1982ZM24 20.5077V14.099C24 10.164 21.8134 6.8699 18 5.99831V5.12672C18 4.06287 17.1067 3.2041 16 3.2041C14.8934 3.2041 14 4.06287 14 5.12672V5.99831C10.1734 6.8699 8.00004 10.1512 8.00004 14.099V20.5077L5.33337 23.0712V24.353H26.6667V23.0712L24 20.5077Z" fill="#05A7E2"/>
</svg>
