<svg width="55" height="55" viewBox="0 0 55 55" fill="none" xmlns="http://www.w3.org/2000/svg">
<path d="M27.9896 19.4346L20.1351 27.4346L26.026 27.4346L26.026 45.4346L29.9532 45.4346L29.9532 27.4346L35.8441 27.4346L27.9896 19.4346ZM10.3169 45.4346L22.0987 45.4346L22.0987 41.4546L10.3169 41.4546L10.3169 13.3946L45.6623 13.3946L45.6623 41.4546L33.8805 41.4546L33.8805 45.4346L45.6623 45.4346C47.8223 45.4346 49.5896 43.6346 49.5896 41.4346L49.5896 13.4346C49.5896 11.2346 47.8223 9.43456 45.6623 9.43456L10.3169 9.43457C8.15687 9.43457 6.3896 11.2346 6.3896 13.4346L6.3896 41.4346C6.3896 43.6346 8.15688 45.4346 10.3169 45.4346Z" fill="#FF4C56"/>
</svg>
