<svg width="55" height="55" viewBox="0 0 55 55" fill="none" xmlns="http://www.w3.org/2000/svg">
<path d="M27.9896 4.56348C15.6146 4.56348 5.48956 14.6885 5.48956 27.0635C5.48956 39.4385 15.6146 49.5635 27.9896 49.5635C40.3646 49.5635 50.4896 39.4385 50.4896 27.0635C50.4896 14.6885 40.3646 4.56348 27.9896 4.56348ZM19.9571 32.5535L16.8971 31.181C17.5271 29.921 17.8646 28.571 17.8646 27.176C17.8646 25.691 17.5271 24.2735 16.8971 22.946L19.9571 21.5735C20.8121 23.396 21.2396 25.2635 21.2396 27.176C21.2396 28.8635 20.8121 30.6635 19.9571 32.5535ZM26.9321 35.9285L23.9846 34.466C25.1771 31.9235 25.7396 29.3135 25.7396 26.7485C25.7396 24.206 25.1771 21.866 23.9846 19.661L26.9321 17.9735C28.4171 20.5835 29.1146 23.5085 29.1146 26.7485C29.1146 30.056 28.4171 33.116 26.9321 35.9285ZM34.0196 39.101L30.9371 37.526C32.7146 34.061 33.6146 30.596 33.6146 27.0635C33.6146 23.531 32.7146 20.021 30.9371 16.511L34.0196 15.026C35.9771 19.031 36.9896 23.0585 36.9896 27.0635C36.9896 31.1585 35.9771 35.1635 34.0196 39.101Z" fill="#5572F3"/>
</svg>
