<svg width="72" height="72" viewBox="0 0 72 72" fill="none" xmlns="http://www.w3.org/2000/svg">
<g clip-path="url(#clip0_1_27)">
<path d="M63.3796 65.25V69.8906H59.2031V66.8529L47.6862 59.9343L49.8378 56.3483L58.3594 61.4108L56.7142 53.3952L60.8483 52.5938L63.3796 65.25Z" fill="#202A58"/>
<path d="M24.3138 59.9329L12.7968 66.8516V69.8893H8.62036V65.2064L11.4466 52.5078L15.5813 53.4362L13.8092 61.3249L22.1621 56.347L24.3138 59.9329Z" fill="#202A58"/>
<path d="M54.9844 44.5773V48.796C54.9844 56.938 48.3607 63.5617 40.2188 63.5617H31.7812C23.6393 63.5617 17.0156 56.938 17.0156 48.796V44.5773C17.4402 44.5311 37.2607 42.3729 36 42.5102L54.9844 44.5773Z" fill="#11B5E4"/>
<path d="M54.9844 25.5938L53.6765 27.7872L54.9844 29.8125V34.0312L53.6765 36.3516L54.9844 38.25V44.5781H17.0156V38.25L18.1972 36.267L17.0156 34.0312V29.8125L18.1972 27.7454L17.0156 25.5938V16.875L18.7031 14.7656L17.1843 12.6562C18.1972 5.52667 24.3561 0 31.7812 0H40.2188C47.6439 0 53.8028 5.52667 54.8157 12.6562L53.2128 14.7656L54.9844 16.875V25.5938Z" fill="#FF4081"/>
<path d="M54.9844 29.8125V25.5938H17.0156V29.8125H25.4531V34.0312H17.0156V38.25H54.9844V34.0312H46.5469V29.8125H54.9844ZM33.8906 34.0312H29.6719V29.8125H33.8906V34.0312ZM42.3281 34.0312H38.1094V29.8125H42.3281V34.0312Z" fill="#D1EDF1"/>
<path d="M12.6562 55.125C8.00299 55.125 4.21875 51.3408 4.21875 46.6875C4.21875 42.0342 8.00299 38.25 12.6562 38.25C17.3095 38.25 21.0938 42.0342 21.0938 46.6875C21.0938 51.3408 17.3095 55.125 12.6562 55.125Z" fill="#B4D2D7"/>
<path d="M59.3438 55.125C54.6905 55.125 50.9062 51.3408 50.9062 46.6875C50.9062 42.0342 54.6905 38.25 59.3438 38.25C63.997 38.25 67.7812 42.0342 67.7812 46.6875C67.7812 51.3408 63.997 55.125 59.3438 55.125Z" fill="#B4D2D7"/>
<path d="M33.8906 50.9062H38.1094V69.8906H33.8906V50.9062Z" fill="#202A58"/>
<path d="M42.3281 12.6562V16.875H38.1094V21.0938H33.8906V16.875H29.6719V12.6562H33.8906V8.4375H38.1094V12.6562H42.3281Z" fill="white"/>
<path d="M54.9844 29.8125V25.5938H36V38.25H54.9844V34.0312H46.5469V29.8125H54.9844ZM42.3281 34.0312H38.1094V29.8125H42.3281V34.0312Z" fill="#D1EDF1"/>
<path d="M25.4531 12.6562V16.875H17.0156V14.7656C17.0156 14.0482 17.0579 13.3314 17.1843 12.6562H25.4531Z" fill="#D1EDF1"/>
<path d="M54.9844 14.7656V16.875H46.5469V12.6562H54.8157C54.9421 13.3314 54.9844 14.0482 54.9844 14.7656Z" fill="#D1EDF1"/>
<path d="M0 67.7812H72V72H0V67.7812Z" fill="#B4D2D7"/>
<path d="M36 67.7812H72V72H36V67.7812Z" fill="#B4D2D7"/>
</g>
<defs>
<clipPath id="clip0_1_27">
<rect width="72" height="72" fill="white"/>
</clipPath>
</defs>
</svg>
