<svg width="72" height="72" viewBox="0 0 72 72" fill="none" xmlns="http://www.w3.org/2000/svg">
<path d="M6.8797 54.7754H65.1203C66.3253 54.7754 67.3043 53.7957 67.3043 52.5914V15.1508C67.3043 13.9465 66.3253 12.9668 65.1203 12.9668H6.8797C5.67536 12.9668 4.69567 13.9465 4.69567 15.1508V52.5914C4.69567 53.7957 5.67598 54.7754 6.8797 54.7754ZM6.56769 15.1508C6.56769 14.9786 6.70747 14.8388 6.8797 14.8388H65.1203C65.2925 14.8388 65.4323 14.9786 65.4323 15.1508V52.5914C65.4323 52.7636 65.2925 52.9034 65.1203 52.9034H6.8797C6.70747 52.9034 6.56769 52.7636 6.56769 52.5914V15.1508ZM72 56.4465V58.1943C72 58.6573 71.6243 59.033 71.1613 59.033H0.838668C0.375653 59.033 0 58.6573 0 58.1943V56.4465H29.5699C29.7159 56.9338 30.1627 57.2914 30.6975 57.2914H41.3031C41.8373 57.2914 42.2841 56.9345 42.4307 56.4465H72Z" fill="#FF4081"/>
<path d="M25.5 22.916C25.1906 22.916 24.8939 23.0389 24.6751 23.2577C24.4563 23.4765 24.3334 23.7733 24.3334 24.0827V30.4993C24.3334 32.5305 25.0497 34.298 26.3284 35.5592C27.3469 36.5625 28.6734 37.1995 30.1667 37.4165V38.3743C30.1667 40.3082 30.9349 42.1629 32.3024 43.5303C33.6698 44.8978 35.5245 45.666 37.4584 45.666C39.3922 45.666 41.2469 44.8978 42.6144 43.5303C43.9818 42.1629 44.75 40.3082 44.75 38.3743V37.6079C45.6071 37.3277 46.3364 36.7514 46.8071 35.9823C47.2778 35.2132 47.4593 34.3015 47.3188 33.4108C47.1784 32.5201 46.7253 31.7085 46.0408 31.1215C45.3563 30.5346 44.4851 30.2106 43.5834 30.2077C42.6797 30.2071 41.8055 30.5293 41.1184 31.1162C40.4312 31.7032 39.9763 32.5162 39.8355 33.4089C39.6948 34.3015 39.8775 35.2151 40.3508 35.985C40.824 36.7548 41.5567 37.3304 42.4167 37.6079V38.3743C42.4167 39.0255 42.2885 39.6702 42.0393 40.2718C41.7901 40.8734 41.4249 41.42 40.9644 41.8804C40.504 42.3408 39.9574 42.7061 39.3558 42.9553C38.7543 43.2044 38.1095 43.3327 37.4584 43.3327C36.8072 43.3327 36.1625 43.2044 35.5609 42.9553C34.9593 42.7061 34.4127 42.3408 33.9523 41.8804C33.4919 41.42 33.1266 40.8734 32.8775 40.2718C32.6283 39.6702 32.5 39.0255 32.5 38.3743V37.4165C33.9934 37.1995 35.3199 36.5625 36.3384 35.5592C37.6159 34.2992 38.3334 32.5305 38.3334 30.4993V24.0827C38.3334 23.7733 38.2105 23.4765 37.9917 23.2577C37.7729 23.0389 37.4761 22.916 37.1667 22.916H34.8357C34.5263 22.916 34.2295 23.0389 34.0107 23.2577C33.792 23.4765 33.669 23.7733 33.669 24.0827C33.669 24.3921 33.792 24.6888 34.0107 24.9076C34.2295 25.1264 34.5263 25.2493 34.8357 25.2493H36V30.4993C36 31.9682 35.4914 33.1173 34.6992 33.8979C33.9059 34.6807 32.7509 35.166 31.3334 35.166C29.9147 35.166 28.762 34.6807 27.9675 33.8979C27.1742 33.1162 26.6667 31.9682 26.6667 30.4993V25.2493H27.8334C28.1428 25.2493 28.4395 25.1264 28.6583 24.9076C28.8771 24.6888 29 24.3921 29 24.0827C29 23.7733 28.8771 23.4765 28.6583 23.2577C28.4395 23.0389 28.1428 22.916 27.8334 22.916H25.5ZM43.5834 32.541C43.9701 32.541 44.3411 32.6947 44.6146 32.9682C44.8881 33.2416 45.0417 33.6126 45.0417 33.9993C45.0417 34.3861 44.8881 34.7571 44.6146 35.0305C44.3411 35.304 43.9701 35.4577 43.5834 35.4577C43.1966 35.4577 42.8257 35.304 42.5522 35.0305C42.2787 34.7571 42.125 34.3861 42.125 33.9993C42.125 33.6126 42.2787 33.2416 42.5522 32.9682C42.8257 32.6947 43.1966 32.541 43.5834 32.541Z" fill="#06A2DB"/>
</svg>
