<svg width="32" height="32" viewBox="0 0 32 32" fill="none" xmlns="http://www.w3.org/2000/svg">
<g clip-path="url(#clip0_1_552)">
<path d="M21.9631 20.0003L16 25.9621L10.0369 20.0003C5.56875 20.194 2 23.8503 2 28.3621C2 29.327 2.3833 30.2524 3.06558 30.9347C3.74786 31.617 4.67323 32.0003 5.63812 32.0003H26.3619C27.3268 32.0003 28.2521 31.617 28.9344 30.9347C29.6167 30.2524 30 29.327 30 28.3621C30 23.8503 26.4312 20.194 21.9631 20.0003ZM16 19.0003C18.1217 19.0003 20.1566 18.1574 21.6569 16.6571C23.1571 15.1568 24 13.122 24 11.0003V4.11401C24.0005 3.70652 23.8765 3.30859 23.6446 2.9735C23.4127 2.63841 23.084 2.38215 22.7025 2.23901L17.4044 0.254639C16.4989 -0.0848796 15.5011 -0.0848796 14.5956 0.254639L9.2975 2.24151C8.91637 2.3845 8.58794 2.64038 8.35609 2.97497C8.12424 3.30957 8.00001 3.70694 8 4.11401V11.0003C8 13.122 8.84285 15.1568 10.3431 16.6571C11.8434 18.1574 13.8783 19.0003 16 19.0003ZM13.5 4.47964C13.5 4.39676 13.5329 4.31727 13.5915 4.25867C13.6501 4.20006 13.7296 4.16714 13.8125 4.16714H15.1669V2.81276C15.1669 2.72988 15.1998 2.6504 15.2584 2.59179C15.317 2.53319 15.3965 2.50026 15.4794 2.50026H16.5206C16.6035 2.50026 16.683 2.53319 16.7416 2.59179C16.8002 2.6504 16.8331 2.72988 16.8331 2.81276V4.16714H18.1875C18.2704 4.16714 18.3499 4.20006 18.4085 4.25867C18.4671 4.31727 18.5 4.39676 18.5 4.47964V5.52089C18.5 5.60377 18.4671 5.68325 18.4085 5.74186C18.3499 5.80046 18.2704 5.83339 18.1875 5.83339H16.8331V7.18776C16.8331 7.27064 16.8002 7.35013 16.7416 7.40873C16.683 7.46734 16.6035 7.50026 16.5206 7.50026H15.4794C15.3965 7.50026 15.317 7.46734 15.2584 7.40873C15.1998 7.35013 15.1669 7.27064 15.1669 7.18776V5.83339H13.8125C13.7296 5.83339 13.6501 5.80046 13.5915 5.74186C13.5329 5.68325 13.5 5.60377 13.5 5.52089V4.47964ZM11 10.0003H21V11.0003C21 12.3263 20.4732 13.5981 19.5355 14.5358C18.5979 15.4735 17.3261 16.0003 16 16.0003C14.6739 16.0003 13.4021 15.4735 12.4645 14.5358C11.5268 13.5981 11 12.3263 11 11.0003V10.0003Z" fill="#05A7E2"/>
</g>
<defs>
<clipPath id="clip0_1_552">
<rect width="28" height="32" fill="white" transform="translate(2)"/>
</clipPath>
</defs>
</svg>
