<svg width="72" height="72" viewBox="0 0 72 72" fill="none" xmlns="http://www.w3.org/2000/svg">
<g clip-path="url(#clip0_1_88)">
<path d="M16.0762 9.87109H45.2053V23.2909H16.0762V9.87109Z" fill="#DFE7F4"/>
<path d="M30.6408 9.87109H45.2053V23.2909H30.6408V9.87109Z" fill="#DFE7F4"/>
<path d="M54.9155 26.0078V67.4317C54.9155 69.9559 52.8694 72.002 50.3452 72.002H10.9378C8.41359 72.002 6.36749 69.9559 6.36749 67.4317V60.3752L8.33906 45.7122L6.36749 31.2067V26.0078C6.36749 23.4836 8.41359 21.4375 10.9378 21.4375H50.3452C52.8694 21.4375 54.9155 23.4836 54.9155 26.0078Z" fill="#FF4081"/>
<path d="M11.2219 0H50.0597V11.7267H11.2219V0Z" fill="#2A4979"/>
<path d="M62.4936 53.7031L47.3362 68.8604L62.4936 53.7031Z" fill="#A4EA2E"/>
<path d="M62.4937 47.707C58.8178 51.3815 53.138 51.8301 48.9741 49.0514C48.3961 48.6647 48.5958 46.447 48.5958 46.447C48.5958 46.447 46.3781 46.6467 45.9914 46.0687C43.2126 41.9048 43.6612 36.2236 47.3358 32.549C51.0117 28.8745 56.6902 28.4259 60.8541 31.2047C61.4334 31.59 61.515 33.5278 61.515 33.5278C61.515 33.5278 63.4528 33.6093 63.8381 34.1873C66.6169 38.3512 66.1683 44.0311 62.4937 47.707Z" fill="#FED39A"/>
<path d="M62.4937 47.7066C58.8178 51.3811 53.138 51.8297 48.9741 49.0509C48.3961 48.6642 48.5958 46.4466 48.5958 46.4466L61.515 33.5273C61.515 33.5273 63.4528 33.6089 63.8381 34.1869C66.6169 38.3508 66.1683 44.0306 62.4937 47.7066Z" fill="#FED39A"/>
<path d="M63.8381 34.1858L48.9741 49.0499C48.3961 48.6631 47.8462 48.2159 47.3358 47.7055C46.8253 47.195 46.3781 46.6452 45.9914 46.0672L60.8541 31.2031C61.4334 31.5884 61.9833 32.037 62.4937 32.5475C63.0042 33.058 63.4528 33.6078 63.8381 34.1858Z" fill="#FEB556"/>
<path d="M63.8382 34.1891L48.9741 49.0531C48.3961 48.6664 47.8463 48.2192 47.3358 47.7088L62.4938 32.5508C63.0042 33.0613 63.4528 33.6111 63.8382 34.1891Z" fill="#FD9126"/>
<path d="M6.36749 31.1445H35.4951V60.2722H6.36749V31.1445Z" fill="#F0F7FF"/>
<path d="M27.6184 43.6012H23.0408V39.0234H18.8221V43.6012H14.2444V47.8199H18.8221V52.3976H23.0408V47.8199H27.6184V43.6012Z" fill="#FF4081"/>
<path d="M62.4937 68.8593C58.8178 72.5339 53.138 72.9825 48.9741 70.2037C48.3961 69.817 48.5958 67.5993 48.5958 67.5993C48.5958 67.5993 46.3781 67.799 45.9914 67.2211C43.2126 63.0572 43.6612 57.3759 47.3358 53.7014C51.0117 50.0268 56.6902 49.5782 60.8541 52.357C61.4334 52.7423 61.515 54.6801 61.515 54.6801C61.515 54.6801 63.4528 54.7617 63.8381 55.3397C66.6169 59.5036 66.1683 65.1834 62.4937 68.8593Z" fill="#11B5E4"/>
<path d="M62.4937 68.8628C58.8178 72.5373 53.138 72.9859 48.9741 70.2072C48.3961 69.8205 48.5958 67.6028 48.5958 67.6028L61.515 54.6836C61.515 54.6836 63.4528 54.7652 63.8381 55.3431C66.6169 59.507 66.1683 65.1869 62.4937 68.8628Z" fill="#11B5E4"/>
<path d="M63.8381 55.342L48.9741 70.2061C48.3961 69.8194 47.8462 69.3722 47.3358 68.8617C46.8253 68.3512 46.3781 67.8014 45.9914 67.2234L60.8541 52.3594C61.4334 52.7447 61.9833 53.1933 62.4937 53.7037C63.0042 54.2142 63.4528 54.7641 63.8381 55.342Z" fill="#A1EAFF"/>
<path d="M63.8382 55.3414L48.9741 70.2055C48.3961 69.8188 47.8463 69.3716 47.3358 68.8611L62.4938 53.7031C63.0042 54.2136 63.4528 54.7634 63.8382 55.3414Z" fill="#5AD4F8"/>
</g>
<defs>
<clipPath id="clip0_1_88">
<rect width="72" height="72" fill="white"/>
</clipPath>
</defs>
</svg>
