<svg width="72" height="72" viewBox="0 0 72 72" fill="none" xmlns="http://www.w3.org/2000/svg">
<path d="M54.1862 24.6797H57.9988C59.3187 24.6797 60.3886 25.7497 60.3886 27.0695V33.4835C60.3886 34.8034 59.3186 35.8733 57.9988 35.8733H55.6925L54.1862 24.6797Z" fill="#FF4081"/>
<path d="M43.5266 0H23.7777C21.7161 0 19.93 1.42913 19.4779 3.4405L17.4545 12.4401L34.8431 14.5652L49.85 12.4401L47.8266 3.4405C47.3743 1.42913 45.5882 0 43.5266 0V0Z" fill="#FF4081"/>
<path d="M43.5266 71.9988H23.7777C21.7161 71.9988 19.93 70.5696 19.4779 68.5583L17.4545 59.5587L33.7631 56.7656L49.8501 59.5587L47.8267 68.5583C47.3743 70.5696 45.5882 71.9988 43.5266 71.9988Z" fill="#FF4081"/>
<path d="M50.094 59.5593H17.2093C14.1174 59.5593 11.6108 57.0528 11.6108 53.9608V18.0379C11.6108 14.946 14.1174 12.4395 17.2093 12.4395H50.094C53.186 12.4395 55.6925 14.946 55.6925 18.0379V53.9608C55.6925 57.0528 53.186 59.5593 50.094 59.5593Z" fill="#11B5E4"/>
<path d="M51.3463 18.8872V53.1111C51.3463 54.2715 50.4061 55.2132 49.2442 55.2132H18.0597C16.8978 55.2132 15.9576 54.2715 15.9576 53.1111V18.8872C15.9576 17.7268 16.8978 16.7852 18.0597 16.7852H49.2442C50.4061 16.7852 51.3463 17.7268 51.3463 18.8872Z" fill="white"/>
<path d="M36.0251 6.20038H31.2788C30.6787 6.20038 30.1923 5.71391 30.1923 5.11386C30.1923 4.51381 30.6787 4.02734 31.2788 4.02734H36.0251C36.6253 4.02734 37.1116 4.51381 37.1116 5.11386C37.1116 5.71391 36.6252 6.20038 36.0251 6.20038Z" fill="#EAF6FF"/>
<path d="M43.2521 32.7397C43.1585 30.6877 42.0847 28.9385 40.3797 28.0609C39.6372 27.6786 38.8006 27.4766 37.9603 27.4766C36.4205 27.4766 34.9952 28.1287 33.9999 29.2566C33.0046 28.1287 31.5793 27.4766 30.0396 27.4766C29.1993 27.4766 28.3627 27.6786 27.6202 28.0609C25.9151 28.9385 24.8413 30.6877 24.7477 32.7397C24.6684 34.4783 25.4591 36.4587 26.7155 37.6695C26.9111 37.8654 32.9777 44.056 33.0303 44.1099L33.0415 44.1212L33.0414 44.1212C33.2939 44.3737 33.63 44.5164 33.9879 44.5231C33.9919 44.5232 33.9959 44.5233 33.9999 44.5233C34.0038 44.5233 34.0079 44.5232 34.0119 44.5231C34.3697 44.5165 34.7058 44.3737 34.9583 44.1212L34.9582 44.1212L34.9713 44.108C35.022 44.056 41.0901 37.8639 41.2842 37.6694C42.5408 36.4586 43.3314 34.4783 43.2521 32.7397Z" fill="#FF4081"/>
<path d="M34.343 39.3403C34.3081 39.3403 34.2729 39.3375 34.2379 39.3317C34.0164 39.2951 33.8299 39.1459 33.7456 38.9378L31.7692 34.0595L30.5735 35.9496C30.4554 36.1364 30.2498 36.2496 30.0288 36.2496H23.6445C23.2886 36.2496 23 35.961 23 35.6051C23 35.2491 23.2886 34.9605 23.6445 34.9605H29.6738L31.3506 32.3099C31.4798 32.1056 31.7121 31.9903 31.953 32.0125C32.1936 32.034 32.4019 32.1885 32.4927 32.4124L34.5445 37.4768L36.526 35.1837C36.6484 35.042 36.8264 34.9606 37.0137 34.9606H44.3555C44.7114 34.9606 45 35.2492 45 35.6051C45 35.9611 44.7114 36.2497 44.3555 36.2497H37.3085L34.8307 39.1172C34.7072 39.2601 34.5286 39.3403 34.343 39.3403Z" fill="white"/>
</svg>
