<svg width="72" height="72" viewBox="0 0 72 72" fill="none" xmlns="http://www.w3.org/2000/svg">
<path d="M52.0498 0H19.9501C17.2758 0 15.087 2.18674 15.087 4.86309V67.1349C15.087 69.8112 17.2758 72 19.9501 72H52.0498C54.7241 72 56.9129 69.8153 56.9129 67.1369V4.86309C56.9129 2.18674 54.7241 0 52.0498 0ZM30.8653 3.50537H41.1346C41.4596 3.50537 41.7229 3.76869 41.7229 4.09577C41.7229 4.4208 41.4596 4.68411 41.1346 4.68411H30.8653C30.5403 4.68411 30.277 4.4208 30.277 4.09577C30.277 3.76869 30.5403 3.50537 30.8653 3.50537ZM36 69.5685C34.6566 69.5685 33.5684 68.4802 33.5684 67.1349C33.5684 65.7895 34.6566 64.7033 36 64.7033C37.3433 64.7033 38.4315 65.7895 38.4315 67.1349C38.4315 68.4802 37.3433 69.5685 36 69.5685ZM53.5289 63H18.471V7.71223H53.5289V63Z" fill="#FF4081"/>
<g clip-path="url(#clip0_1_357)">
<path fill-rule="evenodd" clip-rule="evenodd" d="M35.2522 32.5141L38.8613 33.5151L46.1741 35.5433L48.1509 28.4473C49.1664 24.8025 47.0078 20.9904 43.3549 19.9771C39.7003 18.964 35.8814 21.1159 34.8642 24.7624L33.6931 28.9705C33.6931 31.5411 34.3748 32.2717 35.2522 32.5141Z" fill="#FF4081"/>
<path fill-rule="evenodd" clip-rule="evenodd" d="M45.0476 27.5849L43.0709 34.6808L46.175 35.5423L48.1518 28.4463C49.1672 24.8015 47.0087 20.9894 43.3558 19.9761C42.821 19.8279 42.2844 19.7477 41.7513 19.7285C44.4674 21.2388 45.9146 24.472 45.0476 27.5849Z" fill="#EF2A6D"/>
<path fill-rule="evenodd" clip-rule="evenodd" d="M46.1743 35.5431L43.0702 34.6816L41.0934 41.7776C40.5638 43.6802 39.2705 45.1765 37.6345 46.0275C37.4807 46.4025 37.2989 46.7548 37.0892 47.0861C36.9721 47.2726 36.8463 47.4523 36.7117 47.6249C40.0377 48.0313 43.2746 45.9508 44.1974 42.6391L46.1743 35.5431Z" fill="#DDDAEC"/>
<path fill-rule="evenodd" clip-rule="evenodd" d="M29.4323 27.127C26.2093 27.127 23.5981 29.7341 23.5981 32.9499C23.5981 35.2187 24.8968 37.1823 26.7949 38.145C28.9674 39.1111 31.6363 39.0867 33.6654 36.9574C34.6582 35.9146 35.2682 34.502 35.2682 32.9499C35.2682 32.8034 35.263 32.6586 35.2524 32.5157C35.1511 31.1484 34.5778 29.9138 33.6934 28.9721C32.629 27.8367 31.1136 27.127 29.4323 27.127Z" fill="#FFD772"/>
<path fill-rule="evenodd" clip-rule="evenodd" d="M31.2467 43.4129L38.0229 44.754C38.6626 41.5556 36.948 38.2597 33.8019 37.0093C33.7565 36.9919 33.7111 36.9744 33.6656 36.957C32.9822 36.7023 32.2813 36.5611 31.5875 36.528C29.8345 36.4408 28.1199 37.0302 26.795 38.1446C26.2585 38.5928 25.7883 39.1282 25.4038 39.7402L31.2467 43.4129Z" fill="#B1E4F9"/>
<path fill-rule="evenodd" clip-rule="evenodd" d="M37.0886 47.0862L31.2388 44.1686L24.4714 42.0742C23.8352 45.269 25.5498 48.5633 28.6923 49.8119C29.5277 50.1433 30.3911 50.3019 31.2388 50.3019H31.2511C33.3711 50.3002 35.4021 49.3166 36.7111 47.625C36.8458 47.4524 36.9716 47.2728 37.0886 47.0862Z" fill="#B1E4F9"/>
<path fill-rule="evenodd" clip-rule="evenodd" d="M30.8706 27.3047C32.2077 28.7312 33.924 33.9333 30.5822 36.5509C30.9142 36.5177 31.2498 36.509 31.5872 36.5265C32.281 36.5596 32.9819 36.7009 33.6653 36.9554C34.658 35.9126 35.268 34.5 35.268 32.9479C35.268 32.8014 35.2628 32.6567 35.2522 32.5137C35.1509 31.1465 34.5776 29.9118 33.6932 28.9701C32.9417 28.1697 31.9682 27.582 30.8706 27.3047Z" fill="#FBBA58"/>
<path fill-rule="evenodd" clip-rule="evenodd" d="M37.0891 47.0868L33.8295 45.791C33.763 46.0125 33.6914 46.227 33.611 46.4398C33.0185 48.0232 32.059 49.3625 30.8652 50.2921C30.9893 50.299 31.1152 50.3025 31.2393 50.3025H31.2515C33.3716 50.3008 35.4025 49.3172 36.7116 47.6256C36.8462 47.453 36.972 47.2734 37.0891 47.0868Z" fill="#11B5E4"/>
<path fill-rule="evenodd" clip-rule="evenodd" d="M34.2615 43.2583L38.0227 44.7528C38.6624 41.5544 36.9479 38.2585 33.8018 37.0081C33.7564 36.9907 33.7109 36.9732 33.6655 36.9558C33.2233 36.7901 32.7741 36.6733 32.325 36.6035C32.5574 36.9104 32.7724 37.2366 32.9681 37.5818C33.7931 39.0345 34.2755 40.7993 34.2755 42.7019C34.2755 42.8886 34.272 43.0734 34.2615 43.2583Z" fill="#11B5E4"/>
<path fill-rule="evenodd" clip-rule="evenodd" d="M38.0227 44.752L30.7466 41.8606L25.4036 39.7383C25.1833 40.087 24.9911 40.462 24.8321 40.8596C24.673 41.2607 24.5542 41.6653 24.472 42.0734L32.2288 45.1549L37.0894 47.0854C37.3113 46.7348 37.5036 46.3582 37.6626 45.9588C37.8217 45.5612 37.9405 45.1567 38.0227 44.752Z" fill="#11B5E4"/>
<path fill-rule="evenodd" clip-rule="evenodd" d="M33.8304 45.7899L37.09 47.0857C37.312 46.7351 37.5043 46.3584 37.6633 45.9591C37.8223 45.5615 37.9412 45.157 38.0233 44.7523L34.2621 43.2578C34.2185 44.1419 34.0699 44.9929 33.8304 45.7899Z" fill="#0DA0CA"/>
</g>
<defs>
<clipPath id="clip0_1_357">
<rect width="30.5753" height="30.5753" fill="white" transform="translate(20.7123 19.7266)"/>
</clipPath>
</defs>
</svg>
