<svg width="27" height="28" viewBox="0 0 27 28" fill="none" xmlns="http://www.w3.org/2000/svg">
<g clip-path="url(#clip0_1_775)">
<path d="M2.25182 0.123185C2.38895 0.0418346 2.54432 -0.000647869 2.7023 7.46865e-06C2.86028 0.000662806 3.01532 0.0444329 3.15182 0.126918L17.2692 8.66692L12.9006 12.7437L1.80002 2.38372V0.933318C1.79989 0.768989 1.8416 0.607536 1.92093 0.465283C2.00026 0.323031 2.11441 0.205021 2.25182 0.123185Z" fill="white"/>
<path d="M1.80002 4.89453V23.102L11.556 13.9983L1.80002 4.89453Z" fill="white"/>
<path d="M1.80002 25.6178V27.0682C1.79997 27.2324 1.84171 27.3938 1.92102 27.5359C2.00032 27.6781 2.11439 27.796 2.25171 27.8778C2.38902 27.9596 2.54472 28.0024 2.70307 28.0018C2.86143 28.0013 3.01684 27.9574 3.15362 27.8746L17.2692 19.3346L12.9006 15.2578L1.80002 25.6178Z" fill="white"/>
<path d="M18.9018 18.3435L24.7518 14.8043C24.8878 14.7222 25.0006 14.6045 25.079 14.463C25.1574 14.3215 25.1987 14.1611 25.1987 13.9979C25.1987 13.8347 25.1574 13.6744 25.079 13.5329C25.0006 13.3914 24.8878 13.2737 24.7518 13.1915L18.9018 9.65234L14.2452 13.9979L18.9018 18.3435Z" fill="white"/>
</g>
<defs>
<clipPath id="clip0_1_775">
<rect width="27" height="28" fill="white"/>
</clipPath>
</defs>
</svg>
