<svg width="55" height="55" viewBox="0 0 55 55" fill="none" xmlns="http://www.w3.org/2000/svg">
<path d="M46.5644 14.8554C46.3879 14.6727 46.1718 14.525 45.9295 14.4216C45.6872 14.3181 45.4239 14.2611 45.1562 14.2541C40.9969 14.1555 35.7339 10.1241 32.2542 8.5421C30.1048 7.56792 28.6858 6.92559 27.6201 6.75638C27.4037 6.7278 27.1839 6.72835 26.9677 6.75802C25.902 6.92723 24.483 7.56957 22.3354 8.54374C18.8557 10.1241 13.5927 14.1555 9.43345 14.2541C9.16553 14.2615 8.90214 14.3186 8.6596 14.4221C8.41706 14.5255 8.20054 14.673 8.02346 14.8554C7.65641 15.2318 7.46704 15.7238 7.49607 16.2255C8.38955 32.6912 14.9049 42.8814 26.337 48.8037C26.6342 48.9565 26.9641 49.0354 27.2921 49.0354C27.6201 49.0354 27.95 48.9565 28.249 48.8037C39.6811 42.8814 46.1946 32.6912 47.0899 16.2255C47.1206 15.7238 46.9318 15.2315 46.5644 14.8554ZM37.4737 21.3313L27.8267 34.2354C27.4806 34.6987 26.9369 35.0059 26.3986 35.0059C25.8585 35.0059 25.2587 34.7381 24.8799 34.3948L18.08 28.2294C17.858 28.0274 17.7334 27.7539 17.7334 27.4687C17.7334 27.1836 17.858 26.9101 18.08 26.7081L19.7601 25.182C19.9834 24.9815 20.2849 24.8691 20.5992 24.8691C20.9134 24.8691 21.215 24.9815 21.4383 25.182L25.8604 29.1904L33.5428 18.9114C33.7206 18.6762 33.9938 18.5143 34.3028 18.461C34.6118 18.4078 34.9314 18.4675 35.192 18.6272L37.1584 19.8363C37.4182 19.9972 37.5972 20.2447 37.6562 20.5248C37.7153 20.8049 37.6497 21.0949 37.4737 21.3313Z" fill="#16C35F"/>
</svg>
